G75*
%MOIN*%
%OFA0B0*%
%FSLAX24Y24*%
%IPPOS*%
%LPD*%
%AMOC8*
5,1,8,0,0,1.08239X$1,22.5*
%
%ADD10OC8,0.0740*%
%ADD11C,0.0789*%
%ADD12C,0.0785*%
%ADD13C,0.0820*%
%ADD14C,0.0680*%
%ADD15C,0.0516*%
D10*
X001150Y012100D03*
X001150Y013100D03*
X001150Y014100D03*
X001150Y015100D03*
X001150Y016100D03*
X001150Y017100D03*
X001150Y018100D03*
X001150Y019100D03*
X001150Y020700D03*
X001150Y021700D03*
X001150Y022700D03*
X001150Y023700D03*
X001150Y024700D03*
X001150Y025700D03*
X001150Y026700D03*
X001150Y027700D03*
X020150Y027700D03*
X020150Y026700D03*
X020150Y025700D03*
X020150Y024700D03*
X020150Y023700D03*
X020150Y022700D03*
X020150Y020700D03*
X020150Y019700D03*
X020150Y018700D03*
X020150Y017700D03*
X020150Y016700D03*
X020150Y015700D03*
D11*
X007650Y011054D02*
X007650Y010346D01*
X008650Y010346D02*
X008650Y011054D01*
X008150Y012346D02*
X008150Y013054D01*
X007150Y013054D02*
X007150Y012346D01*
X009150Y012346D02*
X009150Y013054D01*
X010150Y013054D02*
X010150Y012346D01*
X009650Y011054D02*
X009650Y010346D01*
X010650Y010346D02*
X010650Y011054D01*
X011650Y011054D02*
X011650Y010346D01*
X012650Y010346D02*
X012650Y011054D01*
X012150Y012346D02*
X012150Y013054D01*
X013150Y013054D02*
X013150Y012346D01*
X013650Y011054D02*
X013650Y010346D01*
X014150Y012346D02*
X014150Y013054D01*
X011150Y013054D02*
X011150Y012346D01*
D12*
X011634Y026348D02*
X011634Y027053D01*
X009666Y027053D02*
X009666Y026348D01*
X007697Y026348D02*
X007697Y027053D01*
X013603Y027053D02*
X013603Y026348D01*
D13*
X017150Y026700D03*
X017150Y025700D03*
X017150Y024700D03*
X017150Y023700D03*
X017150Y022700D03*
X018150Y022700D03*
X018150Y023700D03*
X018150Y024700D03*
X018150Y025700D03*
X018150Y026700D03*
X018150Y027700D03*
X017150Y027700D03*
X019150Y027700D03*
X019150Y026700D03*
X019150Y025700D03*
X019150Y024700D03*
X019150Y023700D03*
X019150Y022700D03*
X018650Y012200D03*
X018650Y011200D03*
X018650Y010200D03*
X019650Y010200D03*
X019650Y011200D03*
X019650Y012200D03*
X017650Y012200D03*
X017650Y011200D03*
X017650Y010200D03*
X004150Y013700D03*
X004150Y014700D03*
X004150Y015700D03*
X004150Y016700D03*
X004150Y017700D03*
X004150Y018700D03*
X003150Y018700D03*
X003150Y017700D03*
X003150Y016700D03*
X003150Y015700D03*
X003150Y014700D03*
X003150Y013700D03*
X002150Y013700D03*
X002150Y014700D03*
X002150Y015700D03*
X002150Y016700D03*
X002150Y017700D03*
X002150Y018700D03*
X002150Y020700D03*
X002150Y021700D03*
X002150Y022700D03*
X002150Y023700D03*
X002150Y024700D03*
X002150Y025700D03*
X002150Y026700D03*
X002150Y027700D03*
X003150Y027700D03*
X003150Y026700D03*
X003150Y025700D03*
X003150Y024700D03*
X003150Y023700D03*
X003150Y022700D03*
X003150Y021700D03*
X003150Y020700D03*
X004150Y020700D03*
X004150Y021700D03*
X004150Y022700D03*
X004150Y023700D03*
X004150Y024700D03*
X004150Y025700D03*
X004150Y026700D03*
X004150Y027700D03*
D14*
X016260Y016480D03*
X018040Y016480D03*
X018040Y013920D03*
X016260Y013920D03*
D15*
X014650Y017200D03*
X012150Y019200D03*
X014650Y021200D03*
X016150Y022200D03*
X017150Y021200D03*
X012150Y023200D03*
X009650Y021200D03*
X007150Y019200D03*
X009650Y017200D03*
X007150Y023200D03*
X012150Y008950D03*
X011650Y008200D03*
X011150Y007950D03*
X009650Y006700D03*
X009150Y007700D03*
X008650Y007450D03*
X008650Y006300D03*
M02*
