%
M48
M72
T01C0.0276
T02C0.0394
T03C0.0400
T04C0.0470
T05C0.0472
%
T01
X8650Y6300
X8650Y7450
X9150Y7700
X9650Y6700
X11150Y7950
X11650Y8200
X12150Y8950
X9650Y17200
X7150Y19200
X9650Y21200
X7150Y23200
X12150Y23200
X14650Y21200
X16150Y22200
X17150Y21200
X14650Y17200
X12150Y19200
T02
X20150Y18700
X20150Y17700
X20150Y16700
X20150Y15700
X20150Y19700
X20150Y20700
X20150Y22700
X20150Y23700
X20150Y24700
X20150Y25700
X20150Y26700
X20150Y27700
X1150Y27700
X1150Y26700
X1150Y25700
X1150Y24700
X1150Y23700
X1150Y22700
X1150Y21700
X1150Y20700
X1150Y19100
X1150Y18100
X1150Y17100
X1150Y16100
X1150Y15100
X1150Y14100
X1150Y13100
X1150Y12100
T03
X2150Y13700
X2150Y14700
X2150Y15700
X2150Y16700
X2150Y17700
X2150Y18700
X3150Y18700
X3150Y17700
X3150Y16700
X3150Y15700
X3150Y14700
X3150Y13700
X4150Y13700
X4150Y14700
X4150Y15700
X4150Y16700
X4150Y17700
X4150Y18700
X4150Y20700
X4150Y21700
X4150Y22700
X4150Y23700
X4150Y24700
X4150Y25700
X4150Y26700
X4150Y27700
X3150Y27700
X3150Y26700
X3150Y25700
X3150Y24700
X3150Y23700
X3150Y22700
X3150Y21700
X3150Y20700
X2150Y20700
X2150Y21700
X2150Y22700
X2150Y23700
X2150Y24700
X2150Y25700
X2150Y26700
X2150Y27700
X16260Y16480
X18040Y16480
X18040Y13920
X17650Y12200
X17650Y11200
X17650Y10200
X18650Y10200
X18650Y11200
X18650Y12200
X19650Y12200
X19650Y11200
X19650Y10200
X16260Y13920
X17150Y22700
X17150Y23700
X17150Y24700
X17150Y25700
X17150Y26700
X17150Y27700
X18150Y27700
X18150Y26700
X18150Y25700
X18150Y24700
X18150Y23700
X18150Y22700
X19150Y22700
X19150Y23700
X19150Y24700
X19150Y25700
X19150Y26700
X19150Y27700
T04
X13603Y26700
X11634Y26700
X9666Y26700
X7697Y26700
T05
X7650Y10700
X8650Y10700
X9650Y10700
X10650Y10700
X11650Y10700
X12650Y10700
X13650Y10700
X13150Y12700
X12150Y12700
X11150Y12700
X10150Y12700
X9150Y12700
X8150Y12700
X7150Y12700
X14150Y12700
M30
