G75*
%MOIN*%
%OFA0B0*%
%FSLAX24Y24*%
%IPPOS*%
%LPD*%
%AMOC8*
5,1,8,0,0,1.08239X$1,22.5*
%
%ADD10C,0.0030*%
%ADD11C,0.0060*%
%ADD12C,0.0040*%
%ADD13R,0.7461X0.0659*%
%ADD14C,0.0080*%
%ADD15C,0.0008*%
%ADD16C,0.0020*%
%ADD17R,0.0118X0.0059*%
%ADD18R,0.0118X0.0118*%
%ADD19R,0.0256X0.0551*%
D10*
X001788Y011115D02*
X001665Y011238D01*
X001788Y011361D01*
X002035Y011361D01*
X002035Y011483D02*
X001665Y011483D01*
X001665Y011668D01*
X001726Y011730D01*
X001850Y011730D01*
X001912Y011668D01*
X001912Y011483D01*
X001912Y011606D02*
X002035Y011730D01*
X001973Y011851D02*
X001850Y011851D01*
X001788Y011913D01*
X001788Y012036D01*
X001850Y012098D01*
X001912Y012098D01*
X001912Y011851D01*
X001973Y011851D02*
X002035Y011913D01*
X002035Y012036D01*
X002035Y012281D02*
X001726Y012281D01*
X001665Y012343D01*
X001850Y012343D02*
X001850Y012219D01*
X001850Y012610D02*
X001973Y012610D01*
X002035Y012672D01*
X002035Y012857D01*
X002097Y012857D02*
X001788Y012857D01*
X001788Y012672D01*
X001850Y012610D01*
X002158Y012733D02*
X002158Y012795D01*
X002097Y012857D01*
X002035Y012978D02*
X001788Y012978D01*
X001788Y013164D01*
X001850Y013225D01*
X002035Y013225D01*
X001973Y013347D02*
X001850Y013347D01*
X001788Y013408D01*
X001788Y013594D01*
X001665Y013594D02*
X002035Y013594D01*
X002035Y013408D01*
X001973Y013347D01*
X002035Y013828D02*
X002035Y014075D01*
X002035Y013952D02*
X001665Y013952D01*
X001788Y013828D01*
X001726Y014197D02*
X001665Y014258D01*
X001665Y014382D01*
X001726Y014444D01*
X001788Y014444D01*
X001850Y014382D01*
X001912Y014444D01*
X001973Y014444D01*
X002035Y014382D01*
X002035Y014258D01*
X001973Y014197D01*
X001850Y014320D02*
X001850Y014382D01*
X001788Y014828D02*
X001665Y014952D01*
X002035Y014952D01*
X002035Y015075D02*
X002035Y014828D01*
X002035Y015197D02*
X001788Y015444D01*
X001726Y015444D01*
X001665Y015382D01*
X001665Y015258D01*
X001726Y015197D01*
X002035Y015197D02*
X002035Y015444D01*
X002035Y015828D02*
X002035Y016075D01*
X002035Y016197D02*
X002035Y016444D01*
X002035Y016320D02*
X001665Y016320D01*
X001788Y016197D01*
X001665Y015952D02*
X002035Y015952D01*
X001788Y015828D02*
X001665Y015952D01*
X001788Y016828D02*
X001665Y016952D01*
X002035Y016952D01*
X002035Y017075D02*
X002035Y016828D01*
X001973Y017197D02*
X001726Y017444D01*
X001973Y017444D01*
X002035Y017382D01*
X002035Y017258D01*
X001973Y017197D01*
X001726Y017197D01*
X001665Y017258D01*
X001665Y017382D01*
X001726Y017444D01*
X001726Y017997D02*
X001788Y017997D01*
X001850Y018058D01*
X001850Y018244D01*
X001973Y018244D02*
X002035Y018182D01*
X002035Y018058D01*
X001973Y017997D01*
X001973Y018244D02*
X001726Y018244D01*
X001665Y018182D01*
X001665Y018058D01*
X001726Y017997D01*
X001726Y018997D02*
X001788Y018997D01*
X001850Y019058D01*
X001850Y019182D01*
X001912Y019244D01*
X001973Y019244D01*
X002035Y019182D01*
X002035Y019058D01*
X001973Y018997D01*
X001912Y018997D01*
X001850Y019058D01*
X001850Y019182D02*
X001788Y019244D01*
X001726Y019244D01*
X001665Y019182D01*
X001665Y019058D01*
X001726Y018997D01*
X000635Y018419D02*
X000573Y018481D01*
X000326Y018481D01*
X000265Y018419D01*
X000265Y018296D01*
X000326Y018234D01*
X000573Y018234D01*
X000635Y018296D01*
X000635Y018419D01*
X000265Y018113D02*
X000635Y017866D01*
X000635Y017744D02*
X000635Y017620D01*
X000635Y017682D02*
X000265Y017682D01*
X000265Y017620D02*
X000265Y017744D01*
X000265Y017068D02*
X000635Y017068D01*
X000635Y017007D02*
X000635Y017130D01*
X000635Y016885D02*
X000635Y016700D01*
X000573Y016638D01*
X000512Y016700D01*
X000512Y016885D01*
X000450Y016885D02*
X000635Y016885D01*
X000450Y016885D02*
X000388Y016823D01*
X000388Y016700D01*
X000388Y016516D02*
X000388Y016393D01*
X000326Y016454D02*
X000573Y016454D01*
X000635Y016516D01*
X000635Y016271D02*
X000635Y016147D01*
X000635Y016209D02*
X000388Y016209D01*
X000388Y016147D01*
X000388Y016026D02*
X000388Y015841D01*
X000450Y015779D01*
X000573Y015779D01*
X000635Y015841D01*
X000635Y016026D01*
X000697Y016026D02*
X000388Y016026D01*
X000265Y016209D02*
X000203Y016209D01*
X000203Y015595D02*
X000265Y015595D01*
X000388Y015595D02*
X000635Y015595D01*
X000635Y015533D02*
X000635Y015657D01*
X000573Y015412D02*
X000326Y015412D01*
X000265Y015350D01*
X000265Y015165D01*
X000635Y015165D01*
X000635Y015350D01*
X000573Y015412D01*
X000388Y015533D02*
X000388Y015595D01*
X000758Y015902D02*
X000758Y015964D01*
X000697Y016026D01*
X000265Y017007D02*
X000265Y017068D01*
X001665Y020597D02*
X001665Y020844D01*
X001726Y020844D01*
X001973Y020597D01*
X002035Y020597D01*
X001973Y021597D02*
X001850Y021597D01*
X001850Y021782D01*
X001912Y021844D01*
X001973Y021844D01*
X002035Y021782D01*
X002035Y021658D01*
X001973Y021597D01*
X001850Y021597D02*
X001726Y021720D01*
X001665Y021844D01*
X001665Y022597D02*
X001850Y022597D01*
X001788Y022720D01*
X001788Y022782D01*
X001850Y022844D01*
X001973Y022844D01*
X002035Y022782D01*
X002035Y022658D01*
X001973Y022597D01*
X001665Y022597D02*
X001665Y022844D01*
X001850Y023597D02*
X001850Y023844D01*
X002035Y023782D02*
X001665Y023782D01*
X001850Y023597D01*
X001973Y024597D02*
X002035Y024658D01*
X002035Y024782D01*
X001973Y024844D01*
X001912Y024844D01*
X001850Y024782D01*
X001850Y024720D01*
X001850Y024782D02*
X001788Y024844D01*
X001726Y024844D01*
X001665Y024782D01*
X001665Y024658D01*
X001726Y024597D01*
X001726Y025597D02*
X001665Y025658D01*
X001665Y025782D01*
X001726Y025844D01*
X001788Y025844D01*
X002035Y025597D01*
X002035Y025844D01*
X002035Y026597D02*
X002035Y026844D01*
X002035Y026720D02*
X001665Y026720D01*
X001788Y026597D01*
X001726Y027597D02*
X001665Y027658D01*
X001665Y027782D01*
X001726Y027844D01*
X001973Y027597D01*
X002035Y027658D01*
X002035Y027782D01*
X001973Y027844D01*
X001726Y027844D01*
X001726Y027597D02*
X001973Y027597D01*
X000573Y026081D02*
X000326Y026081D01*
X000265Y026019D01*
X000265Y025896D01*
X000326Y025834D01*
X000573Y025834D01*
X000635Y025896D01*
X000635Y026019D01*
X000573Y026081D01*
X000265Y025713D02*
X000635Y025466D01*
X000635Y025344D02*
X000635Y025220D01*
X000635Y025282D02*
X000265Y025282D01*
X000265Y025220D02*
X000265Y025344D01*
X000265Y024668D02*
X000635Y024668D01*
X000635Y024607D02*
X000635Y024730D01*
X000635Y024485D02*
X000635Y024300D01*
X000573Y024238D01*
X000512Y024300D01*
X000512Y024485D01*
X000450Y024485D02*
X000635Y024485D01*
X000450Y024485D02*
X000388Y024423D01*
X000388Y024300D01*
X000388Y024116D02*
X000388Y023993D01*
X000326Y024054D02*
X000573Y024054D01*
X000635Y024116D01*
X000635Y023871D02*
X000635Y023747D01*
X000635Y023809D02*
X000388Y023809D01*
X000388Y023747D01*
X000388Y023626D02*
X000388Y023441D01*
X000450Y023379D01*
X000573Y023379D01*
X000635Y023441D01*
X000635Y023626D01*
X000697Y023626D02*
X000758Y023564D01*
X000758Y023502D01*
X000697Y023626D02*
X000388Y023626D01*
X000265Y023809D02*
X000203Y023809D01*
X000203Y023195D02*
X000265Y023195D01*
X000388Y023195D02*
X000635Y023195D01*
X000635Y023133D02*
X000635Y023257D01*
X000573Y023012D02*
X000326Y023012D01*
X000265Y022950D01*
X000265Y022765D01*
X000635Y022765D01*
X000635Y022950D01*
X000573Y023012D01*
X000388Y023133D02*
X000388Y023195D01*
X000265Y024607D02*
X000265Y024668D01*
X001850Y011361D02*
X001850Y011115D01*
X001788Y011115D02*
X002035Y011115D01*
X019265Y015011D02*
X019265Y015196D01*
X019326Y015258D01*
X019450Y015258D01*
X019512Y015196D01*
X019512Y015011D01*
X019635Y015011D02*
X019265Y015011D01*
X019326Y015379D02*
X019265Y015441D01*
X019265Y015564D01*
X019326Y015626D01*
X019265Y015748D02*
X019265Y015995D01*
X019265Y015871D02*
X019635Y015871D01*
X019573Y015626D02*
X019635Y015564D01*
X019635Y015441D01*
X019573Y015379D01*
X019635Y015258D02*
X019512Y015134D01*
X019388Y015379D02*
X019450Y015441D01*
X019450Y015564D01*
X019512Y015626D01*
X019573Y015626D01*
X019388Y015379D02*
X019326Y015379D01*
X019326Y016397D02*
X019265Y016459D01*
X019265Y016582D01*
X019326Y016644D01*
X019388Y016644D01*
X019450Y016582D01*
X019512Y016644D01*
X019573Y016644D01*
X019635Y016582D01*
X019635Y016459D01*
X019573Y016397D01*
X019450Y016520D02*
X019450Y016582D01*
X019388Y016765D02*
X019635Y016889D01*
X019388Y017012D01*
X019450Y017497D02*
X019265Y017497D01*
X019265Y017744D01*
X019388Y017682D02*
X019388Y017620D01*
X019450Y017497D01*
X019573Y017497D02*
X019635Y017559D01*
X019635Y017682D01*
X019573Y017744D01*
X019450Y017744D01*
X019388Y017682D01*
X019388Y017865D02*
X019635Y017989D01*
X019388Y018112D01*
X019326Y018769D02*
X019573Y018769D01*
X019635Y018831D01*
X019635Y018954D01*
X019573Y019016D01*
X019450Y019016D01*
X019450Y018892D01*
X019326Y018769D02*
X019265Y018831D01*
X019265Y018954D01*
X019326Y019016D01*
X019388Y019137D02*
X019388Y019322D01*
X019450Y019384D01*
X019635Y019384D01*
X019573Y019506D02*
X019450Y019506D01*
X019388Y019567D01*
X019388Y019752D01*
X019265Y019752D02*
X019635Y019752D01*
X019635Y019567D01*
X019573Y019506D01*
X019635Y019137D02*
X019388Y019137D01*
X019265Y020347D02*
X019512Y020347D01*
X019635Y020470D01*
X019512Y020594D01*
X019265Y020594D01*
X019388Y020715D02*
X019388Y020777D01*
X019635Y020777D01*
X019635Y020715D02*
X019635Y020839D01*
X019635Y020961D02*
X019388Y020961D01*
X019388Y021146D01*
X019450Y021208D01*
X019635Y021208D01*
X019265Y020777D02*
X019203Y020777D01*
X019326Y022565D02*
X019265Y022627D01*
X019265Y022750D01*
X019326Y022812D01*
X019573Y022565D01*
X019635Y022627D01*
X019635Y022750D01*
X019573Y022812D01*
X019326Y022812D01*
X019326Y022565D02*
X019573Y022565D01*
X019635Y023565D02*
X019635Y023812D01*
X019635Y023688D02*
X019265Y023688D01*
X019388Y023565D01*
X019326Y024565D02*
X019265Y024627D01*
X019265Y024750D01*
X019326Y024812D01*
X019388Y024812D01*
X019635Y024565D01*
X019635Y024812D01*
X019573Y025565D02*
X019635Y025627D01*
X019635Y025750D01*
X019573Y025812D01*
X019512Y025812D01*
X019450Y025750D01*
X019450Y025688D01*
X019450Y025750D02*
X019388Y025812D01*
X019326Y025812D01*
X019265Y025750D01*
X019265Y025627D01*
X019326Y025565D01*
X019450Y026565D02*
X019450Y026812D01*
X019635Y026750D02*
X019265Y026750D01*
X019450Y026565D01*
X019450Y027565D02*
X019265Y027565D01*
X019265Y027812D01*
X019388Y027750D02*
X019450Y027812D01*
X019573Y027812D01*
X019635Y027750D01*
X019635Y027627D01*
X019573Y027565D01*
X019450Y027565D02*
X019388Y027688D01*
X019388Y027750D01*
X020706Y026905D02*
X020706Y026720D01*
X020953Y026720D01*
X020953Y026598D02*
X020953Y026474D01*
X020953Y026536D02*
X020583Y026536D01*
X020583Y026474D02*
X020583Y026598D01*
X020706Y026905D02*
X020768Y026967D01*
X020953Y026967D01*
X020953Y025985D02*
X020953Y025799D01*
X020891Y025738D01*
X020768Y025738D01*
X020706Y025799D01*
X020706Y025985D01*
X021015Y025985D01*
X021076Y025923D01*
X021076Y025861D01*
X020891Y025616D02*
X020768Y025616D01*
X020706Y025555D01*
X020706Y025431D01*
X020768Y025369D01*
X020891Y025369D01*
X020953Y025431D01*
X020953Y025555D01*
X020891Y025616D01*
X020953Y025247D02*
X020953Y025124D01*
X020953Y025186D02*
X020583Y025186D01*
X020583Y025124D01*
X020706Y024941D02*
X020768Y025002D01*
X020953Y025002D01*
X020953Y024817D01*
X020891Y024756D01*
X020830Y024817D01*
X020830Y025002D01*
X020706Y024941D02*
X020706Y024817D01*
X020768Y024634D02*
X020953Y024634D01*
X020768Y024634D02*
X020706Y024572D01*
X020706Y024387D01*
X020953Y024387D01*
X020953Y024266D02*
X020706Y024266D01*
X020583Y024142D01*
X020706Y024019D01*
X020953Y024019D01*
X020768Y024019D02*
X020768Y024266D01*
D11*
X006950Y011000D02*
X006950Y009600D01*
X006950Y011000D02*
X007050Y011000D01*
X014250Y011000D02*
X014350Y011000D01*
X014350Y009600D01*
X016850Y013900D02*
X017450Y013900D01*
X017450Y014000D01*
X017550Y014000D01*
X018350Y014350D02*
X018350Y014700D01*
X018350Y015650D01*
X018350Y016050D01*
X017550Y016400D02*
X017450Y016400D01*
X017450Y016500D01*
X016850Y016500D01*
X016850Y016400D01*
X016750Y016400D01*
X015950Y016050D02*
X015950Y015700D01*
X015950Y014700D01*
X015950Y014350D01*
X016750Y014000D02*
X016850Y014000D01*
X016850Y013900D01*
X017050Y015200D02*
X017052Y015220D01*
X017058Y015238D01*
X017067Y015256D01*
X017079Y015271D01*
X017094Y015283D01*
X017112Y015292D01*
X017130Y015298D01*
X017150Y015300D01*
X017170Y015298D01*
X017188Y015292D01*
X017206Y015283D01*
X017221Y015271D01*
X017233Y015256D01*
X017242Y015238D01*
X017248Y015220D01*
X017250Y015200D01*
X017248Y015180D01*
X017242Y015162D01*
X017233Y015144D01*
X017221Y015129D01*
X017206Y015117D01*
X017188Y015108D01*
X017170Y015102D01*
X017150Y015100D01*
X017130Y015102D01*
X017112Y015108D01*
X017094Y015117D01*
X017079Y015129D01*
X017067Y015144D01*
X017058Y015162D01*
X017052Y015180D01*
X017050Y015200D01*
X016450Y015200D02*
X016452Y015252D01*
X016458Y015304D01*
X016468Y015356D01*
X016481Y015406D01*
X016498Y015456D01*
X016519Y015504D01*
X016544Y015550D01*
X016572Y015594D01*
X016603Y015636D01*
X016637Y015676D01*
X016674Y015713D01*
X016714Y015747D01*
X016756Y015778D01*
X016800Y015806D01*
X016846Y015831D01*
X016894Y015852D01*
X016944Y015869D01*
X016994Y015882D01*
X017046Y015892D01*
X017098Y015898D01*
X017150Y015900D01*
X017202Y015898D01*
X017254Y015892D01*
X017306Y015882D01*
X017356Y015869D01*
X017406Y015852D01*
X017454Y015831D01*
X017500Y015806D01*
X017544Y015778D01*
X017586Y015747D01*
X017626Y015713D01*
X017663Y015676D01*
X017697Y015636D01*
X017728Y015594D01*
X017756Y015550D01*
X017781Y015504D01*
X017802Y015456D01*
X017819Y015406D01*
X017832Y015356D01*
X017842Y015304D01*
X017848Y015252D01*
X017850Y015200D01*
X017848Y015148D01*
X017842Y015096D01*
X017832Y015044D01*
X017819Y014994D01*
X017802Y014944D01*
X017781Y014896D01*
X017756Y014850D01*
X017728Y014806D01*
X017697Y014764D01*
X017663Y014724D01*
X017626Y014687D01*
X017586Y014653D01*
X017544Y014622D01*
X017500Y014594D01*
X017454Y014569D01*
X017406Y014548D01*
X017356Y014531D01*
X017306Y014518D01*
X017254Y014508D01*
X017202Y014502D01*
X017150Y014500D01*
X017098Y014502D01*
X017046Y014508D01*
X016994Y014518D01*
X016944Y014531D01*
X016894Y014548D01*
X016846Y014569D01*
X016800Y014594D01*
X016756Y014622D01*
X016714Y014653D01*
X016674Y014687D01*
X016637Y014724D01*
X016603Y014764D01*
X016572Y014806D01*
X016544Y014850D01*
X016519Y014896D01*
X016498Y014944D01*
X016481Y014994D01*
X016468Y015044D01*
X016458Y015096D01*
X016452Y015148D01*
X016450Y015200D01*
X014587Y025050D02*
X014587Y025990D01*
X014587Y028590D01*
X006717Y028590D01*
X006717Y028670D01*
X014587Y028670D01*
X014587Y028590D01*
X013407Y028070D02*
X013409Y028098D01*
X013415Y028125D01*
X013424Y028151D01*
X013437Y028176D01*
X013454Y028199D01*
X013473Y028219D01*
X013495Y028236D01*
X013519Y028250D01*
X013545Y028260D01*
X013572Y028267D01*
X013600Y028270D01*
X013628Y028269D01*
X013655Y028264D01*
X013682Y028255D01*
X013707Y028243D01*
X013730Y028228D01*
X013751Y028209D01*
X013769Y028188D01*
X013784Y028164D01*
X013795Y028138D01*
X013803Y028112D01*
X013807Y028084D01*
X013807Y028056D01*
X013803Y028028D01*
X013795Y028002D01*
X013784Y027976D01*
X013769Y027952D01*
X013751Y027931D01*
X013730Y027912D01*
X013707Y027897D01*
X013682Y027885D01*
X013655Y027876D01*
X013628Y027871D01*
X013600Y027870D01*
X013572Y027873D01*
X013545Y027880D01*
X013519Y027890D01*
X013495Y027904D01*
X013473Y027921D01*
X013454Y027941D01*
X013437Y027964D01*
X013424Y027989D01*
X013415Y028015D01*
X013409Y028042D01*
X013407Y028070D01*
X013257Y025990D02*
X011987Y025990D01*
X011287Y025990D02*
X010017Y025990D01*
X009317Y025990D02*
X008047Y025990D01*
X007347Y025990D02*
X006717Y025990D01*
X006717Y028590D01*
X007497Y028070D02*
X007499Y028098D01*
X007505Y028125D01*
X007514Y028151D01*
X007527Y028176D01*
X007544Y028199D01*
X007563Y028219D01*
X007585Y028236D01*
X007609Y028250D01*
X007635Y028260D01*
X007662Y028267D01*
X007690Y028270D01*
X007718Y028269D01*
X007745Y028264D01*
X007772Y028255D01*
X007797Y028243D01*
X007820Y028228D01*
X007841Y028209D01*
X007859Y028188D01*
X007874Y028164D01*
X007885Y028138D01*
X007893Y028112D01*
X007897Y028084D01*
X007897Y028056D01*
X007893Y028028D01*
X007885Y028002D01*
X007874Y027976D01*
X007859Y027952D01*
X007841Y027931D01*
X007820Y027912D01*
X007797Y027897D01*
X007772Y027885D01*
X007745Y027876D01*
X007718Y027871D01*
X007690Y027870D01*
X007662Y027873D01*
X007635Y027880D01*
X007609Y027890D01*
X007585Y027904D01*
X007563Y027921D01*
X007544Y027941D01*
X007527Y027964D01*
X007514Y027989D01*
X007505Y028015D01*
X007499Y028042D01*
X007497Y028070D01*
X006717Y025990D02*
X006717Y025050D01*
X014587Y025050D01*
X014587Y025990D02*
X013957Y025990D01*
X011437Y028070D02*
X011439Y028098D01*
X011445Y028125D01*
X011454Y028151D01*
X011467Y028176D01*
X011484Y028199D01*
X011503Y028219D01*
X011525Y028236D01*
X011549Y028250D01*
X011575Y028260D01*
X011602Y028267D01*
X011630Y028270D01*
X011658Y028269D01*
X011685Y028264D01*
X011712Y028255D01*
X011737Y028243D01*
X011760Y028228D01*
X011781Y028209D01*
X011799Y028188D01*
X011814Y028164D01*
X011825Y028138D01*
X011833Y028112D01*
X011837Y028084D01*
X011837Y028056D01*
X011833Y028028D01*
X011825Y028002D01*
X011814Y027976D01*
X011799Y027952D01*
X011781Y027931D01*
X011760Y027912D01*
X011737Y027897D01*
X011712Y027885D01*
X011685Y027876D01*
X011658Y027871D01*
X011630Y027870D01*
X011602Y027873D01*
X011575Y027880D01*
X011549Y027890D01*
X011525Y027904D01*
X011503Y027921D01*
X011484Y027941D01*
X011467Y027964D01*
X011454Y027989D01*
X011445Y028015D01*
X011439Y028042D01*
X011437Y028070D01*
X009467Y028070D02*
X009469Y028098D01*
X009475Y028125D01*
X009484Y028151D01*
X009497Y028176D01*
X009514Y028199D01*
X009533Y028219D01*
X009555Y028236D01*
X009579Y028250D01*
X009605Y028260D01*
X009632Y028267D01*
X009660Y028270D01*
X009688Y028269D01*
X009715Y028264D01*
X009742Y028255D01*
X009767Y028243D01*
X009790Y028228D01*
X009811Y028209D01*
X009829Y028188D01*
X009844Y028164D01*
X009855Y028138D01*
X009863Y028112D01*
X009867Y028084D01*
X009867Y028056D01*
X009863Y028028D01*
X009855Y028002D01*
X009844Y027976D01*
X009829Y027952D01*
X009811Y027931D01*
X009790Y027912D01*
X009767Y027897D01*
X009742Y027885D01*
X009715Y027876D01*
X009688Y027871D01*
X009660Y027870D01*
X009632Y027873D01*
X009605Y027880D01*
X009579Y027890D01*
X009555Y027904D01*
X009533Y027921D01*
X009514Y027941D01*
X009497Y027964D01*
X009484Y027989D01*
X009475Y028015D01*
X009469Y028042D01*
X009467Y028070D01*
D12*
X014035Y013751D02*
X014035Y013290D01*
X013882Y013290D02*
X014189Y013290D01*
X013882Y013597D02*
X014035Y013751D01*
X013659Y010180D02*
X013505Y010180D01*
X013429Y010104D01*
X013659Y010180D02*
X013736Y010104D01*
X013736Y010027D01*
X013429Y009720D01*
X013736Y009720D01*
X007891Y009950D02*
X007584Y009950D01*
X007814Y010180D01*
X007814Y009720D01*
X007431Y009720D02*
X007124Y009720D01*
X007277Y009720D02*
X007277Y010180D01*
X007124Y010027D01*
X007114Y013267D02*
X007037Y013344D01*
X007114Y013267D02*
X007268Y013267D01*
X007344Y013344D01*
X007344Y013497D01*
X007268Y013574D01*
X007191Y013574D01*
X007037Y013497D01*
X007037Y013727D01*
X007344Y013727D01*
X006730Y013727D02*
X006730Y013267D01*
X006577Y013267D02*
X006884Y013267D01*
X006577Y013574D02*
X006730Y013727D01*
D13*
X010650Y009301D03*
D14*
X015851Y017401D02*
X015851Y019645D01*
X016205Y019999D01*
X016717Y019999D01*
X017583Y019999D02*
X018095Y019999D01*
X018449Y019645D01*
X018449Y017401D01*
X017583Y017401D01*
X016717Y017401D02*
X015851Y017401D01*
X016900Y022200D02*
X017400Y022200D01*
X017650Y022450D01*
X017900Y022200D01*
X018400Y022200D01*
X018650Y022450D01*
X018900Y022200D01*
X019400Y022200D01*
X019650Y022450D01*
X019650Y022950D01*
X019400Y023200D01*
X018900Y023200D01*
X018650Y022950D01*
X018400Y023200D01*
X017900Y023200D01*
X017650Y022950D01*
X017400Y023200D01*
X016900Y023200D01*
X016650Y022950D01*
X016650Y022450D01*
X016900Y022200D01*
X016900Y023200D02*
X017400Y023200D01*
X017650Y023450D01*
X017900Y023200D01*
X018400Y023200D01*
X018650Y023450D01*
X018900Y023200D01*
X019400Y023200D01*
X019650Y023450D01*
X019650Y023950D01*
X019400Y024200D01*
X018900Y024200D01*
X018650Y023950D01*
X018400Y024200D01*
X017900Y024200D01*
X017650Y023950D01*
X017400Y024200D01*
X016900Y024200D01*
X016650Y023950D01*
X016650Y023450D01*
X016900Y023200D01*
X016900Y024200D02*
X017400Y024200D01*
X017650Y024450D01*
X017900Y024200D01*
X018400Y024200D01*
X018650Y024450D01*
X018900Y024200D01*
X019400Y024200D01*
X019650Y024450D01*
X019650Y024950D01*
X019400Y025200D01*
X018900Y025200D01*
X018650Y024950D01*
X018400Y025200D01*
X017900Y025200D01*
X017650Y024950D01*
X017400Y025200D01*
X016900Y025200D01*
X016650Y024950D01*
X016650Y024450D01*
X016900Y024200D01*
X016900Y025200D02*
X017400Y025200D01*
X017650Y025450D01*
X017900Y025200D01*
X018400Y025200D01*
X018650Y025450D01*
X018900Y025200D01*
X019400Y025200D01*
X019650Y025450D01*
X019650Y025950D01*
X019400Y026200D01*
X018900Y026200D01*
X018650Y025950D01*
X018400Y026200D01*
X017900Y026200D01*
X017650Y025950D01*
X017400Y026200D01*
X016900Y026200D01*
X016650Y025950D01*
X016650Y025450D01*
X016900Y025200D01*
X016900Y026200D02*
X017400Y026200D01*
X017650Y026450D01*
X017900Y026200D01*
X018400Y026200D01*
X018650Y026450D01*
X018900Y026200D01*
X019400Y026200D01*
X019650Y026450D01*
X019650Y026950D01*
X019400Y027200D01*
X018900Y027200D01*
X018650Y026950D01*
X018400Y027200D01*
X017900Y027200D01*
X017650Y026950D01*
X017400Y027200D01*
X016900Y027200D01*
X016650Y026950D01*
X016650Y026450D01*
X016900Y026200D01*
X016900Y027200D02*
X016650Y027450D01*
X016650Y027950D01*
X016900Y028200D01*
X017400Y028200D01*
X017650Y027950D01*
X017900Y028200D01*
X018400Y028200D01*
X018650Y027950D01*
X018900Y028200D01*
X019400Y028200D01*
X019650Y027950D01*
X019650Y027450D01*
X019400Y027200D01*
X018900Y027200D01*
X018650Y027450D01*
X018400Y027200D01*
X017900Y027200D01*
X017650Y027450D01*
X017400Y027200D01*
X016900Y027200D01*
X017400Y012700D02*
X017150Y012450D01*
X017150Y011950D01*
X017400Y011700D01*
X017900Y011700D01*
X018150Y011950D01*
X018400Y011700D01*
X018900Y011700D01*
X019150Y011950D01*
X019400Y011700D01*
X019900Y011700D01*
X020150Y011950D01*
X020150Y012450D01*
X019900Y012700D01*
X019400Y012700D01*
X019150Y012450D01*
X018900Y012700D01*
X018400Y012700D01*
X018150Y012450D01*
X017900Y012700D01*
X017400Y012700D01*
X017400Y011700D02*
X017150Y011450D01*
X017150Y010950D01*
X017400Y010700D01*
X017900Y010700D01*
X018150Y010950D01*
X018400Y010700D01*
X018900Y010700D01*
X019150Y010950D01*
X019400Y010700D01*
X019900Y010700D01*
X020150Y010950D01*
X020150Y011450D01*
X019900Y011700D01*
X019400Y011700D01*
X019150Y011450D01*
X018900Y011700D01*
X018400Y011700D01*
X018150Y011450D01*
X017900Y011700D01*
X017400Y011700D01*
X017400Y010700D02*
X017150Y010450D01*
X017150Y009950D01*
X017400Y009700D01*
X017900Y009700D01*
X018150Y009950D01*
X018400Y009700D01*
X018900Y009700D01*
X019150Y009950D01*
X019400Y009700D01*
X019900Y009700D01*
X020150Y009950D01*
X020150Y010450D01*
X019900Y010700D01*
X019400Y010700D01*
X019150Y010450D01*
X018900Y010700D01*
X018400Y010700D01*
X018150Y010450D01*
X017900Y010700D01*
X017400Y010700D01*
X004650Y013450D02*
X004650Y013950D01*
X004400Y014200D01*
X003900Y014200D01*
X003650Y013950D01*
X003400Y014200D01*
X002900Y014200D01*
X002650Y013950D01*
X002400Y014200D01*
X001900Y014200D01*
X001650Y013950D01*
X001650Y013450D01*
X001900Y013200D01*
X002400Y013200D01*
X002650Y013450D01*
X002900Y013200D01*
X003400Y013200D01*
X003650Y013450D01*
X003900Y013200D01*
X004400Y013200D01*
X004650Y013450D01*
X004400Y014200D02*
X003900Y014200D01*
X003650Y014450D01*
X003400Y014200D01*
X002900Y014200D01*
X002650Y014450D01*
X002400Y014200D01*
X001900Y014200D01*
X001650Y014450D01*
X001650Y014950D01*
X001900Y015200D01*
X002400Y015200D01*
X002650Y014950D01*
X002900Y015200D01*
X003400Y015200D01*
X003650Y014950D01*
X003900Y015200D01*
X004400Y015200D01*
X004650Y014950D01*
X004650Y014450D01*
X004400Y014200D01*
X004400Y015200D02*
X003900Y015200D01*
X003650Y015450D01*
X003400Y015200D01*
X002900Y015200D01*
X002650Y015450D01*
X002400Y015200D01*
X001900Y015200D01*
X001650Y015450D01*
X001650Y015950D01*
X001900Y016200D01*
X002400Y016200D01*
X002650Y015950D01*
X002900Y016200D01*
X003400Y016200D01*
X003650Y015950D01*
X003900Y016200D01*
X004400Y016200D01*
X004650Y015950D01*
X004650Y015450D01*
X004400Y015200D01*
X004400Y016200D02*
X003900Y016200D01*
X003650Y016450D01*
X003400Y016200D01*
X002900Y016200D01*
X002650Y016450D01*
X002400Y016200D01*
X001900Y016200D01*
X001650Y016450D01*
X001650Y016950D01*
X001900Y017200D01*
X002400Y017200D01*
X002650Y016950D01*
X002900Y017200D01*
X003400Y017200D01*
X003650Y016950D01*
X003900Y017200D01*
X004400Y017200D01*
X004650Y016950D01*
X004650Y016450D01*
X004400Y016200D01*
X004400Y017200D02*
X003900Y017200D01*
X003650Y017450D01*
X003400Y017200D01*
X002900Y017200D01*
X002650Y017450D01*
X002400Y017200D01*
X001900Y017200D01*
X001650Y017450D01*
X001650Y017950D01*
X001900Y018200D01*
X002400Y018200D01*
X002650Y017950D01*
X002900Y018200D01*
X003400Y018200D01*
X003650Y017950D01*
X003900Y018200D01*
X004400Y018200D01*
X004650Y017950D01*
X004650Y017450D01*
X004400Y017200D01*
X004400Y018200D02*
X003900Y018200D01*
X003650Y018450D01*
X003400Y018200D01*
X002900Y018200D01*
X002650Y018450D01*
X002400Y018200D01*
X001900Y018200D01*
X001650Y018450D01*
X001650Y018950D01*
X001900Y019200D01*
X002400Y019200D01*
X002650Y018950D01*
X002900Y019200D01*
X003400Y019200D01*
X003650Y018950D01*
X003900Y019200D01*
X004400Y019200D01*
X004650Y018950D01*
X004650Y018450D01*
X004400Y018200D01*
X004400Y020200D02*
X003900Y020200D01*
X003650Y020450D01*
X003400Y020200D01*
X002900Y020200D01*
X002650Y020450D01*
X002400Y020200D01*
X001900Y020200D01*
X001650Y020450D01*
X001650Y020950D01*
X001900Y021200D01*
X002400Y021200D01*
X002650Y020950D01*
X002900Y021200D01*
X003400Y021200D01*
X003650Y020950D01*
X003900Y021200D01*
X004400Y021200D01*
X004650Y020950D01*
X004650Y020450D01*
X004400Y020200D01*
X004400Y021200D02*
X003900Y021200D01*
X003650Y021450D01*
X003400Y021200D01*
X002900Y021200D01*
X002650Y021450D01*
X002400Y021200D01*
X001900Y021200D01*
X001650Y021450D01*
X001650Y021950D01*
X001900Y022200D01*
X002400Y022200D01*
X002650Y021950D01*
X002900Y022200D01*
X003400Y022200D01*
X003650Y021950D01*
X003900Y022200D01*
X004400Y022200D01*
X004650Y021950D01*
X004650Y021450D01*
X004400Y021200D01*
X004400Y022200D02*
X003900Y022200D01*
X003650Y022450D01*
X003400Y022200D01*
X002900Y022200D01*
X002650Y022450D01*
X002400Y022200D01*
X001900Y022200D01*
X001650Y022450D01*
X001650Y022950D01*
X001900Y023200D01*
X002400Y023200D01*
X002650Y022950D01*
X002900Y023200D01*
X003400Y023200D01*
X003650Y022950D01*
X003900Y023200D01*
X004400Y023200D01*
X004650Y022950D01*
X004650Y022450D01*
X004400Y022200D01*
X004400Y023200D02*
X003900Y023200D01*
X003650Y023450D01*
X003400Y023200D01*
X002900Y023200D01*
X002650Y023450D01*
X002400Y023200D01*
X001900Y023200D01*
X001650Y023450D01*
X001650Y023950D01*
X001900Y024200D01*
X002400Y024200D01*
X002650Y023950D01*
X002900Y024200D01*
X003400Y024200D01*
X003650Y023950D01*
X003900Y024200D01*
X004400Y024200D01*
X004650Y023950D01*
X004650Y023450D01*
X004400Y023200D01*
X004400Y024200D02*
X003900Y024200D01*
X003650Y024450D01*
X003400Y024200D01*
X002900Y024200D01*
X002650Y024450D01*
X002400Y024200D01*
X001900Y024200D01*
X001650Y024450D01*
X001650Y024950D01*
X001900Y025200D01*
X002400Y025200D01*
X002650Y024950D01*
X002900Y025200D01*
X003400Y025200D01*
X003650Y024950D01*
X003900Y025200D01*
X004400Y025200D01*
X004650Y024950D01*
X004650Y024450D01*
X004400Y024200D01*
X004400Y025200D02*
X003900Y025200D01*
X003650Y025450D01*
X003400Y025200D01*
X002900Y025200D01*
X002650Y025450D01*
X002400Y025200D01*
X001900Y025200D01*
X001650Y025450D01*
X001650Y025950D01*
X001900Y026200D01*
X002400Y026200D01*
X002650Y025950D01*
X002900Y026200D01*
X003400Y026200D01*
X003650Y025950D01*
X003900Y026200D01*
X004400Y026200D01*
X004650Y025950D01*
X004650Y025450D01*
X004400Y025200D01*
X004400Y026200D02*
X003900Y026200D01*
X003650Y026450D01*
X003400Y026200D01*
X002900Y026200D01*
X002650Y026450D01*
X002400Y026200D01*
X001900Y026200D01*
X001650Y026450D01*
X001650Y026950D01*
X001900Y027200D01*
X002400Y027200D01*
X002650Y027450D01*
X002900Y027200D01*
X003400Y027200D01*
X003650Y027450D01*
X003900Y027200D01*
X004400Y027200D01*
X004650Y027450D01*
X004650Y027950D01*
X004400Y028200D01*
X003900Y028200D01*
X003650Y027950D01*
X003400Y028200D01*
X002900Y028200D01*
X002650Y027950D01*
X002400Y028200D01*
X001900Y028200D01*
X001650Y027950D01*
X001650Y027450D01*
X001900Y027200D01*
X002400Y027200D01*
X002650Y026950D01*
X002900Y027200D01*
X003400Y027200D01*
X003650Y026950D01*
X003900Y027200D01*
X004400Y027200D01*
X004650Y026950D01*
X004650Y026450D01*
X004400Y026200D01*
D15*
X017518Y017506D02*
X017497Y017575D01*
X017498Y017574D02*
X017562Y017596D01*
X017625Y017622D01*
X017686Y017651D01*
X017746Y017683D01*
X017803Y017719D01*
X017858Y017758D01*
X017912Y017800D01*
X017962Y017846D01*
X018010Y017894D01*
X018055Y017944D01*
X018097Y017997D01*
X018136Y018053D01*
X018172Y018111D01*
X018204Y018170D01*
X018233Y018232D01*
X018258Y018295D01*
X018280Y018359D01*
X018298Y018424D01*
X018312Y018491D01*
X018322Y018558D01*
X018328Y018625D01*
X018331Y018693D01*
X018330Y018761D01*
X018324Y018828D01*
X018315Y018896D01*
X018302Y018962D01*
X018285Y019028D01*
X018265Y019093D01*
X018241Y019156D01*
X018213Y019218D01*
X018182Y019278D01*
X018147Y019336D01*
X018109Y019392D01*
X018068Y019446D01*
X018024Y019498D01*
X017977Y019547D01*
X017927Y019593D01*
X017874Y019636D01*
X017820Y019676D01*
X017763Y019713D01*
X017704Y019746D01*
X017643Y019776D01*
X017581Y019803D01*
X017517Y019826D01*
X017538Y019894D01*
X017539Y019894D01*
X017604Y019871D01*
X017667Y019844D01*
X017729Y019814D01*
X017789Y019781D01*
X017847Y019744D01*
X017903Y019704D01*
X017957Y019661D01*
X018009Y019615D01*
X018058Y019567D01*
X018104Y019516D01*
X018147Y019462D01*
X018187Y019406D01*
X018224Y019348D01*
X018258Y019288D01*
X018288Y019227D01*
X018315Y019163D01*
X018339Y019099D01*
X018359Y019033D01*
X018375Y018966D01*
X018388Y018898D01*
X018397Y018830D01*
X018402Y018761D01*
X018403Y018692D01*
X018400Y018624D01*
X018394Y018555D01*
X018384Y018487D01*
X018370Y018419D01*
X018353Y018353D01*
X018332Y018287D01*
X018307Y018223D01*
X018279Y018160D01*
X018248Y018099D01*
X018213Y018040D01*
X018175Y017982D01*
X018134Y017927D01*
X018090Y017874D01*
X018043Y017824D01*
X017993Y017776D01*
X017941Y017731D01*
X017886Y017689D01*
X017830Y017650D01*
X017771Y017615D01*
X017710Y017582D01*
X017648Y017553D01*
X017584Y017527D01*
X017519Y017505D01*
X017517Y017512D01*
X017583Y017535D01*
X017648Y017561D01*
X017711Y017590D01*
X017773Y017624D01*
X017832Y017660D01*
X017890Y017700D01*
X017945Y017743D01*
X017997Y017790D01*
X018047Y017839D01*
X018094Y017890D01*
X018139Y017945D01*
X018180Y018001D01*
X018217Y018060D01*
X018252Y018121D01*
X018283Y018184D01*
X018310Y018248D01*
X018334Y018314D01*
X018354Y018381D01*
X018370Y018449D01*
X018382Y018518D01*
X018391Y018588D01*
X018395Y018657D01*
X018396Y018727D01*
X018392Y018797D01*
X018385Y018867D01*
X018374Y018936D01*
X018359Y019004D01*
X018340Y019072D01*
X018318Y019138D01*
X018291Y019203D01*
X018261Y019266D01*
X018228Y019328D01*
X018191Y019387D01*
X018151Y019445D01*
X018108Y019500D01*
X018062Y019552D01*
X018013Y019602D01*
X017961Y019649D01*
X017907Y019693D01*
X017850Y019734D01*
X017791Y019772D01*
X017730Y019806D01*
X017667Y019837D01*
X017603Y019864D01*
X017537Y019887D01*
X017535Y019881D01*
X017600Y019857D01*
X017664Y019830D01*
X017727Y019800D01*
X017787Y019766D01*
X017846Y019728D01*
X017902Y019687D01*
X017956Y019644D01*
X018008Y019597D01*
X018057Y019547D01*
X018103Y019495D01*
X018146Y019440D01*
X018186Y019383D01*
X018222Y019324D01*
X018255Y019263D01*
X018285Y019200D01*
X018311Y019136D01*
X018334Y019070D01*
X018352Y019003D01*
X018367Y018935D01*
X018378Y018866D01*
X018385Y018797D01*
X018389Y018727D01*
X018388Y018658D01*
X018384Y018588D01*
X018375Y018519D01*
X018363Y018451D01*
X018347Y018383D01*
X018327Y018316D01*
X018304Y018251D01*
X018276Y018187D01*
X018246Y018124D01*
X018211Y018064D01*
X018174Y018005D01*
X018133Y017949D01*
X018089Y017895D01*
X018042Y017843D01*
X017993Y017795D01*
X017940Y017749D01*
X017886Y017706D01*
X017828Y017666D01*
X017769Y017630D01*
X017708Y017597D01*
X017645Y017567D01*
X017580Y017541D01*
X017514Y017519D01*
X017512Y017526D01*
X017578Y017548D01*
X017642Y017574D01*
X017705Y017603D01*
X017766Y017636D01*
X017825Y017672D01*
X017881Y017712D01*
X017936Y017754D01*
X017988Y017800D01*
X018037Y017848D01*
X018084Y017899D01*
X018128Y017953D01*
X018168Y018009D01*
X018205Y018067D01*
X018239Y018128D01*
X018270Y018190D01*
X018297Y018253D01*
X018320Y018319D01*
X018340Y018385D01*
X018356Y018452D01*
X018368Y018520D01*
X018377Y018589D01*
X018381Y018658D01*
X018382Y018727D01*
X018378Y018796D01*
X018371Y018865D01*
X018360Y018933D01*
X018345Y019001D01*
X018327Y019068D01*
X018304Y019133D01*
X018279Y019197D01*
X018249Y019260D01*
X018216Y019321D01*
X018180Y019379D01*
X018140Y019436D01*
X018097Y019491D01*
X018052Y019543D01*
X018003Y019592D01*
X017952Y019638D01*
X017898Y019682D01*
X017842Y019722D01*
X017784Y019760D01*
X017723Y019793D01*
X017661Y019824D01*
X017598Y019851D01*
X017532Y019874D01*
X017530Y019868D01*
X017595Y019844D01*
X017658Y019818D01*
X017720Y019787D01*
X017780Y019754D01*
X017838Y019717D01*
X017894Y019676D01*
X017947Y019633D01*
X017998Y019587D01*
X018047Y019538D01*
X018092Y019486D01*
X018134Y019432D01*
X018174Y019376D01*
X018210Y019317D01*
X018243Y019257D01*
X018272Y019194D01*
X018298Y019131D01*
X018320Y019066D01*
X018339Y018999D01*
X018353Y018932D01*
X018364Y018864D01*
X018371Y018796D01*
X018375Y018727D01*
X018374Y018658D01*
X018370Y018590D01*
X018361Y018521D01*
X018349Y018454D01*
X018333Y018387D01*
X018314Y018321D01*
X018291Y018256D01*
X018264Y018193D01*
X018233Y018131D01*
X018199Y018071D01*
X018162Y018013D01*
X018122Y017957D01*
X018079Y017904D01*
X018032Y017853D01*
X017983Y017805D01*
X017931Y017760D01*
X017877Y017717D01*
X017821Y017678D01*
X017762Y017642D01*
X017702Y017609D01*
X017639Y017580D01*
X017576Y017554D01*
X017510Y017532D01*
X017508Y017539D01*
X017573Y017561D01*
X017637Y017586D01*
X017699Y017616D01*
X017759Y017648D01*
X017817Y017684D01*
X017873Y017723D01*
X017927Y017765D01*
X017978Y017810D01*
X018027Y017858D01*
X018073Y017909D01*
X018116Y017962D01*
X018157Y018017D01*
X018193Y018075D01*
X018227Y018134D01*
X018257Y018196D01*
X018284Y018259D01*
X018307Y018323D01*
X018327Y018388D01*
X018342Y018455D01*
X018355Y018522D01*
X018363Y018590D01*
X018367Y018658D01*
X018368Y018727D01*
X018365Y018795D01*
X018357Y018863D01*
X018347Y018931D01*
X018332Y018998D01*
X018313Y019063D01*
X018291Y019128D01*
X018266Y019192D01*
X018237Y019253D01*
X018204Y019314D01*
X018168Y019372D01*
X018129Y019428D01*
X018087Y019482D01*
X018041Y019533D01*
X017993Y019582D01*
X017943Y019628D01*
X017890Y019671D01*
X017834Y019711D01*
X017776Y019748D01*
X017717Y019781D01*
X017655Y019811D01*
X017592Y019838D01*
X017528Y019861D01*
X017526Y019854D01*
X017590Y019831D01*
X017653Y019805D01*
X017714Y019775D01*
X017773Y019742D01*
X017830Y019705D01*
X017885Y019665D01*
X017938Y019622D01*
X017989Y019577D01*
X018036Y019528D01*
X018081Y019477D01*
X018123Y019424D01*
X018162Y019368D01*
X018198Y019310D01*
X018230Y019250D01*
X018259Y019189D01*
X018285Y019126D01*
X018307Y019061D01*
X018325Y018996D01*
X018340Y018929D01*
X018350Y018862D01*
X018358Y018795D01*
X018361Y018727D01*
X018360Y018659D01*
X018356Y018591D01*
X018348Y018523D01*
X018336Y018456D01*
X018320Y018390D01*
X018301Y018325D01*
X018277Y018261D01*
X018251Y018199D01*
X018221Y018138D01*
X018187Y018078D01*
X018151Y018021D01*
X018111Y017966D01*
X018068Y017913D01*
X018022Y017863D01*
X017974Y017815D01*
X017923Y017770D01*
X017869Y017729D01*
X017813Y017690D01*
X017755Y017654D01*
X017695Y017622D01*
X017634Y017593D01*
X017571Y017567D01*
X017506Y017546D01*
X017504Y017552D01*
X017568Y017574D01*
X017631Y017599D01*
X017692Y017628D01*
X017752Y017660D01*
X017809Y017696D01*
X017865Y017734D01*
X017918Y017776D01*
X017969Y017820D01*
X018017Y017868D01*
X018063Y017918D01*
X018105Y017970D01*
X018145Y018025D01*
X018181Y018082D01*
X018215Y018141D01*
X018245Y018201D01*
X018271Y018264D01*
X018294Y018327D01*
X018313Y018392D01*
X018329Y018458D01*
X018341Y018524D01*
X018349Y018592D01*
X018353Y018659D01*
X018354Y018727D01*
X018351Y018794D01*
X018344Y018861D01*
X018333Y018928D01*
X018318Y018994D01*
X018300Y019059D01*
X018278Y019123D01*
X018253Y019186D01*
X018224Y019247D01*
X018192Y019307D01*
X018156Y019364D01*
X018118Y019419D01*
X018076Y019473D01*
X018031Y019523D01*
X017984Y019572D01*
X017934Y019617D01*
X017881Y019660D01*
X017826Y019699D01*
X017769Y019736D01*
X017710Y019769D01*
X017650Y019798D01*
X017587Y019825D01*
X017524Y019848D01*
X017522Y019841D01*
X017586Y019818D01*
X017650Y019791D01*
X017711Y019760D01*
X017771Y019726D01*
X017829Y019689D01*
X017884Y019648D01*
X017937Y019605D01*
X017988Y019558D01*
X018035Y019509D01*
X018080Y019456D01*
X018122Y019402D01*
X018160Y019345D01*
X018196Y019286D01*
X018227Y019225D01*
X018255Y019162D01*
X018280Y019098D01*
X018301Y019032D01*
X018318Y018966D01*
X018331Y018898D01*
X018340Y018830D01*
X018346Y018762D01*
X018347Y018693D01*
X018344Y018624D01*
X018338Y018556D01*
X018327Y018488D01*
X018313Y018421D01*
X018295Y018354D01*
X018273Y018289D01*
X018248Y018225D01*
X018218Y018163D01*
X018186Y018103D01*
X018149Y018044D01*
X018110Y017988D01*
X018067Y017934D01*
X018022Y017883D01*
X017973Y017834D01*
X017922Y017788D01*
X017868Y017745D01*
X017812Y017706D01*
X017754Y017669D01*
X017693Y017636D01*
X017631Y017607D01*
X017567Y017581D01*
X017502Y017559D01*
X017500Y017566D01*
X017565Y017588D01*
X017628Y017613D01*
X017690Y017643D01*
X017750Y017675D01*
X017808Y017711D01*
X017864Y017751D01*
X017917Y017793D01*
X017968Y017839D01*
X018017Y017887D01*
X018062Y017938D01*
X018104Y017992D01*
X018144Y018048D01*
X018179Y018106D01*
X018212Y018166D01*
X018241Y018228D01*
X018267Y018292D01*
X018288Y018356D01*
X018306Y018422D01*
X018321Y018489D01*
X018331Y018557D01*
X018337Y018625D01*
X018340Y018693D01*
X018339Y018761D01*
X018333Y018829D01*
X018324Y018897D01*
X018311Y018964D01*
X018294Y019030D01*
X018273Y019096D01*
X018249Y019159D01*
X018221Y019222D01*
X018189Y019282D01*
X018154Y019341D01*
X018116Y019398D01*
X018075Y019452D01*
X018030Y019504D01*
X017983Y019553D01*
X017933Y019599D01*
X017880Y019643D01*
X017825Y019683D01*
X017767Y019720D01*
X017708Y019754D01*
X017647Y019784D01*
X017584Y019811D01*
X017519Y019834D01*
X017517Y019828D01*
X017581Y019805D01*
X017644Y019778D01*
X017705Y019748D01*
X017764Y019714D01*
X017821Y019677D01*
X017876Y019637D01*
X017928Y019594D01*
X017978Y019548D01*
X018025Y019499D01*
X018069Y019448D01*
X018111Y019394D01*
X018149Y019337D01*
X018183Y019279D01*
X018215Y019219D01*
X018243Y019157D01*
X018267Y019093D01*
X018287Y019028D01*
X018304Y018963D01*
X018317Y018896D01*
X018326Y018829D01*
X018332Y018761D01*
X018333Y018693D01*
X018330Y018625D01*
X018324Y018557D01*
X018314Y018490D01*
X018300Y018424D01*
X018282Y018358D01*
X018260Y018294D01*
X018235Y018231D01*
X018206Y018169D01*
X018173Y018110D01*
X018138Y018052D01*
X018099Y017996D01*
X018057Y017943D01*
X018011Y017892D01*
X017963Y017844D01*
X017913Y017799D01*
X017860Y017757D01*
X017804Y017717D01*
X017747Y017681D01*
X017687Y017649D01*
X017625Y017620D01*
X017563Y017594D01*
X017498Y017572D01*
X016782Y019894D02*
X016803Y019825D01*
X016802Y019826D02*
X016738Y019804D01*
X016675Y019778D01*
X016614Y019749D01*
X016554Y019717D01*
X016497Y019681D01*
X016442Y019642D01*
X016388Y019600D01*
X016338Y019554D01*
X016290Y019506D01*
X016245Y019456D01*
X016203Y019403D01*
X016164Y019347D01*
X016128Y019289D01*
X016096Y019230D01*
X016067Y019168D01*
X016042Y019105D01*
X016020Y019041D01*
X016002Y018976D01*
X015988Y018909D01*
X015978Y018842D01*
X015972Y018775D01*
X015969Y018707D01*
X015970Y018639D01*
X015976Y018572D01*
X015985Y018504D01*
X015998Y018438D01*
X016015Y018372D01*
X016035Y018307D01*
X016059Y018244D01*
X016087Y018182D01*
X016118Y018122D01*
X016153Y018064D01*
X016191Y018008D01*
X016232Y017954D01*
X016276Y017902D01*
X016323Y017853D01*
X016373Y017807D01*
X016426Y017764D01*
X016480Y017724D01*
X016537Y017687D01*
X016596Y017654D01*
X016657Y017624D01*
X016719Y017597D01*
X016783Y017574D01*
X016762Y017506D01*
X016761Y017506D01*
X016696Y017529D01*
X016633Y017556D01*
X016571Y017586D01*
X016511Y017619D01*
X016453Y017656D01*
X016397Y017696D01*
X016343Y017739D01*
X016291Y017785D01*
X016242Y017833D01*
X016196Y017884D01*
X016153Y017938D01*
X016113Y017994D01*
X016076Y018052D01*
X016042Y018112D01*
X016012Y018173D01*
X015985Y018237D01*
X015961Y018301D01*
X015941Y018367D01*
X015925Y018434D01*
X015912Y018502D01*
X015903Y018570D01*
X015898Y018639D01*
X015897Y018708D01*
X015900Y018776D01*
X015906Y018845D01*
X015916Y018913D01*
X015930Y018981D01*
X015947Y019047D01*
X015968Y019113D01*
X015993Y019177D01*
X016021Y019240D01*
X016052Y019301D01*
X016087Y019360D01*
X016125Y019418D01*
X016166Y019473D01*
X016210Y019526D01*
X016257Y019576D01*
X016307Y019624D01*
X016359Y019669D01*
X016414Y019711D01*
X016470Y019750D01*
X016529Y019785D01*
X016590Y019818D01*
X016652Y019847D01*
X016716Y019873D01*
X016781Y019895D01*
X016783Y019888D01*
X016717Y019865D01*
X016652Y019839D01*
X016589Y019810D01*
X016527Y019776D01*
X016468Y019740D01*
X016410Y019700D01*
X016355Y019657D01*
X016303Y019610D01*
X016253Y019561D01*
X016206Y019510D01*
X016161Y019455D01*
X016120Y019399D01*
X016083Y019340D01*
X016048Y019279D01*
X016017Y019216D01*
X015990Y019152D01*
X015966Y019086D01*
X015946Y019019D01*
X015930Y018951D01*
X015918Y018882D01*
X015909Y018812D01*
X015905Y018743D01*
X015904Y018673D01*
X015908Y018603D01*
X015915Y018533D01*
X015926Y018464D01*
X015941Y018396D01*
X015960Y018328D01*
X015982Y018262D01*
X016009Y018197D01*
X016039Y018134D01*
X016072Y018072D01*
X016109Y018013D01*
X016149Y017955D01*
X016192Y017900D01*
X016238Y017848D01*
X016287Y017798D01*
X016339Y017751D01*
X016393Y017707D01*
X016450Y017666D01*
X016509Y017628D01*
X016570Y017594D01*
X016633Y017563D01*
X016697Y017536D01*
X016763Y017513D01*
X016765Y017519D01*
X016700Y017543D01*
X016636Y017570D01*
X016573Y017600D01*
X016513Y017634D01*
X016454Y017672D01*
X016398Y017713D01*
X016344Y017756D01*
X016292Y017803D01*
X016243Y017853D01*
X016197Y017905D01*
X016154Y017960D01*
X016114Y018017D01*
X016078Y018076D01*
X016045Y018137D01*
X016015Y018200D01*
X015989Y018264D01*
X015966Y018330D01*
X015948Y018397D01*
X015933Y018465D01*
X015922Y018534D01*
X015915Y018603D01*
X015911Y018673D01*
X015912Y018742D01*
X015916Y018812D01*
X015925Y018881D01*
X015937Y018949D01*
X015953Y019017D01*
X015973Y019084D01*
X015996Y019149D01*
X016024Y019213D01*
X016054Y019276D01*
X016089Y019336D01*
X016126Y019395D01*
X016167Y019451D01*
X016211Y019505D01*
X016258Y019557D01*
X016307Y019605D01*
X016360Y019651D01*
X016414Y019694D01*
X016472Y019734D01*
X016531Y019770D01*
X016592Y019803D01*
X016655Y019833D01*
X016720Y019859D01*
X016786Y019881D01*
X016788Y019874D01*
X016722Y019852D01*
X016658Y019826D01*
X016595Y019797D01*
X016534Y019764D01*
X016475Y019728D01*
X016419Y019688D01*
X016364Y019646D01*
X016312Y019600D01*
X016263Y019552D01*
X016216Y019501D01*
X016172Y019447D01*
X016132Y019391D01*
X016095Y019333D01*
X016061Y019272D01*
X016030Y019210D01*
X016003Y019147D01*
X015980Y019081D01*
X015960Y019015D01*
X015944Y018948D01*
X015932Y018880D01*
X015923Y018811D01*
X015919Y018742D01*
X015918Y018673D01*
X015922Y018604D01*
X015929Y018535D01*
X015940Y018467D01*
X015955Y018399D01*
X015973Y018332D01*
X015996Y018267D01*
X016021Y018203D01*
X016051Y018140D01*
X016084Y018079D01*
X016120Y018021D01*
X016160Y017964D01*
X016203Y017909D01*
X016248Y017857D01*
X016297Y017808D01*
X016348Y017762D01*
X016402Y017718D01*
X016458Y017678D01*
X016516Y017640D01*
X016577Y017607D01*
X016639Y017576D01*
X016702Y017549D01*
X016768Y017526D01*
X016770Y017532D01*
X016705Y017556D01*
X016642Y017582D01*
X016580Y017613D01*
X016520Y017646D01*
X016462Y017683D01*
X016406Y017724D01*
X016353Y017767D01*
X016302Y017813D01*
X016253Y017862D01*
X016208Y017914D01*
X016166Y017968D01*
X016126Y018024D01*
X016090Y018083D01*
X016057Y018143D01*
X016028Y018206D01*
X016002Y018269D01*
X015980Y018334D01*
X015961Y018401D01*
X015947Y018468D01*
X015936Y018536D01*
X015929Y018604D01*
X015925Y018673D01*
X015926Y018742D01*
X015930Y018810D01*
X015939Y018879D01*
X015951Y018946D01*
X015967Y019013D01*
X015986Y019079D01*
X016009Y019144D01*
X016036Y019207D01*
X016067Y019269D01*
X016101Y019329D01*
X016138Y019387D01*
X016178Y019443D01*
X016221Y019496D01*
X016268Y019547D01*
X016317Y019595D01*
X016369Y019640D01*
X016423Y019683D01*
X016479Y019722D01*
X016538Y019758D01*
X016598Y019791D01*
X016661Y019820D01*
X016724Y019846D01*
X016790Y019868D01*
X016792Y019861D01*
X016727Y019839D01*
X016663Y019814D01*
X016601Y019784D01*
X016541Y019752D01*
X016483Y019716D01*
X016427Y019677D01*
X016373Y019635D01*
X016322Y019590D01*
X016273Y019542D01*
X016227Y019491D01*
X016184Y019438D01*
X016143Y019383D01*
X016107Y019325D01*
X016073Y019266D01*
X016043Y019204D01*
X016016Y019141D01*
X015993Y019077D01*
X015973Y019012D01*
X015958Y018945D01*
X015945Y018878D01*
X015937Y018810D01*
X015933Y018742D01*
X015932Y018673D01*
X015935Y018605D01*
X015943Y018537D01*
X015953Y018469D01*
X015968Y018402D01*
X015987Y018337D01*
X016009Y018272D01*
X016034Y018208D01*
X016063Y018147D01*
X016096Y018086D01*
X016132Y018028D01*
X016171Y017972D01*
X016213Y017918D01*
X016259Y017867D01*
X016307Y017818D01*
X016357Y017772D01*
X016410Y017729D01*
X016466Y017689D01*
X016524Y017652D01*
X016583Y017619D01*
X016645Y017589D01*
X016708Y017562D01*
X016772Y017539D01*
X016774Y017546D01*
X016710Y017569D01*
X016647Y017595D01*
X016586Y017625D01*
X016527Y017658D01*
X016470Y017695D01*
X016415Y017735D01*
X016362Y017778D01*
X016311Y017823D01*
X016264Y017872D01*
X016219Y017923D01*
X016177Y017976D01*
X016138Y018032D01*
X016102Y018090D01*
X016070Y018150D01*
X016041Y018211D01*
X016015Y018274D01*
X015993Y018339D01*
X015975Y018404D01*
X015960Y018471D01*
X015950Y018538D01*
X015942Y018605D01*
X015939Y018673D01*
X015940Y018741D01*
X015944Y018809D01*
X015952Y018877D01*
X015964Y018944D01*
X015980Y019010D01*
X015999Y019075D01*
X016023Y019139D01*
X016049Y019201D01*
X016079Y019262D01*
X016113Y019322D01*
X016149Y019379D01*
X016189Y019434D01*
X016232Y019487D01*
X016278Y019537D01*
X016326Y019585D01*
X016377Y019630D01*
X016431Y019671D01*
X016487Y019710D01*
X016545Y019746D01*
X016605Y019778D01*
X016666Y019807D01*
X016729Y019833D01*
X016794Y019854D01*
X016796Y019848D01*
X016732Y019826D01*
X016669Y019801D01*
X016608Y019772D01*
X016548Y019740D01*
X016491Y019704D01*
X016435Y019666D01*
X016382Y019624D01*
X016331Y019580D01*
X016283Y019532D01*
X016237Y019482D01*
X016195Y019430D01*
X016155Y019375D01*
X016119Y019318D01*
X016085Y019259D01*
X016055Y019199D01*
X016029Y019136D01*
X016006Y019073D01*
X015987Y019008D01*
X015971Y018942D01*
X015959Y018876D01*
X015951Y018808D01*
X015947Y018741D01*
X015946Y018673D01*
X015949Y018606D01*
X015956Y018539D01*
X015967Y018472D01*
X015982Y018406D01*
X016000Y018341D01*
X016022Y018277D01*
X016047Y018214D01*
X016076Y018153D01*
X016108Y018093D01*
X016144Y018036D01*
X016182Y017981D01*
X016224Y017927D01*
X016269Y017877D01*
X016316Y017828D01*
X016366Y017783D01*
X016419Y017740D01*
X016474Y017701D01*
X016531Y017664D01*
X016590Y017631D01*
X016650Y017602D01*
X016713Y017575D01*
X016776Y017552D01*
X016778Y017559D01*
X016714Y017582D01*
X016650Y017609D01*
X016589Y017640D01*
X016529Y017674D01*
X016471Y017711D01*
X016416Y017752D01*
X016363Y017795D01*
X016312Y017842D01*
X016265Y017891D01*
X016220Y017944D01*
X016178Y017998D01*
X016140Y018055D01*
X016104Y018114D01*
X016073Y018175D01*
X016045Y018238D01*
X016020Y018302D01*
X015999Y018368D01*
X015982Y018434D01*
X015969Y018502D01*
X015960Y018570D01*
X015954Y018638D01*
X015953Y018707D01*
X015956Y018776D01*
X015962Y018844D01*
X015973Y018912D01*
X015987Y018979D01*
X016005Y019046D01*
X016027Y019111D01*
X016052Y019175D01*
X016082Y019237D01*
X016114Y019297D01*
X016151Y019356D01*
X016190Y019412D01*
X016233Y019466D01*
X016278Y019517D01*
X016327Y019566D01*
X016378Y019612D01*
X016432Y019655D01*
X016488Y019694D01*
X016546Y019731D01*
X016607Y019764D01*
X016669Y019793D01*
X016733Y019819D01*
X016798Y019841D01*
X016800Y019834D01*
X016735Y019812D01*
X016672Y019787D01*
X016610Y019757D01*
X016550Y019725D01*
X016492Y019689D01*
X016436Y019649D01*
X016383Y019607D01*
X016332Y019561D01*
X016283Y019513D01*
X016238Y019462D01*
X016196Y019408D01*
X016156Y019352D01*
X016121Y019294D01*
X016088Y019234D01*
X016059Y019172D01*
X016033Y019108D01*
X016012Y019044D01*
X015994Y018978D01*
X015979Y018911D01*
X015969Y018843D01*
X015963Y018775D01*
X015960Y018707D01*
X015961Y018639D01*
X015967Y018571D01*
X015976Y018503D01*
X015989Y018436D01*
X016006Y018370D01*
X016027Y018304D01*
X016051Y018241D01*
X016079Y018178D01*
X016111Y018118D01*
X016146Y018059D01*
X016184Y018002D01*
X016225Y017948D01*
X016270Y017896D01*
X016317Y017847D01*
X016367Y017801D01*
X016420Y017757D01*
X016475Y017717D01*
X016533Y017680D01*
X016592Y017646D01*
X016653Y017616D01*
X016716Y017589D01*
X016781Y017566D01*
X016783Y017572D01*
X016719Y017595D01*
X016656Y017622D01*
X016595Y017652D01*
X016536Y017686D01*
X016479Y017723D01*
X016424Y017763D01*
X016372Y017806D01*
X016322Y017852D01*
X016275Y017901D01*
X016231Y017952D01*
X016189Y018006D01*
X016151Y018063D01*
X016117Y018121D01*
X016085Y018181D01*
X016057Y018243D01*
X016033Y018307D01*
X016013Y018372D01*
X015996Y018437D01*
X015983Y018504D01*
X015974Y018571D01*
X015968Y018639D01*
X015967Y018707D01*
X015970Y018775D01*
X015976Y018843D01*
X015986Y018910D01*
X016000Y018976D01*
X016018Y019042D01*
X016040Y019106D01*
X016065Y019169D01*
X016094Y019231D01*
X016127Y019290D01*
X016162Y019348D01*
X016201Y019404D01*
X016243Y019457D01*
X016289Y019508D01*
X016337Y019556D01*
X016387Y019601D01*
X016440Y019643D01*
X016496Y019683D01*
X016553Y019719D01*
X016613Y019751D01*
X016675Y019780D01*
X016737Y019806D01*
X016802Y019828D01*
D16*
X016050Y015700D02*
X015950Y015700D01*
X016050Y015700D02*
X016050Y014700D01*
X015950Y014700D01*
X018250Y014700D02*
X018350Y014700D01*
X018250Y014700D02*
X018250Y015650D01*
X018350Y015650D01*
D17*
X017609Y008636D03*
X017609Y008164D03*
X017609Y007836D03*
X017609Y007364D03*
X017609Y007036D03*
X017609Y006564D03*
X017609Y006236D03*
X017609Y005764D03*
D18*
X017609Y006000D03*
X017609Y006800D03*
X017609Y007600D03*
X017609Y008400D03*
D19*
X016442Y008399D03*
X015862Y008399D03*
X015862Y007599D03*
X016442Y007599D03*
X016442Y006799D03*
X015862Y006799D03*
X015862Y005999D03*
X016442Y005999D03*
M02*
