G75*
%MOIN*%
%OFA0B0*%
%FSLAX24Y24*%
%IPPOS*%
%LPD*%
%AMOC8*
5,1,8,0,0,1.08239X$1,22.5*
%
%ADD10OC8,0.0660*%
%ADD11C,0.0709*%
%ADD12C,0.0705*%
%ADD13C,0.0740*%
%ADD14C,0.0600*%
%ADD15C,0.0100*%
%ADD16C,0.0320*%
%ADD17C,0.0436*%
%ADD18C,0.0120*%
D10*
X001150Y012100D03*
X001150Y013100D03*
X001150Y014100D03*
X001150Y015100D03*
X001150Y016100D03*
X001150Y017100D03*
X001150Y018100D03*
X001150Y019100D03*
X001150Y020700D03*
X001150Y021700D03*
X001150Y022700D03*
X001150Y023700D03*
X001150Y024700D03*
X001150Y025700D03*
X001150Y026700D03*
X001150Y027700D03*
X020150Y027700D03*
X020150Y026700D03*
X020150Y025700D03*
X020150Y024700D03*
X020150Y023700D03*
X020150Y022700D03*
X020150Y020700D03*
X020150Y019700D03*
X020150Y018700D03*
X020150Y017700D03*
X020150Y016700D03*
X020150Y015700D03*
D11*
X014150Y013054D02*
X014150Y012346D01*
X013150Y012346D02*
X013150Y013054D01*
X012150Y013054D02*
X012150Y012346D01*
X011150Y012346D02*
X011150Y013054D01*
X010150Y013054D02*
X010150Y012346D01*
X009150Y012346D02*
X009150Y013054D01*
X008150Y013054D02*
X008150Y012346D01*
X007150Y012346D02*
X007150Y013054D01*
X007650Y011054D02*
X007650Y010346D01*
X008650Y010346D02*
X008650Y011054D01*
X009650Y011054D02*
X009650Y010346D01*
X010650Y010346D02*
X010650Y011054D01*
X011650Y011054D02*
X011650Y010346D01*
X012650Y010346D02*
X012650Y011054D01*
X013650Y011054D02*
X013650Y010346D01*
D12*
X013603Y026348D02*
X013603Y027053D01*
X011634Y027053D02*
X011634Y026348D01*
X009666Y026348D02*
X009666Y027053D01*
X007697Y027053D02*
X007697Y026348D01*
D13*
X004150Y026700D03*
X004150Y025700D03*
X004150Y024700D03*
X004150Y023700D03*
X004150Y022700D03*
X004150Y021700D03*
X004150Y020700D03*
X003150Y020700D03*
X003150Y021700D03*
X003150Y022700D03*
X003150Y023700D03*
X003150Y024700D03*
X003150Y025700D03*
X003150Y026700D03*
X003150Y027700D03*
X002150Y027700D03*
X002150Y026700D03*
X002150Y025700D03*
X002150Y024700D03*
X002150Y023700D03*
X002150Y022700D03*
X002150Y021700D03*
X002150Y020700D03*
X002150Y018700D03*
X002150Y017700D03*
X002150Y016700D03*
X002150Y015700D03*
X002150Y014700D03*
X002150Y013700D03*
X003150Y013700D03*
X003150Y014700D03*
X003150Y015700D03*
X003150Y016700D03*
X003150Y017700D03*
X003150Y018700D03*
X004150Y018700D03*
X004150Y017700D03*
X004150Y016700D03*
X004150Y015700D03*
X004150Y014700D03*
X004150Y013700D03*
X004150Y027700D03*
X017150Y027700D03*
X017150Y026700D03*
X017150Y025700D03*
X017150Y024700D03*
X017150Y023700D03*
X017150Y022700D03*
X018150Y022700D03*
X018150Y023700D03*
X018150Y024700D03*
X018150Y025700D03*
X018150Y026700D03*
X018150Y027700D03*
X019150Y027700D03*
X019150Y026700D03*
X019150Y025700D03*
X019150Y024700D03*
X019150Y023700D03*
X019150Y022700D03*
X018650Y012200D03*
X018650Y011200D03*
X018650Y010200D03*
X019650Y010200D03*
X019650Y011200D03*
X019650Y012200D03*
X017650Y012200D03*
X017650Y011200D03*
X017650Y010200D03*
D14*
X018040Y013920D03*
X016260Y013920D03*
X016260Y016480D03*
X018040Y016480D03*
D15*
X000600Y005400D02*
X000600Y029120D01*
X020692Y029120D01*
X020692Y005400D01*
X019623Y005400D01*
X019860Y005636D01*
X019964Y005740D01*
X020020Y005876D01*
X020020Y009750D01*
X020142Y009871D01*
X020230Y010085D01*
X020230Y010315D01*
X020142Y010529D01*
X019979Y010692D01*
X019959Y010700D01*
X019979Y010708D01*
X020142Y010871D01*
X020230Y011085D01*
X020230Y011315D01*
X020142Y011529D01*
X019979Y011692D01*
X019959Y011700D01*
X019979Y011708D01*
X020142Y011871D01*
X020230Y012085D01*
X020230Y012315D01*
X020142Y012529D01*
X019979Y012692D01*
X019765Y012780D01*
X019535Y012780D01*
X019321Y012692D01*
X019200Y012570D01*
X019100Y012570D01*
X018979Y012692D01*
X018765Y012780D01*
X018535Y012780D01*
X018321Y012692D01*
X018200Y012570D01*
X018100Y012570D01*
X017979Y012692D01*
X017765Y012780D01*
X017593Y012780D01*
X017520Y012853D01*
X017520Y020975D01*
X017578Y021115D01*
X017578Y021249D01*
X018280Y020547D01*
X018280Y018126D01*
X018336Y017990D01*
X018836Y017490D01*
X018940Y017386D01*
X019076Y017330D01*
X019756Y017330D01*
X019886Y017200D01*
X019610Y016924D01*
X019610Y016476D01*
X019886Y016200D01*
X019756Y016070D01*
X018576Y016070D01*
X018440Y016014D01*
X018336Y015910D01*
X018336Y015910D01*
X017726Y015300D01*
X017670Y015164D01*
X017670Y014271D01*
X017608Y014209D01*
X017530Y014021D01*
X017530Y013819D01*
X017608Y013631D01*
X017751Y013488D01*
X017939Y013410D01*
X018141Y013410D01*
X018329Y013488D01*
X018472Y013631D01*
X018550Y013819D01*
X018550Y014021D01*
X018472Y014209D01*
X018410Y014271D01*
X018410Y014937D01*
X018803Y015330D01*
X019756Y015330D01*
X019926Y015160D01*
X020374Y015160D01*
X020690Y015476D01*
X020690Y015924D01*
X020414Y016200D01*
X020690Y016476D01*
X020690Y016924D01*
X020414Y017200D01*
X020690Y017476D01*
X020690Y017924D01*
X020414Y018200D01*
X020690Y018476D01*
X020690Y018924D01*
X020520Y019094D01*
X020520Y019306D01*
X020690Y019476D01*
X020690Y019924D01*
X020414Y020200D01*
X020690Y020476D01*
X020690Y020924D01*
X020374Y021240D01*
X019926Y021240D01*
X019610Y020924D01*
X019610Y020476D01*
X019886Y020200D01*
X019780Y020093D01*
X019520Y020353D01*
X019520Y021274D01*
X019464Y021410D01*
X018572Y022302D01*
X018728Y022302D01*
X018658Y022371D02*
X018821Y022208D01*
X019035Y022120D01*
X019265Y022120D01*
X019479Y022208D01*
X019600Y022330D01*
X019756Y022330D01*
X019926Y022160D01*
X020374Y022160D01*
X020690Y022476D01*
X020690Y022924D01*
X020414Y023200D01*
X020690Y023476D01*
X020690Y023924D01*
X020414Y024200D01*
X020690Y024476D01*
X020690Y024924D01*
X020414Y025200D01*
X020690Y025476D01*
X020690Y025924D01*
X020414Y026200D01*
X020690Y026476D01*
X020690Y026924D01*
X020414Y027200D01*
X020690Y027476D01*
X020690Y027924D01*
X020374Y028240D01*
X019926Y028240D01*
X019756Y028070D01*
X019600Y028070D01*
X019479Y028192D01*
X019265Y028280D01*
X019035Y028280D01*
X018821Y028192D01*
X018658Y028029D01*
X018650Y028009D01*
X018642Y028029D01*
X018479Y028192D01*
X018265Y028280D01*
X018035Y028280D01*
X017821Y028192D01*
X017658Y028029D01*
X017650Y028009D01*
X017642Y028029D01*
X017479Y028192D01*
X017265Y028280D01*
X017035Y028280D01*
X016821Y028192D01*
X016658Y028029D01*
X016570Y027815D01*
X016570Y027585D01*
X016658Y027371D01*
X016780Y027250D01*
X016780Y027150D01*
X016658Y027029D01*
X016570Y026815D01*
X016570Y026585D01*
X016658Y026371D01*
X016780Y026250D01*
X016780Y026150D01*
X016658Y026029D01*
X016570Y025815D01*
X016570Y025585D01*
X016658Y025371D01*
X016780Y025250D01*
X016780Y025150D01*
X016658Y025029D01*
X016570Y024815D01*
X016570Y024585D01*
X016658Y024371D01*
X016780Y024250D01*
X016780Y024150D01*
X016658Y024029D01*
X016570Y023815D01*
X016570Y023585D01*
X016658Y023371D01*
X016780Y023250D01*
X016780Y023150D01*
X016658Y023029D01*
X016570Y022815D01*
X016570Y022585D01*
X016658Y022371D01*
X016780Y022250D01*
X016780Y022126D01*
X016836Y021990D01*
X017199Y021628D01*
X017065Y021628D01*
X016908Y021563D01*
X016787Y021442D01*
X016722Y021285D01*
X016722Y021115D01*
X016780Y020975D01*
X016780Y019570D01*
X012375Y019570D01*
X012235Y019628D01*
X012065Y019628D01*
X011925Y019570D01*
X007375Y019570D01*
X007235Y019628D01*
X007065Y019628D01*
X006908Y019563D01*
X006787Y019442D01*
X006722Y019285D01*
X006722Y019115D01*
X006787Y018958D01*
X006908Y018837D01*
X007065Y018772D01*
X007235Y018772D01*
X007375Y018830D01*
X011925Y018830D01*
X012065Y018772D01*
X012235Y018772D01*
X012375Y018830D01*
X016780Y018830D01*
X016780Y017570D01*
X014875Y017570D01*
X014735Y017628D01*
X014565Y017628D01*
X014425Y017570D01*
X009875Y017570D01*
X009735Y017628D01*
X009565Y017628D01*
X009408Y017563D01*
X009287Y017442D01*
X009222Y017285D01*
X009222Y017115D01*
X009287Y016958D01*
X009408Y016837D01*
X009565Y016772D01*
X009735Y016772D01*
X009875Y016830D01*
X014425Y016830D01*
X014565Y016772D01*
X014735Y016772D01*
X014875Y016830D01*
X015889Y016830D01*
X015828Y016769D01*
X015750Y016581D01*
X015750Y016379D01*
X015828Y016191D01*
X015971Y016048D01*
X016159Y015970D01*
X016361Y015970D01*
X016549Y016048D01*
X016692Y016191D01*
X016770Y016379D01*
X016770Y016581D01*
X016692Y016769D01*
X016631Y016830D01*
X016780Y016830D01*
X016780Y012626D01*
X016836Y012490D01*
X017070Y012257D01*
X017070Y012085D01*
X017158Y011871D01*
X017321Y011708D01*
X017341Y011700D01*
X017321Y011692D01*
X017200Y011570D01*
X016803Y011570D01*
X016630Y011743D01*
X016630Y013569D01*
X016692Y013631D01*
X016770Y013819D01*
X016770Y014021D01*
X016692Y014209D01*
X016549Y014352D01*
X016361Y014430D01*
X016159Y014430D01*
X015971Y014352D01*
X015828Y014209D01*
X015750Y014021D01*
X015750Y013819D01*
X015828Y013631D01*
X015890Y013569D01*
X015890Y013070D01*
X014714Y013070D01*
X014714Y013167D01*
X014628Y013374D01*
X014470Y013533D01*
X014262Y013619D01*
X014038Y013619D01*
X013830Y013533D01*
X013672Y013374D01*
X013650Y013322D01*
X013628Y013374D01*
X013470Y013533D01*
X013262Y013619D01*
X013038Y013619D01*
X012830Y013533D01*
X012672Y013374D01*
X012650Y013322D01*
X012628Y013374D01*
X012470Y013533D01*
X012262Y013619D01*
X012038Y013619D01*
X011830Y013533D01*
X011672Y013374D01*
X011650Y013322D01*
X011628Y013374D01*
X011470Y013533D01*
X011262Y013619D01*
X011038Y013619D01*
X010830Y013533D01*
X010672Y013374D01*
X010650Y013322D01*
X010628Y013374D01*
X010520Y013482D01*
X010520Y014274D01*
X010464Y014410D01*
X010360Y014514D01*
X009964Y014910D01*
X009860Y015014D01*
X009724Y015070D01*
X005826Y015070D01*
X005690Y015014D01*
X005190Y014514D01*
X005086Y014410D01*
X005030Y014274D01*
X005030Y013103D01*
X004747Y012820D01*
X003803Y012820D01*
X003520Y013103D01*
X003520Y013250D01*
X003642Y013371D01*
X003650Y013391D01*
X003658Y013371D01*
X003821Y013208D01*
X004035Y013120D01*
X004265Y013120D01*
X004479Y013208D01*
X004642Y013371D01*
X004730Y013585D01*
X004730Y013815D01*
X004642Y014029D01*
X004520Y014150D01*
X004520Y014250D01*
X004642Y014371D01*
X004730Y014585D01*
X004730Y014815D01*
X004642Y015029D01*
X004520Y015150D01*
X004520Y015250D01*
X004642Y015371D01*
X004730Y015585D01*
X004730Y015815D01*
X004642Y016029D01*
X004520Y016150D01*
X004520Y016250D01*
X004642Y016371D01*
X004730Y016585D01*
X004730Y016815D01*
X004642Y017029D01*
X004520Y017150D01*
X004520Y017250D01*
X004642Y017371D01*
X004730Y017585D01*
X004730Y017815D01*
X004642Y018029D01*
X004520Y018150D01*
X004520Y018250D01*
X004642Y018371D01*
X004730Y018585D01*
X004730Y018815D01*
X004642Y019029D01*
X004520Y019150D01*
X004520Y020250D01*
X004642Y020371D01*
X004730Y020585D01*
X004730Y020815D01*
X004642Y021029D01*
X004520Y021150D01*
X004520Y021250D01*
X004642Y021371D01*
X004730Y021585D01*
X004730Y021815D01*
X004642Y022029D01*
X004520Y022150D01*
X004520Y022250D01*
X004642Y022371D01*
X004730Y022585D01*
X004730Y022815D01*
X004642Y023029D01*
X004520Y023150D01*
X004520Y023250D01*
X004642Y023371D01*
X004730Y023585D01*
X004730Y023815D01*
X004642Y024029D01*
X004520Y024150D01*
X004520Y024250D01*
X004642Y024371D01*
X004730Y024585D01*
X004730Y024815D01*
X004642Y025029D01*
X004520Y025150D01*
X004520Y025250D01*
X004642Y025371D01*
X004730Y025585D01*
X004730Y025815D01*
X004642Y026029D01*
X004520Y026150D01*
X004520Y026250D01*
X004642Y026371D01*
X004730Y026585D01*
X004730Y026815D01*
X004642Y027029D01*
X004520Y027150D01*
X004520Y027250D01*
X004642Y027371D01*
X004730Y027585D01*
X004730Y027815D01*
X004642Y028029D01*
X004479Y028192D01*
X004265Y028280D01*
X004035Y028280D01*
X003821Y028192D01*
X003658Y028029D01*
X003650Y028009D01*
X003642Y028029D01*
X003479Y028192D01*
X003265Y028280D01*
X003035Y028280D01*
X002821Y028192D01*
X002658Y028029D01*
X002650Y028009D01*
X002642Y028029D01*
X002479Y028192D01*
X002265Y028280D01*
X002035Y028280D01*
X001821Y028192D01*
X001700Y028070D01*
X001544Y028070D01*
X001374Y028240D01*
X000926Y028240D01*
X000610Y027924D01*
X000610Y027476D01*
X000886Y027200D01*
X000610Y026924D01*
X000610Y026476D01*
X000886Y026200D01*
X000610Y025924D01*
X000610Y025476D01*
X000886Y025200D01*
X000610Y024924D01*
X000610Y024476D01*
X000886Y024200D01*
X000610Y023924D01*
X000610Y023476D01*
X000886Y023200D01*
X000610Y022924D01*
X000610Y022476D01*
X000886Y022200D01*
X000610Y021924D01*
X000610Y021476D01*
X000886Y021200D01*
X000610Y020924D01*
X000610Y020476D01*
X000926Y020160D01*
X001374Y020160D01*
X001544Y020330D01*
X001700Y020330D01*
X001821Y020208D01*
X002035Y020120D01*
X002265Y020120D01*
X002479Y020208D01*
X002642Y020371D01*
X002650Y020391D01*
X002658Y020371D01*
X002780Y020250D01*
X002780Y019150D01*
X002658Y019029D01*
X002650Y019009D01*
X002642Y019029D01*
X002479Y019192D01*
X002265Y019280D01*
X002093Y019280D01*
X001960Y019414D01*
X001824Y019470D01*
X001544Y019470D01*
X001374Y019640D01*
X000926Y019640D01*
X000610Y019324D01*
X000610Y018876D01*
X000886Y018600D01*
X000610Y018324D01*
X000610Y017876D01*
X000886Y017600D01*
X000610Y017324D01*
X000610Y016876D01*
X000886Y016600D01*
X000610Y016324D01*
X000610Y015876D01*
X000886Y015600D01*
X000610Y015324D01*
X000610Y014876D01*
X000886Y014600D01*
X000610Y014324D01*
X000610Y013876D01*
X000926Y013560D01*
X000931Y013560D01*
X000670Y013299D01*
X000670Y013148D01*
X001102Y013148D01*
X001102Y013052D01*
X000670Y013052D01*
X000670Y012901D01*
X000931Y012640D01*
X000926Y012640D01*
X000610Y012324D01*
X000610Y011876D01*
X000926Y011560D01*
X001374Y011560D01*
X001690Y011876D01*
X001690Y012324D01*
X001374Y012640D01*
X001369Y012640D01*
X001630Y012901D01*
X001630Y013052D01*
X001198Y013052D01*
X001198Y013148D01*
X001630Y013148D01*
X001630Y013299D01*
X001369Y013560D01*
X001374Y013560D01*
X001544Y013730D01*
X001570Y013730D01*
X001570Y013585D01*
X001658Y013371D01*
X001821Y013208D01*
X002035Y013120D01*
X002265Y013120D01*
X002479Y013208D01*
X002642Y013371D01*
X002650Y013391D01*
X002658Y013371D01*
X002780Y013250D01*
X002780Y012876D01*
X002836Y012740D01*
X003336Y012240D01*
X003440Y012136D01*
X003576Y012080D01*
X004030Y012080D01*
X004030Y005876D01*
X004086Y005740D01*
X004190Y005636D01*
X004190Y005636D01*
X004427Y005400D01*
X000600Y005400D01*
X000600Y005458D02*
X004369Y005458D01*
X004270Y005557D02*
X000600Y005557D01*
X000600Y005655D02*
X004172Y005655D01*
X004081Y005754D02*
X000600Y005754D01*
X000600Y005852D02*
X004040Y005852D01*
X004030Y005951D02*
X000600Y005951D01*
X000600Y006049D02*
X004030Y006049D01*
X004030Y006148D02*
X000600Y006148D01*
X000600Y006246D02*
X004030Y006246D01*
X004030Y006345D02*
X000600Y006345D01*
X000600Y006443D02*
X004030Y006443D01*
X004030Y006542D02*
X000600Y006542D01*
X000600Y006640D02*
X004030Y006640D01*
X004030Y006739D02*
X000600Y006739D01*
X000600Y006837D02*
X004030Y006837D01*
X004030Y006936D02*
X000600Y006936D01*
X000600Y007034D02*
X004030Y007034D01*
X004030Y007133D02*
X000600Y007133D01*
X000600Y007231D02*
X004030Y007231D01*
X004030Y007330D02*
X000600Y007330D01*
X000600Y007428D02*
X004030Y007428D01*
X004030Y007527D02*
X000600Y007527D01*
X000600Y007625D02*
X004030Y007625D01*
X004030Y007724D02*
X000600Y007724D01*
X000600Y007822D02*
X004030Y007822D01*
X004030Y007921D02*
X000600Y007921D01*
X000600Y008019D02*
X004030Y008019D01*
X004030Y008118D02*
X000600Y008118D01*
X000600Y008216D02*
X004030Y008216D01*
X004030Y008315D02*
X000600Y008315D01*
X000600Y008413D02*
X004030Y008413D01*
X004030Y008512D02*
X000600Y008512D01*
X000600Y008610D02*
X004030Y008610D01*
X004030Y008709D02*
X000600Y008709D01*
X000600Y008807D02*
X004030Y008807D01*
X004030Y008906D02*
X000600Y008906D01*
X000600Y009004D02*
X004030Y009004D01*
X004030Y009103D02*
X000600Y009103D01*
X000600Y009201D02*
X004030Y009201D01*
X004030Y009300D02*
X000600Y009300D01*
X000600Y009398D02*
X004030Y009398D01*
X004030Y009497D02*
X000600Y009497D01*
X000600Y009595D02*
X004030Y009595D01*
X004030Y009694D02*
X000600Y009694D01*
X000600Y009792D02*
X004030Y009792D01*
X004030Y009891D02*
X000600Y009891D01*
X000600Y009989D02*
X004030Y009989D01*
X004030Y010088D02*
X000600Y010088D01*
X000600Y010186D02*
X004030Y010186D01*
X004030Y010285D02*
X000600Y010285D01*
X000600Y010383D02*
X004030Y010383D01*
X004030Y010482D02*
X000600Y010482D01*
X000600Y010580D02*
X004030Y010580D01*
X004030Y010679D02*
X000600Y010679D01*
X000600Y010777D02*
X004030Y010777D01*
X004030Y010876D02*
X000600Y010876D01*
X000600Y010974D02*
X004030Y010974D01*
X004030Y011073D02*
X000600Y011073D01*
X000600Y011171D02*
X004030Y011171D01*
X004030Y011270D02*
X000600Y011270D01*
X000600Y011368D02*
X004030Y011368D01*
X004030Y011467D02*
X000600Y011467D01*
X000600Y011565D02*
X000921Y011565D01*
X000823Y011664D02*
X000600Y011664D01*
X000600Y011762D02*
X000724Y011762D01*
X000626Y011861D02*
X000600Y011861D01*
X000600Y011959D02*
X000610Y011959D01*
X000600Y012058D02*
X000610Y012058D01*
X000600Y012156D02*
X000610Y012156D01*
X000600Y012255D02*
X000610Y012255D01*
X000600Y012353D02*
X000639Y012353D01*
X000600Y012452D02*
X000738Y012452D01*
X000836Y012550D02*
X000600Y012550D01*
X000600Y012649D02*
X000923Y012649D01*
X000824Y012747D02*
X000600Y012747D01*
X000600Y012846D02*
X000726Y012846D01*
X000670Y012944D02*
X000600Y012944D01*
X000600Y013043D02*
X000670Y013043D01*
X000600Y013141D02*
X001102Y013141D01*
X001198Y013141D02*
X001984Y013141D01*
X001790Y013240D02*
X001630Y013240D01*
X001591Y013338D02*
X001692Y013338D01*
X001631Y013437D02*
X001492Y013437D01*
X001394Y013535D02*
X001591Y013535D01*
X001570Y013634D02*
X001447Y013634D01*
X000906Y013535D02*
X000600Y013535D01*
X000600Y013437D02*
X000808Y013437D01*
X000709Y013338D02*
X000600Y013338D01*
X000600Y013240D02*
X000670Y013240D01*
X000600Y013634D02*
X000853Y013634D01*
X000754Y013732D02*
X000600Y013732D01*
X000600Y013831D02*
X000656Y013831D01*
X000610Y013929D02*
X000600Y013929D01*
X000600Y014028D02*
X000610Y014028D01*
X000600Y014126D02*
X000610Y014126D01*
X000600Y014225D02*
X000610Y014225D01*
X000600Y014323D02*
X000610Y014323D01*
X000600Y014422D02*
X000708Y014422D01*
X000806Y014520D02*
X000600Y014520D01*
X000600Y014619D02*
X000868Y014619D01*
X000769Y014717D02*
X000600Y014717D01*
X000600Y014816D02*
X000671Y014816D01*
X000610Y014914D02*
X000600Y014914D01*
X000600Y015013D02*
X000610Y015013D01*
X000600Y015111D02*
X000610Y015111D01*
X000600Y015210D02*
X000610Y015210D01*
X000600Y015308D02*
X000610Y015308D01*
X000600Y015407D02*
X000693Y015407D01*
X000600Y015505D02*
X000791Y015505D01*
X000883Y015604D02*
X000600Y015604D01*
X000600Y015702D02*
X000784Y015702D01*
X000686Y015801D02*
X000600Y015801D01*
X000600Y015899D02*
X000610Y015899D01*
X000600Y015998D02*
X000610Y015998D01*
X000600Y016096D02*
X000610Y016096D01*
X000600Y016195D02*
X000610Y016195D01*
X000600Y016293D02*
X000610Y016293D01*
X000600Y016392D02*
X000678Y016392D01*
X000600Y016490D02*
X000776Y016490D01*
X000875Y016589D02*
X000600Y016589D01*
X000600Y016687D02*
X000799Y016687D01*
X000701Y016786D02*
X000600Y016786D01*
X000600Y016884D02*
X000610Y016884D01*
X000600Y016983D02*
X000610Y016983D01*
X000600Y017081D02*
X000610Y017081D01*
X000600Y017180D02*
X000610Y017180D01*
X000600Y017278D02*
X000610Y017278D01*
X000600Y017377D02*
X000663Y017377D01*
X000600Y017475D02*
X000761Y017475D01*
X000860Y017574D02*
X000600Y017574D01*
X000600Y017672D02*
X000814Y017672D01*
X000716Y017771D02*
X000600Y017771D01*
X000600Y017869D02*
X000617Y017869D01*
X000610Y017968D02*
X000600Y017968D01*
X000600Y018066D02*
X000610Y018066D01*
X000600Y018165D02*
X000610Y018165D01*
X000600Y018263D02*
X000610Y018263D01*
X000600Y018362D02*
X000648Y018362D01*
X000600Y018460D02*
X000746Y018460D01*
X000845Y018559D02*
X000600Y018559D01*
X000600Y018657D02*
X000829Y018657D01*
X000731Y018756D02*
X000600Y018756D01*
X000600Y018854D02*
X000632Y018854D01*
X000610Y018953D02*
X000600Y018953D01*
X000600Y019051D02*
X000610Y019051D01*
X000600Y019150D02*
X000610Y019150D01*
X000600Y019248D02*
X000610Y019248D01*
X000600Y019347D02*
X000633Y019347D01*
X000600Y019445D02*
X000731Y019445D01*
X000830Y019544D02*
X000600Y019544D01*
X000600Y019642D02*
X002780Y019642D01*
X002780Y019544D02*
X001470Y019544D01*
X001884Y019445D02*
X002780Y019445D01*
X002780Y019347D02*
X002027Y019347D01*
X002343Y019248D02*
X002780Y019248D01*
X002779Y019150D02*
X002521Y019150D01*
X002619Y019051D02*
X002681Y019051D01*
X002780Y019741D02*
X000600Y019741D01*
X000600Y019839D02*
X002780Y019839D01*
X002780Y019938D02*
X000600Y019938D01*
X000600Y020036D02*
X002780Y020036D01*
X002780Y020135D02*
X002300Y020135D01*
X002503Y020233D02*
X002780Y020233D01*
X002698Y020332D02*
X002602Y020332D01*
X002000Y020135D02*
X000600Y020135D01*
X000600Y020233D02*
X000853Y020233D01*
X000755Y020332D02*
X000600Y020332D01*
X000600Y020430D02*
X000656Y020430D01*
X000610Y020529D02*
X000600Y020529D01*
X000600Y020627D02*
X000610Y020627D01*
X000600Y020726D02*
X000610Y020726D01*
X000600Y020824D02*
X000610Y020824D01*
X000600Y020923D02*
X000610Y020923D01*
X000600Y021021D02*
X000707Y021021D01*
X000806Y021120D02*
X000600Y021120D01*
X000600Y021218D02*
X000868Y021218D01*
X000770Y021317D02*
X000600Y021317D01*
X000600Y021415D02*
X000671Y021415D01*
X000610Y021514D02*
X000600Y021514D01*
X000600Y021612D02*
X000610Y021612D01*
X000600Y021711D02*
X000610Y021711D01*
X000600Y021809D02*
X000610Y021809D01*
X000600Y021908D02*
X000610Y021908D01*
X000600Y022006D02*
X000692Y022006D01*
X000600Y022105D02*
X000791Y022105D01*
X000883Y022203D02*
X000600Y022203D01*
X000600Y022302D02*
X000785Y022302D01*
X000686Y022400D02*
X000600Y022400D01*
X000600Y022499D02*
X000610Y022499D01*
X000600Y022597D02*
X000610Y022597D01*
X000600Y022696D02*
X000610Y022696D01*
X000600Y022794D02*
X000610Y022794D01*
X000600Y022893D02*
X000610Y022893D01*
X000600Y022991D02*
X000677Y022991D01*
X000600Y023090D02*
X000776Y023090D01*
X000874Y023188D02*
X000600Y023188D01*
X000600Y023287D02*
X000800Y023287D01*
X000701Y023385D02*
X000600Y023385D01*
X000600Y023484D02*
X000610Y023484D01*
X000600Y023582D02*
X000610Y023582D01*
X000600Y023681D02*
X000610Y023681D01*
X000600Y023779D02*
X000610Y023779D01*
X000600Y023878D02*
X000610Y023878D01*
X000600Y023976D02*
X000662Y023976D01*
X000600Y024075D02*
X000761Y024075D01*
X000859Y024173D02*
X000600Y024173D01*
X000600Y024272D02*
X000815Y024272D01*
X000716Y024370D02*
X000600Y024370D01*
X000600Y024469D02*
X000618Y024469D01*
X000610Y024567D02*
X000600Y024567D01*
X000600Y024666D02*
X000610Y024666D01*
X000600Y024764D02*
X000610Y024764D01*
X000600Y024863D02*
X000610Y024863D01*
X000600Y024961D02*
X000647Y024961D01*
X000600Y025060D02*
X000746Y025060D01*
X000844Y025158D02*
X000600Y025158D01*
X000600Y025257D02*
X000830Y025257D01*
X000731Y025355D02*
X000600Y025355D01*
X000600Y025454D02*
X000633Y025454D01*
X000610Y025552D02*
X000600Y025552D01*
X000600Y025651D02*
X000610Y025651D01*
X000600Y025749D02*
X000610Y025749D01*
X000600Y025848D02*
X000610Y025848D01*
X000600Y025946D02*
X000632Y025946D01*
X000600Y026045D02*
X000731Y026045D01*
X000829Y026143D02*
X000600Y026143D01*
X000600Y026242D02*
X000845Y026242D01*
X000746Y026340D02*
X000600Y026340D01*
X000600Y026439D02*
X000648Y026439D01*
X000610Y026537D02*
X000600Y026537D01*
X000600Y026636D02*
X000610Y026636D01*
X000600Y026734D02*
X000610Y026734D01*
X000600Y026833D02*
X000610Y026833D01*
X000600Y026931D02*
X000617Y026931D01*
X000600Y027030D02*
X000716Y027030D01*
X000814Y027128D02*
X000600Y027128D01*
X000600Y027227D02*
X000860Y027227D01*
X000761Y027325D02*
X000600Y027325D01*
X000600Y027424D02*
X000663Y027424D01*
X000610Y027522D02*
X000600Y027522D01*
X000600Y027621D02*
X000610Y027621D01*
X000600Y027719D02*
X000610Y027719D01*
X000600Y027818D02*
X000610Y027818D01*
X000600Y027916D02*
X000610Y027916D01*
X000600Y028015D02*
X000701Y028015D01*
X000799Y028113D02*
X000600Y028113D01*
X000600Y028212D02*
X000898Y028212D01*
X000600Y028310D02*
X020692Y028310D01*
X020692Y028212D02*
X020402Y028212D01*
X020501Y028113D02*
X020692Y028113D01*
X020692Y028015D02*
X020599Y028015D01*
X020690Y027916D02*
X020692Y027916D01*
X020690Y027818D02*
X020692Y027818D01*
X020690Y027719D02*
X020692Y027719D01*
X020690Y027621D02*
X020692Y027621D01*
X020690Y027522D02*
X020692Y027522D01*
X020692Y027424D02*
X020637Y027424D01*
X020692Y027325D02*
X020539Y027325D01*
X020440Y027227D02*
X020692Y027227D01*
X020692Y027128D02*
X020486Y027128D01*
X020584Y027030D02*
X020692Y027030D01*
X020683Y026931D02*
X020692Y026931D01*
X020690Y026833D02*
X020692Y026833D01*
X020690Y026734D02*
X020692Y026734D01*
X020690Y026636D02*
X020692Y026636D01*
X020690Y026537D02*
X020692Y026537D01*
X020692Y026439D02*
X020652Y026439D01*
X020692Y026340D02*
X020554Y026340D01*
X020455Y026242D02*
X020692Y026242D01*
X020692Y026143D02*
X020471Y026143D01*
X020569Y026045D02*
X020692Y026045D01*
X020692Y025946D02*
X020668Y025946D01*
X020690Y025848D02*
X020692Y025848D01*
X020690Y025749D02*
X020692Y025749D01*
X020690Y025651D02*
X020692Y025651D01*
X020690Y025552D02*
X020692Y025552D01*
X020692Y025454D02*
X020667Y025454D01*
X020692Y025355D02*
X020569Y025355D01*
X020470Y025257D02*
X020692Y025257D01*
X020692Y025158D02*
X020456Y025158D01*
X020554Y025060D02*
X020692Y025060D01*
X020692Y024961D02*
X020653Y024961D01*
X020690Y024863D02*
X020692Y024863D01*
X020690Y024764D02*
X020692Y024764D01*
X020690Y024666D02*
X020692Y024666D01*
X020690Y024567D02*
X020692Y024567D01*
X020682Y024469D02*
X020692Y024469D01*
X020692Y024370D02*
X020584Y024370D01*
X020485Y024272D02*
X020692Y024272D01*
X020692Y024173D02*
X020441Y024173D01*
X020539Y024075D02*
X020692Y024075D01*
X020692Y023976D02*
X020638Y023976D01*
X020690Y023878D02*
X020692Y023878D01*
X020690Y023779D02*
X020692Y023779D01*
X020690Y023681D02*
X020692Y023681D01*
X020690Y023582D02*
X020692Y023582D01*
X020690Y023484D02*
X020692Y023484D01*
X020692Y023385D02*
X020599Y023385D01*
X020692Y023287D02*
X020500Y023287D01*
X020426Y023188D02*
X020692Y023188D01*
X020692Y023090D02*
X020524Y023090D01*
X020623Y022991D02*
X020692Y022991D01*
X020690Y022893D02*
X020692Y022893D01*
X020690Y022794D02*
X020692Y022794D01*
X020690Y022696D02*
X020692Y022696D01*
X020690Y022597D02*
X020692Y022597D01*
X020690Y022499D02*
X020692Y022499D01*
X020692Y022400D02*
X020614Y022400D01*
X020692Y022302D02*
X020515Y022302D01*
X020417Y022203D02*
X020692Y022203D01*
X020692Y022105D02*
X018769Y022105D01*
X018834Y022203D02*
X018670Y022203D01*
X018572Y022302D02*
X018642Y022371D01*
X018650Y022391D01*
X018658Y022371D01*
X018867Y022006D02*
X020692Y022006D01*
X020692Y021908D02*
X018966Y021908D01*
X019064Y021809D02*
X020692Y021809D01*
X020692Y021711D02*
X019163Y021711D01*
X019261Y021612D02*
X020692Y021612D01*
X020692Y021514D02*
X019360Y021514D01*
X019458Y021415D02*
X020692Y021415D01*
X020692Y021317D02*
X019502Y021317D01*
X019520Y021218D02*
X019904Y021218D01*
X019806Y021120D02*
X019520Y021120D01*
X019520Y021021D02*
X019707Y021021D01*
X019610Y020923D02*
X019520Y020923D01*
X019520Y020824D02*
X019610Y020824D01*
X019610Y020726D02*
X019520Y020726D01*
X019520Y020627D02*
X019610Y020627D01*
X019610Y020529D02*
X019520Y020529D01*
X019520Y020430D02*
X019656Y020430D01*
X019755Y020332D02*
X019542Y020332D01*
X019640Y020233D02*
X019853Y020233D01*
X019821Y020135D02*
X019739Y020135D01*
X020447Y020233D02*
X020692Y020233D01*
X020692Y020135D02*
X020479Y020135D01*
X020578Y020036D02*
X020692Y020036D01*
X020692Y019938D02*
X020676Y019938D01*
X020690Y019839D02*
X020692Y019839D01*
X020690Y019741D02*
X020692Y019741D01*
X020690Y019642D02*
X020692Y019642D01*
X020690Y019544D02*
X020692Y019544D01*
X020692Y019445D02*
X020659Y019445D01*
X020692Y019347D02*
X020560Y019347D01*
X020520Y019248D02*
X020692Y019248D01*
X020692Y019150D02*
X020520Y019150D01*
X020563Y019051D02*
X020692Y019051D01*
X020692Y018953D02*
X020661Y018953D01*
X020690Y018854D02*
X020692Y018854D01*
X020690Y018756D02*
X020692Y018756D01*
X020690Y018657D02*
X020692Y018657D01*
X020690Y018559D02*
X020692Y018559D01*
X020692Y018460D02*
X020674Y018460D01*
X020692Y018362D02*
X020575Y018362D01*
X020477Y018263D02*
X020692Y018263D01*
X020692Y018165D02*
X020449Y018165D01*
X020548Y018066D02*
X020692Y018066D01*
X020692Y017968D02*
X020646Y017968D01*
X020690Y017869D02*
X020692Y017869D01*
X020690Y017771D02*
X020692Y017771D01*
X020690Y017672D02*
X020692Y017672D01*
X020690Y017574D02*
X020692Y017574D01*
X020689Y017475D02*
X020692Y017475D01*
X020692Y017377D02*
X020590Y017377D01*
X020492Y017278D02*
X020692Y017278D01*
X020692Y017180D02*
X020434Y017180D01*
X020533Y017081D02*
X020692Y017081D01*
X020692Y016983D02*
X020631Y016983D01*
X020690Y016884D02*
X020692Y016884D01*
X020690Y016786D02*
X020692Y016786D01*
X020690Y016687D02*
X020692Y016687D01*
X020690Y016589D02*
X020692Y016589D01*
X020690Y016490D02*
X020692Y016490D01*
X020692Y016392D02*
X020605Y016392D01*
X020692Y016293D02*
X020507Y016293D01*
X020419Y016195D02*
X020692Y016195D01*
X020692Y016096D02*
X020518Y016096D01*
X020616Y015998D02*
X020692Y015998D01*
X020690Y015899D02*
X020692Y015899D01*
X020690Y015801D02*
X020692Y015801D01*
X020690Y015702D02*
X020692Y015702D01*
X020690Y015604D02*
X020692Y015604D01*
X020690Y015505D02*
X020692Y015505D01*
X020692Y015407D02*
X020620Y015407D01*
X020692Y015308D02*
X020522Y015308D01*
X020423Y015210D02*
X020692Y015210D01*
X020692Y015111D02*
X018584Y015111D01*
X018486Y015013D02*
X020692Y015013D01*
X020692Y014914D02*
X018410Y014914D01*
X018410Y014816D02*
X020692Y014816D01*
X020692Y014717D02*
X018410Y014717D01*
X018410Y014619D02*
X020692Y014619D01*
X020692Y014520D02*
X018410Y014520D01*
X018410Y014422D02*
X020692Y014422D01*
X020692Y014323D02*
X018410Y014323D01*
X018457Y014225D02*
X020692Y014225D01*
X020692Y014126D02*
X018507Y014126D01*
X018547Y014028D02*
X020692Y014028D01*
X020692Y013929D02*
X018550Y013929D01*
X018550Y013831D02*
X020692Y013831D01*
X020692Y013732D02*
X018514Y013732D01*
X018473Y013634D02*
X020692Y013634D01*
X020692Y013535D02*
X018376Y013535D01*
X018205Y013437D02*
X020692Y013437D01*
X020692Y013338D02*
X017520Y013338D01*
X017520Y013240D02*
X020692Y013240D01*
X020692Y013141D02*
X017520Y013141D01*
X017520Y013043D02*
X020692Y013043D01*
X020692Y012944D02*
X017520Y012944D01*
X017528Y012846D02*
X020692Y012846D01*
X020692Y012747D02*
X019845Y012747D01*
X020022Y012649D02*
X020692Y012649D01*
X020692Y012550D02*
X020120Y012550D01*
X020174Y012452D02*
X020692Y012452D01*
X020692Y012353D02*
X020214Y012353D01*
X020230Y012255D02*
X020692Y012255D01*
X020692Y012156D02*
X020230Y012156D01*
X020219Y012058D02*
X020692Y012058D01*
X020692Y011959D02*
X020178Y011959D01*
X020131Y011861D02*
X020692Y011861D01*
X020692Y011762D02*
X020032Y011762D01*
X020007Y011664D02*
X020692Y011664D01*
X020692Y011565D02*
X020105Y011565D01*
X020167Y011467D02*
X020692Y011467D01*
X020692Y011368D02*
X020208Y011368D01*
X020230Y011270D02*
X020692Y011270D01*
X020692Y011171D02*
X020230Y011171D01*
X020225Y011073D02*
X020692Y011073D01*
X020692Y010974D02*
X020184Y010974D01*
X020143Y010876D02*
X020692Y010876D01*
X020692Y010777D02*
X020047Y010777D01*
X019992Y010679D02*
X020692Y010679D01*
X020692Y010580D02*
X020090Y010580D01*
X020161Y010482D02*
X020692Y010482D01*
X020692Y010383D02*
X020202Y010383D01*
X020230Y010285D02*
X020692Y010285D01*
X020692Y010186D02*
X020230Y010186D01*
X020230Y010088D02*
X020692Y010088D01*
X020692Y009989D02*
X020190Y009989D01*
X020150Y009891D02*
X020692Y009891D01*
X020692Y009792D02*
X020062Y009792D01*
X020020Y009694D02*
X020692Y009694D01*
X020692Y009595D02*
X020020Y009595D01*
X020020Y009497D02*
X020692Y009497D01*
X020692Y009398D02*
X020020Y009398D01*
X020020Y009300D02*
X020692Y009300D01*
X020692Y009201D02*
X020020Y009201D01*
X020020Y009103D02*
X020692Y009103D01*
X020692Y009004D02*
X020020Y009004D01*
X020020Y008906D02*
X020692Y008906D01*
X020692Y008807D02*
X020020Y008807D01*
X020020Y008709D02*
X020692Y008709D01*
X020692Y008610D02*
X020020Y008610D01*
X020020Y008512D02*
X020692Y008512D01*
X020692Y008413D02*
X020020Y008413D01*
X020020Y008315D02*
X020692Y008315D01*
X020692Y008216D02*
X020020Y008216D01*
X020020Y008118D02*
X020692Y008118D01*
X020692Y008019D02*
X020020Y008019D01*
X020020Y007921D02*
X020692Y007921D01*
X020692Y007822D02*
X020020Y007822D01*
X020020Y007724D02*
X020692Y007724D01*
X020692Y007625D02*
X020020Y007625D01*
X020020Y007527D02*
X020692Y007527D01*
X020692Y007428D02*
X020020Y007428D01*
X020020Y007330D02*
X020692Y007330D01*
X020692Y007231D02*
X020020Y007231D01*
X020020Y007133D02*
X020692Y007133D01*
X020692Y007034D02*
X020020Y007034D01*
X020020Y006936D02*
X020692Y006936D01*
X020692Y006837D02*
X020020Y006837D01*
X020020Y006739D02*
X020692Y006739D01*
X020692Y006640D02*
X020020Y006640D01*
X020020Y006542D02*
X020692Y006542D01*
X020692Y006443D02*
X020020Y006443D01*
X020020Y006345D02*
X020692Y006345D01*
X020692Y006246D02*
X020020Y006246D01*
X020020Y006148D02*
X020692Y006148D01*
X020692Y006049D02*
X020020Y006049D01*
X020020Y005951D02*
X020692Y005951D01*
X020692Y005852D02*
X020010Y005852D01*
X019969Y005754D02*
X020692Y005754D01*
X020692Y005655D02*
X019878Y005655D01*
X019780Y005557D02*
X020692Y005557D01*
X020692Y005458D02*
X019681Y005458D01*
X017293Y011664D02*
X016710Y011664D01*
X016630Y011762D02*
X017268Y011762D01*
X017169Y011861D02*
X016630Y011861D01*
X016630Y011959D02*
X017122Y011959D01*
X017081Y012058D02*
X016630Y012058D01*
X016630Y012156D02*
X017070Y012156D01*
X017070Y012255D02*
X016630Y012255D01*
X016630Y012353D02*
X016974Y012353D01*
X016875Y012452D02*
X016630Y012452D01*
X016630Y012550D02*
X016812Y012550D01*
X016780Y012649D02*
X016630Y012649D01*
X016630Y012747D02*
X016780Y012747D01*
X016780Y012846D02*
X016630Y012846D01*
X016630Y012944D02*
X016780Y012944D01*
X016780Y013043D02*
X016630Y013043D01*
X016630Y013141D02*
X016780Y013141D01*
X016780Y013240D02*
X016630Y013240D01*
X016630Y013338D02*
X016780Y013338D01*
X016780Y013437D02*
X016630Y013437D01*
X016630Y013535D02*
X016780Y013535D01*
X016780Y013634D02*
X016693Y013634D01*
X016734Y013732D02*
X016780Y013732D01*
X016770Y013831D02*
X016780Y013831D01*
X016770Y013929D02*
X016780Y013929D01*
X016767Y014028D02*
X016780Y014028D01*
X016780Y014126D02*
X016727Y014126D01*
X016677Y014225D02*
X016780Y014225D01*
X016780Y014323D02*
X016578Y014323D01*
X016382Y014422D02*
X016780Y014422D01*
X016780Y014520D02*
X010353Y014520D01*
X010360Y014514D02*
X010360Y014514D01*
X010452Y014422D02*
X016138Y014422D01*
X015942Y014323D02*
X010500Y014323D01*
X010520Y014225D02*
X015843Y014225D01*
X015793Y014126D02*
X010520Y014126D01*
X010520Y014028D02*
X015753Y014028D01*
X015750Y013929D02*
X010520Y013929D01*
X010520Y013831D02*
X015750Y013831D01*
X015786Y013732D02*
X010520Y013732D01*
X010520Y013634D02*
X015827Y013634D01*
X015890Y013535D02*
X014464Y013535D01*
X014566Y013437D02*
X015890Y013437D01*
X015890Y013338D02*
X014643Y013338D01*
X014684Y013240D02*
X015890Y013240D01*
X015890Y013141D02*
X014714Y013141D01*
X013836Y013535D02*
X013464Y013535D01*
X013566Y013437D02*
X013734Y013437D01*
X013657Y013338D02*
X013643Y013338D01*
X012836Y013535D02*
X012464Y013535D01*
X012566Y013437D02*
X012734Y013437D01*
X012657Y013338D02*
X012643Y013338D01*
X011836Y013535D02*
X011464Y013535D01*
X011566Y013437D02*
X011734Y013437D01*
X011657Y013338D02*
X011643Y013338D01*
X010836Y013535D02*
X010520Y013535D01*
X010566Y013437D02*
X010734Y013437D01*
X010657Y013338D02*
X010643Y013338D01*
X010255Y014619D02*
X016780Y014619D01*
X016780Y014717D02*
X010156Y014717D01*
X010058Y014816D02*
X016780Y014816D01*
X016780Y014914D02*
X009959Y014914D01*
X009964Y014910D02*
X009964Y014910D01*
X009861Y015013D02*
X016780Y015013D01*
X016780Y015111D02*
X004559Y015111D01*
X004520Y015210D02*
X016780Y015210D01*
X016780Y015308D02*
X004578Y015308D01*
X004656Y015407D02*
X016780Y015407D01*
X016780Y015505D02*
X004697Y015505D01*
X004730Y015604D02*
X016780Y015604D01*
X016780Y015702D02*
X004730Y015702D01*
X004730Y015801D02*
X016780Y015801D01*
X016780Y015899D02*
X004695Y015899D01*
X004655Y015998D02*
X016092Y015998D01*
X015923Y016096D02*
X004574Y016096D01*
X004520Y016195D02*
X015826Y016195D01*
X015785Y016293D02*
X004563Y016293D01*
X004650Y016392D02*
X015750Y016392D01*
X015750Y016490D02*
X004691Y016490D01*
X004730Y016589D02*
X015753Y016589D01*
X015794Y016687D02*
X004730Y016687D01*
X004730Y016786D02*
X009533Y016786D01*
X009361Y016884D02*
X004702Y016884D01*
X004661Y016983D02*
X009277Y016983D01*
X009236Y017081D02*
X004589Y017081D01*
X004520Y017180D02*
X009222Y017180D01*
X009222Y017278D02*
X004548Y017278D01*
X004644Y017377D02*
X009260Y017377D01*
X009320Y017475D02*
X004685Y017475D01*
X004725Y017574D02*
X009434Y017574D01*
X009866Y017574D02*
X014434Y017574D01*
X014866Y017574D02*
X016780Y017574D01*
X016780Y017672D02*
X004730Y017672D01*
X004730Y017771D02*
X016780Y017771D01*
X016780Y017869D02*
X004708Y017869D01*
X004667Y017968D02*
X016780Y017968D01*
X016780Y018066D02*
X004604Y018066D01*
X004520Y018165D02*
X016780Y018165D01*
X016780Y018263D02*
X004533Y018263D01*
X004632Y018362D02*
X016780Y018362D01*
X016780Y018460D02*
X004678Y018460D01*
X004719Y018559D02*
X016780Y018559D01*
X016780Y018657D02*
X004730Y018657D01*
X004730Y018756D02*
X016780Y018756D01*
X017520Y018756D02*
X018280Y018756D01*
X018280Y018854D02*
X017520Y018854D01*
X017520Y018953D02*
X018280Y018953D01*
X018280Y019051D02*
X017520Y019051D01*
X017520Y019150D02*
X018280Y019150D01*
X018280Y019248D02*
X017520Y019248D01*
X017520Y019347D02*
X018280Y019347D01*
X018280Y019445D02*
X017520Y019445D01*
X017520Y019544D02*
X018280Y019544D01*
X018280Y019642D02*
X017520Y019642D01*
X017520Y019741D02*
X018280Y019741D01*
X018280Y019839D02*
X017520Y019839D01*
X017520Y019938D02*
X018280Y019938D01*
X018280Y020036D02*
X017520Y020036D01*
X017520Y020135D02*
X018280Y020135D01*
X018280Y020233D02*
X017520Y020233D01*
X017520Y020332D02*
X018280Y020332D01*
X018280Y020430D02*
X017520Y020430D01*
X017520Y020529D02*
X018280Y020529D01*
X018200Y020627D02*
X017520Y020627D01*
X017520Y020726D02*
X018101Y020726D01*
X018003Y020824D02*
X017520Y020824D01*
X017520Y020923D02*
X017904Y020923D01*
X017806Y021021D02*
X017539Y021021D01*
X017578Y021120D02*
X017707Y021120D01*
X017609Y021218D02*
X017578Y021218D01*
X017116Y021711D02*
X016520Y021711D01*
X016520Y021626D02*
X016520Y021975D01*
X016578Y022115D01*
X016578Y022285D01*
X016520Y022425D01*
X016520Y022774D01*
X016464Y022910D01*
X016360Y023014D01*
X015860Y023514D01*
X015724Y023570D01*
X012375Y023570D01*
X012235Y023628D01*
X012065Y023628D01*
X011925Y023570D01*
X007375Y023570D01*
X007235Y023628D01*
X007065Y023628D01*
X006908Y023563D01*
X006787Y023442D01*
X006722Y023285D01*
X006722Y023115D01*
X006787Y022958D01*
X006908Y022837D01*
X007065Y022772D01*
X007235Y022772D01*
X007375Y022830D01*
X011925Y022830D01*
X012065Y022772D01*
X012235Y022772D01*
X012375Y022830D01*
X015497Y022830D01*
X015780Y022547D01*
X015780Y022425D01*
X015722Y022285D01*
X015722Y022115D01*
X015780Y021975D01*
X015780Y021853D01*
X015497Y021570D01*
X014875Y021570D01*
X014735Y021628D01*
X014565Y021628D01*
X014425Y021570D01*
X009875Y021570D01*
X009735Y021628D01*
X009565Y021628D01*
X009408Y021563D01*
X009287Y021442D01*
X009222Y021285D01*
X009222Y021115D01*
X009287Y020958D01*
X009408Y020837D01*
X009565Y020772D01*
X009735Y020772D01*
X009875Y020830D01*
X014425Y020830D01*
X014565Y020772D01*
X014735Y020772D01*
X014875Y020830D01*
X015724Y020830D01*
X015860Y020886D01*
X016360Y021386D01*
X016464Y021490D01*
X016520Y021626D01*
X016514Y021612D02*
X017027Y021612D01*
X016859Y021514D02*
X016473Y021514D01*
X016388Y021415D02*
X016776Y021415D01*
X016735Y021317D02*
X016290Y021317D01*
X016191Y021218D02*
X016722Y021218D01*
X016722Y021120D02*
X016093Y021120D01*
X015994Y021021D02*
X016761Y021021D01*
X016780Y020923D02*
X015896Y020923D01*
X015539Y021612D02*
X014773Y021612D01*
X014527Y021612D02*
X009773Y021612D01*
X009527Y021612D02*
X004730Y021612D01*
X004730Y021711D02*
X015637Y021711D01*
X015736Y021809D02*
X004730Y021809D01*
X004692Y021908D02*
X015780Y021908D01*
X015767Y022006D02*
X004651Y022006D01*
X004566Y022105D02*
X015726Y022105D01*
X015722Y022203D02*
X004520Y022203D01*
X004572Y022302D02*
X015729Y022302D01*
X015770Y022400D02*
X004654Y022400D01*
X004694Y022499D02*
X015780Y022499D01*
X015730Y022597D02*
X004730Y022597D01*
X004730Y022696D02*
X015631Y022696D01*
X015533Y022794D02*
X012288Y022794D01*
X012012Y022794D02*
X007288Y022794D01*
X007012Y022794D02*
X004730Y022794D01*
X004698Y022893D02*
X006852Y022893D01*
X006774Y022991D02*
X004657Y022991D01*
X004581Y023090D02*
X006733Y023090D01*
X006722Y023188D02*
X004520Y023188D01*
X004557Y023287D02*
X006723Y023287D01*
X006764Y023385D02*
X004647Y023385D01*
X004688Y023484D02*
X006829Y023484D01*
X006954Y023582D02*
X004729Y023582D01*
X004730Y023681D02*
X016570Y023681D01*
X016570Y023779D02*
X004730Y023779D01*
X004704Y023878D02*
X016596Y023878D01*
X016637Y023976D02*
X004663Y023976D01*
X004596Y024075D02*
X016704Y024075D01*
X016780Y024173D02*
X004520Y024173D01*
X004542Y024272D02*
X016758Y024272D01*
X016660Y024370D02*
X004640Y024370D01*
X004682Y024469D02*
X016618Y024469D01*
X016577Y024567D02*
X004723Y024567D01*
X004730Y024666D02*
X016570Y024666D01*
X016570Y024764D02*
X004730Y024764D01*
X004710Y024863D02*
X016590Y024863D01*
X016630Y024961D02*
X004670Y024961D01*
X004611Y025060D02*
X016689Y025060D01*
X016780Y025158D02*
X004520Y025158D01*
X004527Y025257D02*
X016773Y025257D01*
X016675Y025355D02*
X004625Y025355D01*
X004676Y025454D02*
X016624Y025454D01*
X016583Y025552D02*
X004717Y025552D01*
X004730Y025651D02*
X016570Y025651D01*
X016570Y025749D02*
X004730Y025749D01*
X004717Y025848D02*
X007434Y025848D01*
X007379Y025871D02*
X007585Y025785D01*
X007809Y025785D01*
X008016Y025871D01*
X008174Y026029D01*
X008260Y026236D01*
X008260Y027164D01*
X008174Y027371D01*
X008016Y027529D01*
X007809Y027615D01*
X007585Y027615D01*
X007379Y027529D01*
X007220Y027371D01*
X007135Y027164D01*
X007135Y026236D01*
X007220Y026029D01*
X007379Y025871D01*
X007303Y025946D02*
X004676Y025946D01*
X004626Y026045D02*
X007214Y026045D01*
X007173Y026143D02*
X004527Y026143D01*
X004520Y026242D02*
X007135Y026242D01*
X007135Y026340D02*
X004610Y026340D01*
X004669Y026439D02*
X007135Y026439D01*
X007135Y026537D02*
X004710Y026537D01*
X004730Y026636D02*
X007135Y026636D01*
X007135Y026734D02*
X004730Y026734D01*
X004723Y026833D02*
X007135Y026833D01*
X007135Y026931D02*
X004682Y026931D01*
X004641Y027030D02*
X007135Y027030D01*
X007135Y027128D02*
X004542Y027128D01*
X004520Y027227D02*
X007160Y027227D01*
X007201Y027325D02*
X004595Y027325D01*
X004663Y027424D02*
X007273Y027424D01*
X007371Y027522D02*
X004704Y027522D01*
X004730Y027621D02*
X016570Y027621D01*
X016570Y027719D02*
X004730Y027719D01*
X004729Y027818D02*
X016571Y027818D01*
X016612Y027916D02*
X004688Y027916D01*
X004647Y028015D02*
X016653Y028015D01*
X016743Y028113D02*
X004557Y028113D01*
X004431Y028212D02*
X016869Y028212D01*
X016596Y027522D02*
X013929Y027522D01*
X013921Y027529D02*
X013715Y027615D01*
X013491Y027615D01*
X013284Y027529D01*
X013126Y027371D01*
X013040Y027164D01*
X013040Y026236D01*
X013126Y026029D01*
X013284Y025871D01*
X013491Y025785D01*
X013715Y025785D01*
X013921Y025871D01*
X014080Y026029D01*
X014165Y026236D01*
X014165Y027164D01*
X014080Y027371D01*
X013921Y027529D01*
X014027Y027424D02*
X016637Y027424D01*
X016705Y027325D02*
X014099Y027325D01*
X014140Y027227D02*
X016780Y027227D01*
X016758Y027128D02*
X014165Y027128D01*
X014165Y027030D02*
X016659Y027030D01*
X016618Y026931D02*
X014165Y026931D01*
X014165Y026833D02*
X016577Y026833D01*
X016570Y026734D02*
X014165Y026734D01*
X014165Y026636D02*
X016570Y026636D01*
X016590Y026537D02*
X014165Y026537D01*
X014165Y026439D02*
X016631Y026439D01*
X016690Y026340D02*
X014165Y026340D01*
X014165Y026242D02*
X016780Y026242D01*
X016773Y026143D02*
X014127Y026143D01*
X014086Y026045D02*
X016674Y026045D01*
X016624Y025946D02*
X013997Y025946D01*
X013866Y025848D02*
X016583Y025848D01*
X017647Y028015D02*
X017653Y028015D01*
X017743Y028113D02*
X017557Y028113D01*
X017431Y028212D02*
X017869Y028212D01*
X018431Y028212D02*
X018869Y028212D01*
X018743Y028113D02*
X018557Y028113D01*
X018647Y028015D02*
X018653Y028015D01*
X019431Y028212D02*
X019898Y028212D01*
X019799Y028113D02*
X019557Y028113D01*
X020692Y028409D02*
X000600Y028409D01*
X000600Y028507D02*
X020692Y028507D01*
X020692Y028606D02*
X000600Y028606D01*
X000600Y028704D02*
X020692Y028704D01*
X020692Y028803D02*
X000600Y028803D01*
X000600Y028901D02*
X020692Y028901D01*
X020692Y029000D02*
X000600Y029000D01*
X000600Y029098D02*
X020692Y029098D01*
X016571Y023582D02*
X012346Y023582D01*
X011954Y023582D02*
X007346Y023582D01*
X007960Y025848D02*
X009403Y025848D01*
X009347Y025871D02*
X009554Y025785D01*
X009778Y025785D01*
X009984Y025871D01*
X010143Y026029D01*
X010228Y026236D01*
X010228Y027164D01*
X010143Y027371D01*
X009984Y027529D01*
X009778Y027615D01*
X009554Y027615D01*
X009347Y027529D01*
X009189Y027371D01*
X009103Y027164D01*
X009103Y026236D01*
X009189Y026029D01*
X009347Y025871D01*
X009272Y025946D02*
X008091Y025946D01*
X008181Y026045D02*
X009182Y026045D01*
X009142Y026143D02*
X008221Y026143D01*
X008260Y026242D02*
X009103Y026242D01*
X009103Y026340D02*
X008260Y026340D01*
X008260Y026439D02*
X009103Y026439D01*
X009103Y026537D02*
X008260Y026537D01*
X008260Y026636D02*
X009103Y026636D01*
X009103Y026734D02*
X008260Y026734D01*
X008260Y026833D02*
X009103Y026833D01*
X009103Y026931D02*
X008260Y026931D01*
X008260Y027030D02*
X009103Y027030D01*
X009103Y027128D02*
X008260Y027128D01*
X008234Y027227D02*
X009129Y027227D01*
X009170Y027325D02*
X008193Y027325D01*
X008122Y027424D02*
X009241Y027424D01*
X009340Y027522D02*
X008023Y027522D01*
X009929Y025848D02*
X011371Y025848D01*
X011316Y025871D02*
X011522Y025785D01*
X011746Y025785D01*
X011953Y025871D01*
X012111Y026029D01*
X012197Y026236D01*
X012197Y027164D01*
X012111Y027371D01*
X011953Y027529D01*
X011746Y027615D01*
X011522Y027615D01*
X011316Y027529D01*
X011157Y027371D01*
X011072Y027164D01*
X011072Y026236D01*
X011157Y026029D01*
X011316Y025871D01*
X011240Y025946D02*
X010060Y025946D01*
X010149Y026045D02*
X011151Y026045D01*
X011110Y026143D02*
X010190Y026143D01*
X010228Y026242D02*
X011072Y026242D01*
X011072Y026340D02*
X010228Y026340D01*
X010228Y026439D02*
X011072Y026439D01*
X011072Y026537D02*
X010228Y026537D01*
X010228Y026636D02*
X011072Y026636D01*
X011072Y026734D02*
X010228Y026734D01*
X010228Y026833D02*
X011072Y026833D01*
X011072Y026931D02*
X010228Y026931D01*
X010228Y027030D02*
X011072Y027030D01*
X011072Y027128D02*
X010228Y027128D01*
X010202Y027227D02*
X011098Y027227D01*
X011138Y027325D02*
X010162Y027325D01*
X010090Y027424D02*
X011210Y027424D01*
X011308Y027522D02*
X009992Y027522D01*
X011897Y025848D02*
X013340Y025848D01*
X013209Y025946D02*
X012028Y025946D01*
X012118Y026045D02*
X013119Y026045D01*
X013079Y026143D02*
X012158Y026143D01*
X012197Y026242D02*
X013040Y026242D01*
X013040Y026340D02*
X012197Y026340D01*
X012197Y026439D02*
X013040Y026439D01*
X013040Y026537D02*
X012197Y026537D01*
X012197Y026636D02*
X013040Y026636D01*
X013040Y026734D02*
X012197Y026734D01*
X012197Y026833D02*
X013040Y026833D01*
X013040Y026931D02*
X012197Y026931D01*
X012197Y027030D02*
X013040Y027030D01*
X013040Y027128D02*
X012197Y027128D01*
X012171Y027227D02*
X013066Y027227D01*
X013107Y027325D02*
X012130Y027325D01*
X012059Y027424D02*
X013178Y027424D01*
X013277Y027522D02*
X011960Y027522D01*
X015890Y023484D02*
X016612Y023484D01*
X016653Y023385D02*
X015988Y023385D01*
X016087Y023287D02*
X016743Y023287D01*
X016780Y023188D02*
X016185Y023188D01*
X016284Y023090D02*
X016719Y023090D01*
X016643Y022991D02*
X016382Y022991D01*
X016471Y022893D02*
X016602Y022893D01*
X016570Y022794D02*
X016512Y022794D01*
X016520Y022696D02*
X016570Y022696D01*
X016570Y022597D02*
X016520Y022597D01*
X016520Y022499D02*
X016606Y022499D01*
X016646Y022400D02*
X016530Y022400D01*
X016571Y022302D02*
X016728Y022302D01*
X016780Y022203D02*
X016578Y022203D01*
X016574Y022105D02*
X016789Y022105D01*
X016830Y022006D02*
X016533Y022006D01*
X016520Y021908D02*
X016919Y021908D01*
X017018Y021809D02*
X016520Y021809D01*
X016780Y020824D02*
X014860Y020824D01*
X014440Y020824D02*
X009860Y020824D01*
X009440Y020824D02*
X004726Y020824D01*
X004730Y020726D02*
X016780Y020726D01*
X016780Y020627D02*
X004730Y020627D01*
X004707Y020529D02*
X016780Y020529D01*
X016780Y020430D02*
X004666Y020430D01*
X004602Y020332D02*
X016780Y020332D01*
X016780Y020233D02*
X004520Y020233D01*
X004520Y020135D02*
X016780Y020135D01*
X016780Y020036D02*
X004520Y020036D01*
X004520Y019938D02*
X016780Y019938D01*
X016780Y019839D02*
X004520Y019839D01*
X004520Y019741D02*
X016780Y019741D01*
X016780Y019642D02*
X004520Y019642D01*
X004520Y019544D02*
X006889Y019544D01*
X006790Y019445D02*
X004520Y019445D01*
X004520Y019347D02*
X006748Y019347D01*
X006722Y019248D02*
X004520Y019248D01*
X004521Y019150D02*
X006722Y019150D01*
X006749Y019051D02*
X004619Y019051D01*
X004673Y018953D02*
X006792Y018953D01*
X006891Y018854D02*
X004714Y018854D01*
X004686Y020923D02*
X009322Y020923D01*
X009261Y021021D02*
X004645Y021021D01*
X004551Y021120D02*
X009222Y021120D01*
X009222Y021218D02*
X004520Y021218D01*
X004587Y021317D02*
X009235Y021317D01*
X009276Y021415D02*
X004660Y021415D01*
X004701Y021514D02*
X009359Y021514D01*
X009767Y016786D02*
X014533Y016786D01*
X014767Y016786D02*
X015844Y016786D01*
X016428Y015998D02*
X016780Y015998D01*
X016780Y016096D02*
X016597Y016096D01*
X016694Y016195D02*
X016780Y016195D01*
X016780Y016293D02*
X016735Y016293D01*
X016770Y016392D02*
X016780Y016392D01*
X016770Y016490D02*
X016780Y016490D01*
X016767Y016589D02*
X016780Y016589D01*
X016780Y016687D02*
X016726Y016687D01*
X016676Y016786D02*
X016780Y016786D01*
X017520Y016786D02*
X017624Y016786D01*
X017608Y016769D02*
X017530Y016581D01*
X017530Y016379D01*
X017608Y016191D01*
X017751Y016048D01*
X017939Y015970D01*
X018141Y015970D01*
X018329Y016048D01*
X018472Y016191D01*
X018550Y016379D01*
X018550Y016581D01*
X018472Y016769D01*
X018329Y016912D01*
X018141Y016990D01*
X017939Y016990D01*
X017751Y016912D01*
X017608Y016769D01*
X017574Y016687D02*
X017520Y016687D01*
X017520Y016589D02*
X017533Y016589D01*
X017520Y016490D02*
X017530Y016490D01*
X017520Y016392D02*
X017530Y016392D01*
X017520Y016293D02*
X017565Y016293D01*
X017606Y016195D02*
X017520Y016195D01*
X017520Y016096D02*
X017703Y016096D01*
X017872Y015998D02*
X017520Y015998D01*
X017520Y015899D02*
X018326Y015899D01*
X018424Y015998D02*
X018208Y015998D01*
X018377Y016096D02*
X019782Y016096D01*
X019881Y016195D02*
X018474Y016195D01*
X018515Y016293D02*
X019793Y016293D01*
X019695Y016392D02*
X018550Y016392D01*
X018550Y016490D02*
X019610Y016490D01*
X019610Y016589D02*
X018547Y016589D01*
X018506Y016687D02*
X019610Y016687D01*
X019610Y016786D02*
X018456Y016786D01*
X018357Y016884D02*
X019610Y016884D01*
X019669Y016983D02*
X018159Y016983D01*
X017921Y016983D02*
X017520Y016983D01*
X017520Y017081D02*
X019767Y017081D01*
X019866Y017180D02*
X017520Y017180D01*
X017520Y017278D02*
X019808Y017278D01*
X018964Y017377D02*
X017520Y017377D01*
X017520Y017475D02*
X018852Y017475D01*
X018753Y017574D02*
X017520Y017574D01*
X017520Y017672D02*
X018655Y017672D01*
X018556Y017771D02*
X017520Y017771D01*
X017520Y017869D02*
X018458Y017869D01*
X018359Y017968D02*
X017520Y017968D01*
X017520Y018066D02*
X018305Y018066D01*
X018280Y018165D02*
X017520Y018165D01*
X017520Y018263D02*
X018280Y018263D01*
X018280Y018362D02*
X017520Y018362D01*
X017520Y018460D02*
X018280Y018460D01*
X018280Y018559D02*
X017520Y018559D01*
X017520Y018657D02*
X018280Y018657D01*
X017723Y016884D02*
X017520Y016884D01*
X017520Y015801D02*
X018227Y015801D01*
X018129Y015702D02*
X017520Y015702D01*
X017520Y015604D02*
X018030Y015604D01*
X017932Y015505D02*
X017520Y015505D01*
X017520Y015407D02*
X017833Y015407D01*
X017735Y015308D02*
X017520Y015308D01*
X017520Y015210D02*
X017689Y015210D01*
X017670Y015111D02*
X017520Y015111D01*
X017520Y015013D02*
X017670Y015013D01*
X017670Y014914D02*
X017520Y014914D01*
X017520Y014816D02*
X017670Y014816D01*
X017670Y014717D02*
X017520Y014717D01*
X017520Y014619D02*
X017670Y014619D01*
X017670Y014520D02*
X017520Y014520D01*
X017520Y014422D02*
X017670Y014422D01*
X017670Y014323D02*
X017520Y014323D01*
X017520Y014225D02*
X017623Y014225D01*
X017573Y014126D02*
X017520Y014126D01*
X017520Y014028D02*
X017533Y014028D01*
X017520Y013929D02*
X017530Y013929D01*
X017520Y013831D02*
X017530Y013831D01*
X017520Y013732D02*
X017566Y013732D01*
X017607Y013634D02*
X017520Y013634D01*
X017520Y013535D02*
X017704Y013535D01*
X017875Y013437D02*
X017520Y013437D01*
X017845Y012747D02*
X018455Y012747D01*
X018278Y012649D02*
X018022Y012649D01*
X018845Y012747D02*
X019455Y012747D01*
X019278Y012649D02*
X019022Y012649D01*
X018683Y015210D02*
X019877Y015210D01*
X019778Y015308D02*
X018781Y015308D01*
X020545Y020332D02*
X020692Y020332D01*
X020692Y020430D02*
X020644Y020430D01*
X020690Y020529D02*
X020692Y020529D01*
X020690Y020627D02*
X020692Y020627D01*
X020690Y020726D02*
X020692Y020726D01*
X020690Y020824D02*
X020692Y020824D01*
X020690Y020923D02*
X020692Y020923D01*
X020692Y021021D02*
X020593Y021021D01*
X020494Y021120D02*
X020692Y021120D01*
X020692Y021218D02*
X020396Y021218D01*
X019883Y022203D02*
X019466Y022203D01*
X019572Y022302D02*
X019785Y022302D01*
X005689Y015013D02*
X004648Y015013D01*
X004689Y014914D02*
X005591Y014914D01*
X005492Y014816D02*
X004730Y014816D01*
X004730Y014717D02*
X005394Y014717D01*
X005295Y014619D02*
X004730Y014619D01*
X004703Y014520D02*
X005197Y014520D01*
X005098Y014422D02*
X004662Y014422D01*
X004593Y014323D02*
X005050Y014323D01*
X005030Y014225D02*
X004520Y014225D01*
X004544Y014126D02*
X005030Y014126D01*
X005030Y014028D02*
X004642Y014028D01*
X004683Y013929D02*
X005030Y013929D01*
X005030Y013831D02*
X004724Y013831D01*
X004730Y013732D02*
X005030Y013732D01*
X005030Y013634D02*
X004730Y013634D01*
X004709Y013535D02*
X005030Y013535D01*
X005030Y013437D02*
X004669Y013437D01*
X004608Y013338D02*
X005030Y013338D01*
X005030Y013240D02*
X004510Y013240D01*
X004316Y013141D02*
X005030Y013141D01*
X004969Y013043D02*
X003581Y013043D01*
X003520Y013141D02*
X003984Y013141D01*
X003790Y013240D02*
X003520Y013240D01*
X003608Y013338D02*
X003692Y013338D01*
X003679Y012944D02*
X004871Y012944D01*
X004772Y012846D02*
X003778Y012846D01*
X003322Y012255D02*
X001690Y012255D01*
X001690Y012156D02*
X003421Y012156D01*
X003224Y012353D02*
X001661Y012353D01*
X001562Y012452D02*
X003125Y012452D01*
X003027Y012550D02*
X001464Y012550D01*
X001377Y012649D02*
X002928Y012649D01*
X002834Y012747D02*
X001476Y012747D01*
X001574Y012846D02*
X002793Y012846D01*
X002780Y012944D02*
X001630Y012944D01*
X001630Y013043D02*
X002780Y013043D01*
X002780Y013141D02*
X002316Y013141D01*
X002510Y013240D02*
X002780Y013240D01*
X002692Y013338D02*
X002608Y013338D01*
X001690Y012058D02*
X004030Y012058D01*
X004030Y011959D02*
X001690Y011959D01*
X001674Y011861D02*
X004030Y011861D01*
X004030Y011762D02*
X001576Y011762D01*
X001477Y011664D02*
X004030Y011664D01*
X004030Y011565D02*
X001379Y011565D01*
X001447Y020233D02*
X001797Y020233D01*
X002647Y028015D02*
X002653Y028015D01*
X002743Y028113D02*
X002557Y028113D01*
X002431Y028212D02*
X002869Y028212D01*
X003431Y028212D02*
X003869Y028212D01*
X003743Y028113D02*
X003557Y028113D01*
X003647Y028015D02*
X003653Y028015D01*
X001869Y028212D02*
X001402Y028212D01*
X001501Y028113D02*
X001743Y028113D01*
D16*
X002150Y027700D02*
X001150Y027700D01*
X001150Y026700D02*
X002150Y026700D01*
X002150Y025700D02*
X001150Y025700D01*
X001150Y024700D02*
X002150Y024700D01*
X002150Y023700D02*
X001150Y023700D01*
X001150Y022700D02*
X002150Y022700D01*
X002150Y021700D02*
X001150Y021700D01*
X001150Y020700D02*
X002150Y020700D01*
X003150Y020700D02*
X003150Y021700D01*
X003150Y022700D01*
X003150Y023700D01*
X003150Y024700D01*
X003150Y025700D01*
X003150Y026700D01*
X003150Y027700D01*
X004150Y027700D02*
X004150Y026700D01*
X004150Y025700D01*
X004150Y024700D01*
X004150Y023700D01*
X004150Y022700D01*
X004150Y021700D01*
X004150Y020700D01*
X004150Y018700D01*
X004150Y017700D01*
X004150Y016700D01*
X004150Y015700D01*
X004150Y014700D01*
X004150Y013700D01*
X003150Y012950D02*
X003650Y012450D01*
X004400Y012450D01*
X004400Y005950D01*
X004900Y005450D01*
X019150Y005450D01*
X019650Y005950D01*
X019650Y010200D01*
X018650Y010200D01*
X017650Y010200D01*
X017650Y011200D02*
X016650Y011200D01*
X016260Y011590D01*
X016260Y012700D01*
X014150Y012700D01*
X016260Y012700D02*
X016260Y013920D01*
X017150Y012700D02*
X017650Y012200D01*
X018650Y012200D01*
X019650Y012200D01*
X019650Y011200D02*
X018650Y011200D01*
X017650Y011200D01*
X017150Y012700D02*
X017150Y017200D01*
X014650Y017200D01*
X009650Y017200D01*
X009650Y014700D02*
X005900Y014700D01*
X005400Y014200D01*
X005400Y012950D01*
X004900Y012450D01*
X004400Y012450D01*
X003150Y012950D02*
X003150Y013700D01*
X003150Y014700D01*
X003150Y015700D01*
X003150Y016700D01*
X003150Y017700D01*
X003150Y018700D01*
X003150Y020700D01*
X001750Y019100D02*
X002150Y018700D01*
X001750Y019100D02*
X001150Y019100D01*
X001150Y018100D02*
X001750Y018100D01*
X002150Y017700D01*
X001750Y017100D02*
X002150Y016700D01*
X001750Y017100D02*
X001150Y017100D01*
X001150Y016100D02*
X001750Y016100D01*
X002150Y015700D01*
X001750Y015100D02*
X002150Y014700D01*
X001750Y015100D02*
X001150Y015100D01*
X001150Y014100D02*
X001750Y014100D01*
X002150Y013700D01*
X007150Y019200D02*
X012150Y019200D01*
X017150Y019200D01*
X017150Y021200D01*
X017150Y022200D02*
X018650Y020700D01*
X018650Y018200D01*
X019150Y017700D01*
X020150Y017700D01*
X020150Y018700D02*
X020150Y019700D01*
X019650Y019700D01*
X019150Y020200D01*
X019150Y021200D01*
X018150Y022200D01*
X018150Y022700D01*
X018150Y023700D01*
X018150Y024700D01*
X018150Y025700D01*
X018150Y026700D01*
X018150Y027700D01*
X017150Y027700D02*
X017150Y026700D01*
X017150Y025700D01*
X017150Y024700D01*
X017150Y023700D01*
X017150Y022700D01*
X017150Y022200D01*
X016150Y022200D02*
X016150Y021700D01*
X015650Y021200D01*
X014650Y021200D01*
X009650Y021200D01*
X007150Y023200D02*
X012150Y023200D01*
X015650Y023200D01*
X016150Y022700D01*
X016150Y022200D01*
X017150Y019200D02*
X017150Y017200D01*
X018650Y015700D02*
X018040Y015090D01*
X018040Y013920D01*
X018650Y015700D02*
X020150Y015700D01*
X020150Y022700D02*
X019150Y022700D01*
X019150Y023700D02*
X020150Y023700D01*
X020150Y024700D02*
X019150Y024700D01*
X019150Y025700D02*
X020150Y025700D01*
X020150Y026700D02*
X019150Y026700D01*
X019150Y027700D02*
X020150Y027700D01*
X009650Y014700D02*
X010150Y014200D01*
X010150Y012700D01*
D17*
X012150Y008950D03*
X011650Y008200D03*
X011150Y007950D03*
X009650Y006700D03*
X009150Y007700D03*
X008650Y007450D03*
X008650Y006300D03*
X009650Y017200D03*
X007150Y019200D03*
X009650Y021200D03*
X007150Y023200D03*
X012150Y023200D03*
X014650Y021200D03*
X016150Y022200D03*
X017150Y021200D03*
X014650Y017200D03*
X012150Y019200D03*
D18*
X012150Y012700D02*
X012150Y008950D01*
X011650Y008200D02*
X011650Y010700D01*
X011150Y012700D02*
X011150Y007950D01*
X009650Y006700D02*
X009650Y010700D01*
X008650Y010700D02*
X008650Y007450D01*
X008650Y006300D01*
X009150Y007700D02*
X009150Y012700D01*
M02*
