%
M48
M72
T01C0.0276
T02C0.0394
T03C0.0400
T04C0.0470
T05C0.0472
%
T01
X8750Y6300
X8750Y7450
X9250Y7700
X9750Y6700
X11250Y7950
X11750Y8200
X12250Y8950
X9750Y17200
X7250Y19200
X9750Y21200
X7250Y23200
X12250Y23200
X14750Y21200
X16250Y22200
X17250Y21200
X14750Y17200
X12250Y19200
T02
X20250Y18700
X20250Y17700
X20250Y16700
X20250Y15700
X20250Y19700
X20250Y20700
X20250Y22700
X20250Y23700
X20250Y24700
X20250Y25700
X20250Y26700
X20250Y27700
X1250Y27700
X1250Y26700
X1250Y25700
X1250Y24700
X1250Y23700
X1250Y22700
X1250Y21700
X1250Y20700
X1250Y19100
X1250Y18100
X1250Y17100
X1250Y16100
X1250Y15100
X1250Y14100
X1250Y13100
X1250Y12100
T03
X2250Y13700
X2250Y14700
X2250Y15700
X2250Y16700
X2250Y17700
X2250Y18700
X3250Y18700
X3250Y17700
X3250Y16700
X3250Y15700
X3250Y14700
X3250Y13700
X4250Y13700
X4250Y14700
X4250Y15700
X4250Y16700
X4250Y17700
X4250Y18700
X4250Y20700
X4250Y21700
X4250Y22700
X4250Y23700
X4250Y24700
X4250Y25700
X4250Y26700
X4250Y27700
X3250Y27700
X3250Y26700
X3250Y25700
X3250Y24700
X3250Y23700
X3250Y22700
X3250Y21700
X3250Y20700
X2250Y20700
X2250Y21700
X2250Y22700
X2250Y23700
X2250Y24700
X2250Y25700
X2250Y26700
X2250Y27700
X16360Y16480
X18140Y16480
X18140Y13920
X17750Y12200
X17750Y11200
X17750Y10200
X18750Y10200
X18750Y11200
X18750Y12200
X19750Y12200
X19750Y11200
X19750Y10200
X16360Y13920
X17250Y22700
X17250Y23700
X17250Y24700
X17250Y25700
X17250Y26700
X17250Y27700
X18250Y27700
X18250Y26700
X18250Y25700
X18250Y24700
X18250Y23700
X18250Y22700
X19250Y22700
X19250Y23700
X19250Y24700
X19250Y25700
X19250Y26700
X19250Y27700
T04
X13703Y26700
X11734Y26700
X9766Y26700
X7797Y26700
T05
X7750Y10700
X8750Y10700
X9750Y10700
X10750Y10700
X11750Y10700
X12750Y10700
X13750Y10700
X13250Y12700
X12250Y12700
X11250Y12700
X10250Y12700
X9250Y12700
X8250Y12700
X7250Y12700
X14250Y12700
M30
