G75*
%MOIN*%
%OFA0B0*%
%FSLAX24Y24*%
%IPPOS*%
%LPD*%
%AMOC8*
5,1,8,0,0,1.08239X$1,22.5*
%
%ADD10OC8,0.0740*%
%ADD11C,0.0789*%
%ADD12C,0.0785*%
%ADD13C,0.0820*%
%ADD14R,0.0710X0.1458*%
%ADD15R,0.0867X0.0867*%
%ADD16C,0.0680*%
%ADD17R,0.0552X0.0552*%
%ADD18R,0.0513X0.0631*%
%ADD19C,0.0516*%
D10*
X001250Y012100D03*
X001250Y013100D03*
X001250Y014100D03*
X001250Y015100D03*
X001250Y016100D03*
X001250Y017100D03*
X001250Y018100D03*
X001250Y019100D03*
X001250Y020700D03*
X001250Y021700D03*
X001250Y022700D03*
X001250Y023700D03*
X001250Y024700D03*
X001250Y025700D03*
X001250Y026700D03*
X001250Y027700D03*
X020250Y027700D03*
X020250Y026700D03*
X020250Y025700D03*
X020250Y024700D03*
X020250Y023700D03*
X020250Y022700D03*
X020250Y020700D03*
X020250Y019700D03*
X020250Y018700D03*
X020250Y017700D03*
X020250Y016700D03*
X020250Y015700D03*
D11*
X007750Y011054D02*
X007750Y010346D01*
X008750Y010346D02*
X008750Y011054D01*
X009750Y011054D02*
X009750Y010346D01*
X010750Y010346D02*
X010750Y011054D01*
X011750Y011054D02*
X011750Y010346D01*
X012750Y010346D02*
X012750Y011054D01*
X013750Y011054D02*
X013750Y010346D01*
X013250Y012346D02*
X013250Y013054D01*
X012250Y013054D02*
X012250Y012346D01*
X011250Y012346D02*
X011250Y013054D01*
X010250Y013054D02*
X010250Y012346D01*
X009250Y012346D02*
X009250Y013054D01*
X008250Y013054D02*
X008250Y012346D01*
X007250Y012346D02*
X007250Y013054D01*
X014250Y013054D02*
X014250Y012346D01*
D12*
X013703Y026348D02*
X013703Y027053D01*
X011734Y027053D02*
X011734Y026348D01*
X009766Y026348D02*
X009766Y027053D01*
X007797Y027053D02*
X007797Y026348D01*
D13*
X004250Y026700D03*
X004250Y025700D03*
X004250Y024700D03*
X004250Y023700D03*
X004250Y022700D03*
X004250Y021700D03*
X004250Y020700D03*
X003250Y020700D03*
X003250Y021700D03*
X003250Y022700D03*
X003250Y023700D03*
X003250Y024700D03*
X003250Y025700D03*
X003250Y026700D03*
X003250Y027700D03*
X002250Y027700D03*
X002250Y026700D03*
X002250Y025700D03*
X002250Y024700D03*
X002250Y023700D03*
X002250Y022700D03*
X002250Y021700D03*
X002250Y020700D03*
X002250Y018700D03*
X002250Y017700D03*
X002250Y016700D03*
X002250Y015700D03*
X002250Y014700D03*
X002250Y013700D03*
X003250Y013700D03*
X003250Y014700D03*
X003250Y015700D03*
X003250Y016700D03*
X003250Y017700D03*
X003250Y018700D03*
X004250Y018700D03*
X004250Y017700D03*
X004250Y016700D03*
X004250Y015700D03*
X004250Y014700D03*
X004250Y013700D03*
X004250Y027700D03*
X017250Y027700D03*
X017250Y026700D03*
X017250Y025700D03*
X017250Y024700D03*
X017250Y023700D03*
X017250Y022700D03*
X018250Y022700D03*
X018250Y023700D03*
X018250Y024700D03*
X018250Y025700D03*
X018250Y026700D03*
X018250Y027700D03*
X019250Y027700D03*
X019250Y026700D03*
X019250Y025700D03*
X019250Y024700D03*
X019250Y023700D03*
X019250Y022700D03*
X018750Y012200D03*
X018750Y011200D03*
X018750Y010200D03*
X019750Y010200D03*
X019750Y011200D03*
X019750Y012200D03*
X017750Y012200D03*
X017750Y011200D03*
X017750Y010200D03*
D14*
X017250Y017637D03*
X017250Y019763D03*
D15*
X015014Y018200D03*
X013486Y018200D03*
X012514Y020200D03*
X010986Y020200D03*
X010014Y018200D03*
X008486Y018200D03*
X007514Y020200D03*
X005986Y020200D03*
X008486Y022200D03*
X007514Y024200D03*
X005986Y024200D03*
X010014Y022200D03*
X010986Y024200D03*
X012514Y024200D03*
X013486Y022200D03*
X015014Y022200D03*
D16*
X016360Y016480D03*
X018140Y016480D03*
X018140Y013920D03*
X016360Y013920D03*
D17*
X017237Y008400D03*
X017237Y007600D03*
X017237Y006800D03*
X017237Y006000D03*
X018063Y006000D03*
X018063Y006800D03*
X018063Y007600D03*
X018063Y008400D03*
D18*
X016644Y008400D03*
X016644Y007600D03*
X016644Y006800D03*
X016644Y006000D03*
X015856Y006000D03*
X015856Y006800D03*
X015856Y007600D03*
X015856Y008400D03*
D19*
X012250Y008950D03*
X011750Y008200D03*
X011250Y007950D03*
X009750Y006700D03*
X009250Y007700D03*
X008750Y007450D03*
X008750Y006300D03*
X009750Y017200D03*
X007250Y019200D03*
X009750Y021200D03*
X007250Y023200D03*
X012250Y023200D03*
X014750Y021200D03*
X016250Y022200D03*
X017250Y021200D03*
X014750Y017200D03*
X012250Y019200D03*
M02*
