G75*
%MOIN*%
%OFA0B0*%
%FSLAX24Y24*%
%IPPOS*%
%LPD*%
%AMOC8*
5,1,8,0,0,1.08239X$1,22.5*
%
%ADD10C,0.0030*%
%ADD11C,0.0060*%
%ADD12C,0.0040*%
%ADD13R,0.7461X0.0659*%
%ADD14C,0.0080*%
%ADD15C,0.0008*%
%ADD16C,0.0020*%
%ADD17R,0.0118X0.0059*%
%ADD18R,0.0118X0.0118*%
%ADD19R,0.0256X0.0551*%
D10*
X001888Y011115D02*
X001765Y011238D01*
X001888Y011361D01*
X002135Y011361D01*
X002135Y011483D02*
X001765Y011483D01*
X001765Y011668D01*
X001826Y011730D01*
X001950Y011730D01*
X002012Y011668D01*
X002012Y011483D01*
X002012Y011606D02*
X002135Y011730D01*
X002073Y011851D02*
X001950Y011851D01*
X001888Y011913D01*
X001888Y012036D01*
X001950Y012098D01*
X002012Y012098D01*
X002012Y011851D01*
X002073Y011851D02*
X002135Y011913D01*
X002135Y012036D01*
X002135Y012281D02*
X001826Y012281D01*
X001765Y012343D01*
X001950Y012343D02*
X001950Y012219D01*
X001950Y012610D02*
X002073Y012610D01*
X002135Y012672D01*
X002135Y012857D01*
X002197Y012857D02*
X002258Y012795D01*
X002258Y012733D01*
X002197Y012857D02*
X001888Y012857D01*
X001888Y012672D01*
X001950Y012610D01*
X001888Y012978D02*
X001888Y013164D01*
X001950Y013225D01*
X002135Y013225D01*
X002073Y013347D02*
X001950Y013347D01*
X001888Y013408D01*
X001888Y013594D01*
X001765Y013594D02*
X002135Y013594D01*
X002135Y013408D01*
X002073Y013347D01*
X002135Y012978D02*
X001888Y012978D01*
X001888Y013828D02*
X001765Y013952D01*
X002135Y013952D01*
X002135Y014075D02*
X002135Y013828D01*
X002073Y014197D02*
X002135Y014258D01*
X002135Y014382D01*
X002073Y014444D01*
X002012Y014444D01*
X001950Y014382D01*
X001950Y014320D01*
X001950Y014382D02*
X001888Y014444D01*
X001826Y014444D01*
X001765Y014382D01*
X001765Y014258D01*
X001826Y014197D01*
X001888Y014828D02*
X001765Y014952D01*
X002135Y014952D01*
X002135Y015075D02*
X002135Y014828D01*
X002135Y015197D02*
X001888Y015444D01*
X001826Y015444D01*
X001765Y015382D01*
X001765Y015258D01*
X001826Y015197D01*
X002135Y015197D02*
X002135Y015444D01*
X002135Y015828D02*
X002135Y016075D01*
X002135Y016197D02*
X002135Y016444D01*
X002135Y016320D02*
X001765Y016320D01*
X001888Y016197D01*
X001765Y015952D02*
X002135Y015952D01*
X001888Y015828D02*
X001765Y015952D01*
X001888Y016828D02*
X001765Y016952D01*
X002135Y016952D01*
X002135Y017075D02*
X002135Y016828D01*
X002073Y017197D02*
X001826Y017197D01*
X001765Y017258D01*
X001765Y017382D01*
X001826Y017444D01*
X002073Y017197D01*
X002135Y017258D01*
X002135Y017382D01*
X002073Y017444D01*
X001826Y017444D01*
X001826Y017997D02*
X001888Y017997D01*
X001950Y018058D01*
X001950Y018244D01*
X002073Y018244D02*
X001826Y018244D01*
X001765Y018182D01*
X001765Y018058D01*
X001826Y017997D01*
X002073Y017997D02*
X002135Y018058D01*
X002135Y018182D01*
X002073Y018244D01*
X002073Y018997D02*
X002012Y018997D01*
X001950Y019058D01*
X001950Y019182D01*
X002012Y019244D01*
X002073Y019244D01*
X002135Y019182D01*
X002135Y019058D01*
X002073Y018997D01*
X001950Y019058D02*
X001888Y018997D01*
X001826Y018997D01*
X001765Y019058D01*
X001765Y019182D01*
X001826Y019244D01*
X001888Y019244D01*
X001950Y019182D01*
X002073Y020597D02*
X002135Y020597D01*
X002073Y020597D02*
X001826Y020844D01*
X001765Y020844D01*
X001765Y020597D01*
X001950Y021597D02*
X001950Y021782D01*
X002012Y021844D01*
X002073Y021844D01*
X002135Y021782D01*
X002135Y021658D01*
X002073Y021597D01*
X001950Y021597D01*
X001826Y021720D01*
X001765Y021844D01*
X001765Y022597D02*
X001950Y022597D01*
X001888Y022720D01*
X001888Y022782D01*
X001950Y022844D01*
X002073Y022844D01*
X002135Y022782D01*
X002135Y022658D01*
X002073Y022597D01*
X001765Y022597D02*
X001765Y022844D01*
X001950Y023597D02*
X001950Y023844D01*
X002135Y023782D02*
X001765Y023782D01*
X001950Y023597D01*
X002073Y024597D02*
X002135Y024658D01*
X002135Y024782D01*
X002073Y024844D01*
X002012Y024844D01*
X001950Y024782D01*
X001950Y024720D01*
X001950Y024782D02*
X001888Y024844D01*
X001826Y024844D01*
X001765Y024782D01*
X001765Y024658D01*
X001826Y024597D01*
X001826Y025597D02*
X001765Y025658D01*
X001765Y025782D01*
X001826Y025844D01*
X001888Y025844D01*
X002135Y025597D01*
X002135Y025844D01*
X002135Y026597D02*
X002135Y026844D01*
X002135Y026720D02*
X001765Y026720D01*
X001888Y026597D01*
X001826Y027597D02*
X001765Y027658D01*
X001765Y027782D01*
X001826Y027844D01*
X002073Y027597D01*
X002135Y027658D01*
X002135Y027782D01*
X002073Y027844D01*
X001826Y027844D01*
X001826Y027597D02*
X002073Y027597D01*
X000673Y026081D02*
X000426Y026081D01*
X000365Y026019D01*
X000365Y025896D01*
X000426Y025834D01*
X000673Y025834D01*
X000735Y025896D01*
X000735Y026019D01*
X000673Y026081D01*
X000365Y025713D02*
X000735Y025466D01*
X000735Y025344D02*
X000735Y025220D01*
X000735Y025282D02*
X000365Y025282D01*
X000365Y025220D02*
X000365Y025344D01*
X000365Y024668D02*
X000735Y024668D01*
X000735Y024607D02*
X000735Y024730D01*
X000735Y024485D02*
X000550Y024485D01*
X000488Y024423D01*
X000488Y024300D01*
X000612Y024300D02*
X000612Y024485D01*
X000735Y024485D02*
X000735Y024300D01*
X000673Y024238D01*
X000612Y024300D01*
X000735Y024116D02*
X000673Y024054D01*
X000426Y024054D01*
X000488Y023993D02*
X000488Y024116D01*
X000488Y023809D02*
X000735Y023809D01*
X000735Y023747D02*
X000735Y023871D01*
X000735Y023626D02*
X000735Y023441D01*
X000673Y023379D01*
X000550Y023379D01*
X000488Y023441D01*
X000488Y023626D01*
X000797Y023626D01*
X000858Y023564D01*
X000858Y023502D01*
X000735Y023257D02*
X000735Y023133D01*
X000735Y023195D02*
X000488Y023195D01*
X000488Y023133D01*
X000426Y023012D02*
X000365Y022950D01*
X000365Y022765D01*
X000735Y022765D01*
X000735Y022950D01*
X000673Y023012D01*
X000426Y023012D01*
X000365Y023195D02*
X000303Y023195D01*
X000488Y023747D02*
X000488Y023809D01*
X000365Y023809D02*
X000303Y023809D01*
X000365Y024607D02*
X000365Y024668D01*
X000426Y018481D02*
X000365Y018419D01*
X000365Y018296D01*
X000426Y018234D01*
X000673Y018234D01*
X000735Y018296D01*
X000735Y018419D01*
X000673Y018481D01*
X000426Y018481D01*
X000365Y018113D02*
X000735Y017866D01*
X000735Y017744D02*
X000735Y017620D01*
X000735Y017682D02*
X000365Y017682D01*
X000365Y017620D02*
X000365Y017744D01*
X000365Y017068D02*
X000735Y017068D01*
X000735Y017007D02*
X000735Y017130D01*
X000735Y016885D02*
X000550Y016885D01*
X000488Y016823D01*
X000488Y016700D01*
X000612Y016700D02*
X000612Y016885D01*
X000735Y016885D02*
X000735Y016700D01*
X000673Y016638D01*
X000612Y016700D01*
X000735Y016516D02*
X000673Y016454D01*
X000426Y016454D01*
X000488Y016393D02*
X000488Y016516D01*
X000488Y016209D02*
X000735Y016209D01*
X000735Y016147D02*
X000735Y016271D01*
X000735Y016026D02*
X000735Y015841D01*
X000673Y015779D01*
X000550Y015779D01*
X000488Y015841D01*
X000488Y016026D01*
X000797Y016026D01*
X000858Y015964D01*
X000858Y015902D01*
X000735Y015657D02*
X000735Y015533D01*
X000735Y015595D02*
X000488Y015595D01*
X000488Y015533D01*
X000426Y015412D02*
X000365Y015350D01*
X000365Y015165D01*
X000735Y015165D01*
X000735Y015350D01*
X000673Y015412D01*
X000426Y015412D01*
X000365Y015595D02*
X000303Y015595D01*
X000488Y016147D02*
X000488Y016209D01*
X000365Y016209D02*
X000303Y016209D01*
X000365Y017007D02*
X000365Y017068D01*
X001950Y011361D02*
X001950Y011115D01*
X001888Y011115D02*
X002135Y011115D01*
X019303Y020777D02*
X019365Y020777D01*
X019488Y020777D02*
X019735Y020777D01*
X019735Y020715D02*
X019735Y020839D01*
X019735Y020961D02*
X019488Y020961D01*
X019488Y021146D01*
X019550Y021208D01*
X019735Y021208D01*
X019488Y020777D02*
X019488Y020715D01*
X019365Y020594D02*
X019612Y020594D01*
X019735Y020470D01*
X019612Y020347D01*
X019365Y020347D01*
X019365Y019752D02*
X019735Y019752D01*
X019735Y019567D01*
X019673Y019506D01*
X019550Y019506D01*
X019488Y019567D01*
X019488Y019752D01*
X019550Y019384D02*
X019735Y019384D01*
X019550Y019384D02*
X019488Y019322D01*
X019488Y019137D01*
X019735Y019137D01*
X019673Y019016D02*
X019550Y019016D01*
X019550Y018892D01*
X019673Y018769D02*
X019426Y018769D01*
X019365Y018831D01*
X019365Y018954D01*
X019426Y019016D01*
X019673Y019016D02*
X019735Y018954D01*
X019735Y018831D01*
X019673Y018769D01*
X019488Y018112D02*
X019735Y017989D01*
X019488Y017865D01*
X019550Y017744D02*
X019673Y017744D01*
X019735Y017682D01*
X019735Y017559D01*
X019673Y017497D01*
X019550Y017497D02*
X019488Y017620D01*
X019488Y017682D01*
X019550Y017744D01*
X019365Y017744D02*
X019365Y017497D01*
X019550Y017497D01*
X019488Y017012D02*
X019735Y016889D01*
X019488Y016765D01*
X019488Y016644D02*
X019550Y016582D01*
X019612Y016644D01*
X019673Y016644D01*
X019735Y016582D01*
X019735Y016459D01*
X019673Y016397D01*
X019550Y016520D02*
X019550Y016582D01*
X019488Y016644D02*
X019426Y016644D01*
X019365Y016582D01*
X019365Y016459D01*
X019426Y016397D01*
X019365Y015995D02*
X019365Y015748D01*
X019365Y015871D02*
X019735Y015871D01*
X019673Y015626D02*
X019735Y015564D01*
X019735Y015441D01*
X019673Y015379D01*
X019735Y015258D02*
X019612Y015134D01*
X019612Y015196D02*
X019612Y015011D01*
X019735Y015011D02*
X019365Y015011D01*
X019365Y015196D01*
X019426Y015258D01*
X019550Y015258D01*
X019612Y015196D01*
X019488Y015379D02*
X019550Y015441D01*
X019550Y015564D01*
X019612Y015626D01*
X019673Y015626D01*
X019426Y015626D02*
X019365Y015564D01*
X019365Y015441D01*
X019426Y015379D01*
X019488Y015379D01*
X019426Y022565D02*
X019365Y022627D01*
X019365Y022750D01*
X019426Y022812D01*
X019673Y022565D01*
X019735Y022627D01*
X019735Y022750D01*
X019673Y022812D01*
X019426Y022812D01*
X019426Y022565D02*
X019673Y022565D01*
X019735Y023565D02*
X019735Y023812D01*
X019735Y023688D02*
X019365Y023688D01*
X019488Y023565D01*
X019426Y024565D02*
X019365Y024627D01*
X019365Y024750D01*
X019426Y024812D01*
X019488Y024812D01*
X019735Y024565D01*
X019735Y024812D01*
X019673Y025565D02*
X019735Y025627D01*
X019735Y025750D01*
X019673Y025812D01*
X019612Y025812D01*
X019550Y025750D01*
X019550Y025688D01*
X019550Y025750D02*
X019488Y025812D01*
X019426Y025812D01*
X019365Y025750D01*
X019365Y025627D01*
X019426Y025565D01*
X019550Y026565D02*
X019550Y026812D01*
X019735Y026750D02*
X019365Y026750D01*
X019550Y026565D01*
X019550Y027565D02*
X019488Y027688D01*
X019488Y027750D01*
X019550Y027812D01*
X019673Y027812D01*
X019735Y027750D01*
X019735Y027627D01*
X019673Y027565D01*
X019550Y027565D02*
X019365Y027565D01*
X019365Y027812D01*
X020806Y026905D02*
X020806Y026720D01*
X021053Y026720D01*
X021053Y026598D02*
X021053Y026474D01*
X021053Y026536D02*
X020683Y026536D01*
X020683Y026474D02*
X020683Y026598D01*
X020806Y026905D02*
X020868Y026967D01*
X021053Y026967D01*
X021053Y025985D02*
X021053Y025799D01*
X020991Y025738D01*
X020868Y025738D01*
X020806Y025799D01*
X020806Y025985D01*
X021115Y025985D01*
X021176Y025923D01*
X021176Y025861D01*
X020991Y025616D02*
X020868Y025616D01*
X020806Y025555D01*
X020806Y025431D01*
X020868Y025369D01*
X020991Y025369D01*
X021053Y025431D01*
X021053Y025555D01*
X020991Y025616D01*
X021053Y025247D02*
X021053Y025124D01*
X021053Y025186D02*
X020683Y025186D01*
X020683Y025124D01*
X020806Y024941D02*
X020868Y025002D01*
X021053Y025002D01*
X021053Y024817D01*
X020991Y024756D01*
X020930Y024817D01*
X020930Y025002D01*
X020806Y024941D02*
X020806Y024817D01*
X020868Y024634D02*
X021053Y024634D01*
X020868Y024634D02*
X020806Y024572D01*
X020806Y024387D01*
X021053Y024387D01*
X021053Y024266D02*
X020806Y024266D01*
X020683Y024142D01*
X020806Y024019D01*
X021053Y024019D01*
X020868Y024019D02*
X020868Y024266D01*
D11*
X007050Y011000D02*
X007050Y009600D01*
X007050Y011000D02*
X007150Y011000D01*
X014350Y011000D02*
X014450Y011000D01*
X014450Y009600D01*
X016950Y013900D02*
X017550Y013900D01*
X017550Y014000D01*
X017650Y014000D01*
X018450Y014350D02*
X018450Y014700D01*
X018450Y015650D01*
X018450Y016050D01*
X017650Y016400D02*
X017550Y016400D01*
X017550Y016500D01*
X016950Y016500D01*
X016950Y016400D01*
X016850Y016400D01*
X016050Y016050D02*
X016050Y015700D01*
X016050Y014700D01*
X016050Y014350D01*
X016850Y014000D02*
X016950Y014000D01*
X016950Y013900D01*
X017150Y015200D02*
X017152Y015220D01*
X017158Y015238D01*
X017167Y015256D01*
X017179Y015271D01*
X017194Y015283D01*
X017212Y015292D01*
X017230Y015298D01*
X017250Y015300D01*
X017270Y015298D01*
X017288Y015292D01*
X017306Y015283D01*
X017321Y015271D01*
X017333Y015256D01*
X017342Y015238D01*
X017348Y015220D01*
X017350Y015200D01*
X017348Y015180D01*
X017342Y015162D01*
X017333Y015144D01*
X017321Y015129D01*
X017306Y015117D01*
X017288Y015108D01*
X017270Y015102D01*
X017250Y015100D01*
X017230Y015102D01*
X017212Y015108D01*
X017194Y015117D01*
X017179Y015129D01*
X017167Y015144D01*
X017158Y015162D01*
X017152Y015180D01*
X017150Y015200D01*
X016550Y015200D02*
X016552Y015252D01*
X016558Y015304D01*
X016568Y015356D01*
X016581Y015406D01*
X016598Y015456D01*
X016619Y015504D01*
X016644Y015550D01*
X016672Y015594D01*
X016703Y015636D01*
X016737Y015676D01*
X016774Y015713D01*
X016814Y015747D01*
X016856Y015778D01*
X016900Y015806D01*
X016946Y015831D01*
X016994Y015852D01*
X017044Y015869D01*
X017094Y015882D01*
X017146Y015892D01*
X017198Y015898D01*
X017250Y015900D01*
X017302Y015898D01*
X017354Y015892D01*
X017406Y015882D01*
X017456Y015869D01*
X017506Y015852D01*
X017554Y015831D01*
X017600Y015806D01*
X017644Y015778D01*
X017686Y015747D01*
X017726Y015713D01*
X017763Y015676D01*
X017797Y015636D01*
X017828Y015594D01*
X017856Y015550D01*
X017881Y015504D01*
X017902Y015456D01*
X017919Y015406D01*
X017932Y015356D01*
X017942Y015304D01*
X017948Y015252D01*
X017950Y015200D01*
X017948Y015148D01*
X017942Y015096D01*
X017932Y015044D01*
X017919Y014994D01*
X017902Y014944D01*
X017881Y014896D01*
X017856Y014850D01*
X017828Y014806D01*
X017797Y014764D01*
X017763Y014724D01*
X017726Y014687D01*
X017686Y014653D01*
X017644Y014622D01*
X017600Y014594D01*
X017554Y014569D01*
X017506Y014548D01*
X017456Y014531D01*
X017406Y014518D01*
X017354Y014508D01*
X017302Y014502D01*
X017250Y014500D01*
X017198Y014502D01*
X017146Y014508D01*
X017094Y014518D01*
X017044Y014531D01*
X016994Y014548D01*
X016946Y014569D01*
X016900Y014594D01*
X016856Y014622D01*
X016814Y014653D01*
X016774Y014687D01*
X016737Y014724D01*
X016703Y014764D01*
X016672Y014806D01*
X016644Y014850D01*
X016619Y014896D01*
X016598Y014944D01*
X016581Y014994D01*
X016568Y015044D01*
X016558Y015096D01*
X016552Y015148D01*
X016550Y015200D01*
X014687Y025050D02*
X014687Y025990D01*
X014687Y028590D01*
X006817Y028590D01*
X006817Y028670D01*
X014687Y028670D01*
X014687Y028590D01*
X013507Y028070D02*
X013509Y028098D01*
X013515Y028125D01*
X013524Y028151D01*
X013537Y028176D01*
X013554Y028199D01*
X013573Y028219D01*
X013595Y028236D01*
X013619Y028250D01*
X013645Y028260D01*
X013672Y028267D01*
X013700Y028270D01*
X013728Y028269D01*
X013755Y028264D01*
X013782Y028255D01*
X013807Y028243D01*
X013830Y028228D01*
X013851Y028209D01*
X013869Y028188D01*
X013884Y028164D01*
X013895Y028138D01*
X013903Y028112D01*
X013907Y028084D01*
X013907Y028056D01*
X013903Y028028D01*
X013895Y028002D01*
X013884Y027976D01*
X013869Y027952D01*
X013851Y027931D01*
X013830Y027912D01*
X013807Y027897D01*
X013782Y027885D01*
X013755Y027876D01*
X013728Y027871D01*
X013700Y027870D01*
X013672Y027873D01*
X013645Y027880D01*
X013619Y027890D01*
X013595Y027904D01*
X013573Y027921D01*
X013554Y027941D01*
X013537Y027964D01*
X013524Y027989D01*
X013515Y028015D01*
X013509Y028042D01*
X013507Y028070D01*
X013357Y025990D02*
X012087Y025990D01*
X011387Y025990D02*
X010117Y025990D01*
X009417Y025990D02*
X008147Y025990D01*
X007447Y025990D02*
X006817Y025990D01*
X006817Y028590D01*
X007597Y028070D02*
X007599Y028098D01*
X007605Y028125D01*
X007614Y028151D01*
X007627Y028176D01*
X007644Y028199D01*
X007663Y028219D01*
X007685Y028236D01*
X007709Y028250D01*
X007735Y028260D01*
X007762Y028267D01*
X007790Y028270D01*
X007818Y028269D01*
X007845Y028264D01*
X007872Y028255D01*
X007897Y028243D01*
X007920Y028228D01*
X007941Y028209D01*
X007959Y028188D01*
X007974Y028164D01*
X007985Y028138D01*
X007993Y028112D01*
X007997Y028084D01*
X007997Y028056D01*
X007993Y028028D01*
X007985Y028002D01*
X007974Y027976D01*
X007959Y027952D01*
X007941Y027931D01*
X007920Y027912D01*
X007897Y027897D01*
X007872Y027885D01*
X007845Y027876D01*
X007818Y027871D01*
X007790Y027870D01*
X007762Y027873D01*
X007735Y027880D01*
X007709Y027890D01*
X007685Y027904D01*
X007663Y027921D01*
X007644Y027941D01*
X007627Y027964D01*
X007614Y027989D01*
X007605Y028015D01*
X007599Y028042D01*
X007597Y028070D01*
X006817Y025990D02*
X006817Y025050D01*
X014687Y025050D01*
X014687Y025990D02*
X014057Y025990D01*
X011537Y028070D02*
X011539Y028098D01*
X011545Y028125D01*
X011554Y028151D01*
X011567Y028176D01*
X011584Y028199D01*
X011603Y028219D01*
X011625Y028236D01*
X011649Y028250D01*
X011675Y028260D01*
X011702Y028267D01*
X011730Y028270D01*
X011758Y028269D01*
X011785Y028264D01*
X011812Y028255D01*
X011837Y028243D01*
X011860Y028228D01*
X011881Y028209D01*
X011899Y028188D01*
X011914Y028164D01*
X011925Y028138D01*
X011933Y028112D01*
X011937Y028084D01*
X011937Y028056D01*
X011933Y028028D01*
X011925Y028002D01*
X011914Y027976D01*
X011899Y027952D01*
X011881Y027931D01*
X011860Y027912D01*
X011837Y027897D01*
X011812Y027885D01*
X011785Y027876D01*
X011758Y027871D01*
X011730Y027870D01*
X011702Y027873D01*
X011675Y027880D01*
X011649Y027890D01*
X011625Y027904D01*
X011603Y027921D01*
X011584Y027941D01*
X011567Y027964D01*
X011554Y027989D01*
X011545Y028015D01*
X011539Y028042D01*
X011537Y028070D01*
X009567Y028070D02*
X009569Y028098D01*
X009575Y028125D01*
X009584Y028151D01*
X009597Y028176D01*
X009614Y028199D01*
X009633Y028219D01*
X009655Y028236D01*
X009679Y028250D01*
X009705Y028260D01*
X009732Y028267D01*
X009760Y028270D01*
X009788Y028269D01*
X009815Y028264D01*
X009842Y028255D01*
X009867Y028243D01*
X009890Y028228D01*
X009911Y028209D01*
X009929Y028188D01*
X009944Y028164D01*
X009955Y028138D01*
X009963Y028112D01*
X009967Y028084D01*
X009967Y028056D01*
X009963Y028028D01*
X009955Y028002D01*
X009944Y027976D01*
X009929Y027952D01*
X009911Y027931D01*
X009890Y027912D01*
X009867Y027897D01*
X009842Y027885D01*
X009815Y027876D01*
X009788Y027871D01*
X009760Y027870D01*
X009732Y027873D01*
X009705Y027880D01*
X009679Y027890D01*
X009655Y027904D01*
X009633Y027921D01*
X009614Y027941D01*
X009597Y027964D01*
X009584Y027989D01*
X009575Y028015D01*
X009569Y028042D01*
X009567Y028070D01*
D12*
X014135Y013751D02*
X014135Y013290D01*
X013982Y013290D02*
X014289Y013290D01*
X013982Y013597D02*
X014135Y013751D01*
X013759Y010180D02*
X013605Y010180D01*
X013529Y010104D01*
X013759Y010180D02*
X013836Y010104D01*
X013836Y010027D01*
X013529Y009720D01*
X013836Y009720D01*
X007991Y009950D02*
X007684Y009950D01*
X007914Y010180D01*
X007914Y009720D01*
X007531Y009720D02*
X007224Y009720D01*
X007377Y009720D02*
X007377Y010180D01*
X007224Y010027D01*
X007214Y013267D02*
X007137Y013344D01*
X007214Y013267D02*
X007368Y013267D01*
X007444Y013344D01*
X007444Y013497D01*
X007368Y013574D01*
X007291Y013574D01*
X007137Y013497D01*
X007137Y013727D01*
X007444Y013727D01*
X006984Y013267D02*
X006677Y013267D01*
X006830Y013267D02*
X006830Y013727D01*
X006677Y013574D01*
D13*
X010750Y009301D03*
D14*
X015951Y017401D02*
X015951Y019645D01*
X016305Y019999D01*
X016817Y019999D01*
X017683Y019999D02*
X018195Y019999D01*
X018549Y019645D01*
X018549Y017401D01*
X017683Y017401D01*
X016817Y017401D02*
X015951Y017401D01*
X017000Y022200D02*
X017500Y022200D01*
X017750Y022450D01*
X018000Y022200D01*
X018500Y022200D01*
X018750Y022450D01*
X019000Y022200D01*
X019500Y022200D01*
X019750Y022450D01*
X019750Y022950D01*
X019500Y023200D01*
X019000Y023200D01*
X018750Y022950D01*
X018500Y023200D01*
X018000Y023200D01*
X017750Y022950D01*
X017500Y023200D01*
X017000Y023200D01*
X016750Y022950D01*
X016750Y022450D01*
X017000Y022200D01*
X017000Y023200D02*
X017500Y023200D01*
X017750Y023450D01*
X018000Y023200D01*
X018500Y023200D01*
X018750Y023450D01*
X019000Y023200D01*
X019500Y023200D01*
X019750Y023450D01*
X019750Y023950D01*
X019500Y024200D01*
X019000Y024200D01*
X018750Y023950D01*
X018500Y024200D01*
X018000Y024200D01*
X017750Y023950D01*
X017500Y024200D01*
X017000Y024200D01*
X016750Y023950D01*
X016750Y023450D01*
X017000Y023200D01*
X017000Y024200D02*
X017500Y024200D01*
X017750Y024450D01*
X018000Y024200D01*
X018500Y024200D01*
X018750Y024450D01*
X019000Y024200D01*
X019500Y024200D01*
X019750Y024450D01*
X019750Y024950D01*
X019500Y025200D01*
X019000Y025200D01*
X018750Y024950D01*
X018500Y025200D01*
X018000Y025200D01*
X017750Y024950D01*
X017500Y025200D01*
X017000Y025200D01*
X016750Y024950D01*
X016750Y024450D01*
X017000Y024200D01*
X017000Y025200D02*
X017500Y025200D01*
X017750Y025450D01*
X018000Y025200D01*
X018500Y025200D01*
X018750Y025450D01*
X019000Y025200D01*
X019500Y025200D01*
X019750Y025450D01*
X019750Y025950D01*
X019500Y026200D01*
X019000Y026200D01*
X018750Y025950D01*
X018500Y026200D01*
X018000Y026200D01*
X017750Y025950D01*
X017500Y026200D01*
X017000Y026200D01*
X016750Y025950D01*
X016750Y025450D01*
X017000Y025200D01*
X017000Y026200D02*
X017500Y026200D01*
X017750Y026450D01*
X018000Y026200D01*
X018500Y026200D01*
X018750Y026450D01*
X019000Y026200D01*
X019500Y026200D01*
X019750Y026450D01*
X019750Y026950D01*
X019500Y027200D01*
X019000Y027200D01*
X018750Y026950D01*
X018500Y027200D01*
X018000Y027200D01*
X017750Y026950D01*
X017500Y027200D01*
X017000Y027200D01*
X016750Y026950D01*
X016750Y026450D01*
X017000Y026200D01*
X017000Y027200D02*
X016750Y027450D01*
X016750Y027950D01*
X017000Y028200D01*
X017500Y028200D01*
X017750Y027950D01*
X018000Y028200D01*
X018500Y028200D01*
X018750Y027950D01*
X019000Y028200D01*
X019500Y028200D01*
X019750Y027950D01*
X019750Y027450D01*
X019500Y027200D01*
X019000Y027200D01*
X018750Y027450D01*
X018500Y027200D01*
X018000Y027200D01*
X017750Y027450D01*
X017500Y027200D01*
X017000Y027200D01*
X017500Y012700D02*
X017250Y012450D01*
X017250Y011950D01*
X017500Y011700D01*
X018000Y011700D01*
X018250Y011950D01*
X018500Y011700D01*
X019000Y011700D01*
X019250Y011950D01*
X019500Y011700D01*
X020000Y011700D01*
X020250Y011950D01*
X020250Y012450D01*
X020000Y012700D01*
X019500Y012700D01*
X019250Y012450D01*
X019000Y012700D01*
X018500Y012700D01*
X018250Y012450D01*
X018000Y012700D01*
X017500Y012700D01*
X017500Y011700D02*
X017250Y011450D01*
X017250Y010950D01*
X017500Y010700D01*
X018000Y010700D01*
X018250Y010950D01*
X018500Y010700D01*
X019000Y010700D01*
X019250Y010950D01*
X019500Y010700D01*
X020000Y010700D01*
X020250Y010950D01*
X020250Y011450D01*
X020000Y011700D01*
X019500Y011700D01*
X019250Y011450D01*
X019000Y011700D01*
X018500Y011700D01*
X018250Y011450D01*
X018000Y011700D01*
X017500Y011700D01*
X017500Y010700D02*
X017250Y010450D01*
X017250Y009950D01*
X017500Y009700D01*
X018000Y009700D01*
X018250Y009950D01*
X018500Y009700D01*
X019000Y009700D01*
X019250Y009950D01*
X019500Y009700D01*
X020000Y009700D01*
X020250Y009950D01*
X020250Y010450D01*
X020000Y010700D01*
X019500Y010700D01*
X019250Y010450D01*
X019000Y010700D01*
X018500Y010700D01*
X018250Y010450D01*
X018000Y010700D01*
X017500Y010700D01*
X004750Y013450D02*
X004750Y013950D01*
X004500Y014200D01*
X004000Y014200D01*
X003750Y013950D01*
X003500Y014200D01*
X003000Y014200D01*
X002750Y013950D01*
X002500Y014200D01*
X002000Y014200D01*
X001750Y013950D01*
X001750Y013450D01*
X002000Y013200D01*
X002500Y013200D01*
X002750Y013450D01*
X003000Y013200D01*
X003500Y013200D01*
X003750Y013450D01*
X004000Y013200D01*
X004500Y013200D01*
X004750Y013450D01*
X004500Y014200D02*
X004000Y014200D01*
X003750Y014450D01*
X003500Y014200D01*
X003000Y014200D01*
X002750Y014450D01*
X002500Y014200D01*
X002000Y014200D01*
X001750Y014450D01*
X001750Y014950D01*
X002000Y015200D01*
X002500Y015200D01*
X002750Y014950D01*
X003000Y015200D01*
X003500Y015200D01*
X003750Y014950D01*
X004000Y015200D01*
X004500Y015200D01*
X004750Y014950D01*
X004750Y014450D01*
X004500Y014200D01*
X004500Y015200D02*
X004000Y015200D01*
X003750Y015450D01*
X003500Y015200D01*
X003000Y015200D01*
X002750Y015450D01*
X002500Y015200D01*
X002000Y015200D01*
X001750Y015450D01*
X001750Y015950D01*
X002000Y016200D01*
X002500Y016200D01*
X002750Y015950D01*
X003000Y016200D01*
X003500Y016200D01*
X003750Y015950D01*
X004000Y016200D01*
X004500Y016200D01*
X004750Y015950D01*
X004750Y015450D01*
X004500Y015200D01*
X004500Y016200D02*
X004000Y016200D01*
X003750Y016450D01*
X003500Y016200D01*
X003000Y016200D01*
X002750Y016450D01*
X002500Y016200D01*
X002000Y016200D01*
X001750Y016450D01*
X001750Y016950D01*
X002000Y017200D01*
X002500Y017200D01*
X002750Y016950D01*
X003000Y017200D01*
X003500Y017200D01*
X003750Y016950D01*
X004000Y017200D01*
X004500Y017200D01*
X004750Y016950D01*
X004750Y016450D01*
X004500Y016200D01*
X004500Y017200D02*
X004000Y017200D01*
X003750Y017450D01*
X003500Y017200D01*
X003000Y017200D01*
X002750Y017450D01*
X002500Y017200D01*
X002000Y017200D01*
X001750Y017450D01*
X001750Y017950D01*
X002000Y018200D01*
X002500Y018200D01*
X002750Y017950D01*
X003000Y018200D01*
X003500Y018200D01*
X003750Y017950D01*
X004000Y018200D01*
X004500Y018200D01*
X004750Y017950D01*
X004750Y017450D01*
X004500Y017200D01*
X004500Y018200D02*
X004000Y018200D01*
X003750Y018450D01*
X003500Y018200D01*
X003000Y018200D01*
X002750Y018450D01*
X002500Y018200D01*
X002000Y018200D01*
X001750Y018450D01*
X001750Y018950D01*
X002000Y019200D01*
X002500Y019200D01*
X002750Y018950D01*
X003000Y019200D01*
X003500Y019200D01*
X003750Y018950D01*
X004000Y019200D01*
X004500Y019200D01*
X004750Y018950D01*
X004750Y018450D01*
X004500Y018200D01*
X004500Y020200D02*
X004000Y020200D01*
X003750Y020450D01*
X003500Y020200D01*
X003000Y020200D01*
X002750Y020450D01*
X002500Y020200D01*
X002000Y020200D01*
X001750Y020450D01*
X001750Y020950D01*
X002000Y021200D01*
X002500Y021200D01*
X002750Y020950D01*
X003000Y021200D01*
X003500Y021200D01*
X003750Y020950D01*
X004000Y021200D01*
X004500Y021200D01*
X004750Y020950D01*
X004750Y020450D01*
X004500Y020200D01*
X004500Y021200D02*
X004000Y021200D01*
X003750Y021450D01*
X003500Y021200D01*
X003000Y021200D01*
X002750Y021450D01*
X002500Y021200D01*
X002000Y021200D01*
X001750Y021450D01*
X001750Y021950D01*
X002000Y022200D01*
X002500Y022200D01*
X002750Y021950D01*
X003000Y022200D01*
X003500Y022200D01*
X003750Y021950D01*
X004000Y022200D01*
X004500Y022200D01*
X004750Y021950D01*
X004750Y021450D01*
X004500Y021200D01*
X004500Y022200D02*
X004000Y022200D01*
X003750Y022450D01*
X003500Y022200D01*
X003000Y022200D01*
X002750Y022450D01*
X002500Y022200D01*
X002000Y022200D01*
X001750Y022450D01*
X001750Y022950D01*
X002000Y023200D01*
X002500Y023200D01*
X002750Y022950D01*
X003000Y023200D01*
X003500Y023200D01*
X003750Y022950D01*
X004000Y023200D01*
X004500Y023200D01*
X004750Y022950D01*
X004750Y022450D01*
X004500Y022200D01*
X004500Y023200D02*
X004000Y023200D01*
X003750Y023450D01*
X003500Y023200D01*
X003000Y023200D01*
X002750Y023450D01*
X002500Y023200D01*
X002000Y023200D01*
X001750Y023450D01*
X001750Y023950D01*
X002000Y024200D01*
X002500Y024200D01*
X002750Y023950D01*
X003000Y024200D01*
X003500Y024200D01*
X003750Y023950D01*
X004000Y024200D01*
X004500Y024200D01*
X004750Y023950D01*
X004750Y023450D01*
X004500Y023200D01*
X004500Y024200D02*
X004000Y024200D01*
X003750Y024450D01*
X003500Y024200D01*
X003000Y024200D01*
X002750Y024450D01*
X002500Y024200D01*
X002000Y024200D01*
X001750Y024450D01*
X001750Y024950D01*
X002000Y025200D01*
X002500Y025200D01*
X002750Y024950D01*
X003000Y025200D01*
X003500Y025200D01*
X003750Y024950D01*
X004000Y025200D01*
X004500Y025200D01*
X004750Y024950D01*
X004750Y024450D01*
X004500Y024200D01*
X004500Y025200D02*
X004000Y025200D01*
X003750Y025450D01*
X003500Y025200D01*
X003000Y025200D01*
X002750Y025450D01*
X002500Y025200D01*
X002000Y025200D01*
X001750Y025450D01*
X001750Y025950D01*
X002000Y026200D01*
X002500Y026200D01*
X002750Y025950D01*
X003000Y026200D01*
X003500Y026200D01*
X003750Y025950D01*
X004000Y026200D01*
X004500Y026200D01*
X004750Y025950D01*
X004750Y025450D01*
X004500Y025200D01*
X004500Y026200D02*
X004000Y026200D01*
X003750Y026450D01*
X003500Y026200D01*
X003000Y026200D01*
X002750Y026450D01*
X002500Y026200D01*
X002000Y026200D01*
X001750Y026450D01*
X001750Y026950D01*
X002000Y027200D01*
X002500Y027200D01*
X002750Y027450D01*
X003000Y027200D01*
X003500Y027200D01*
X003750Y027450D01*
X004000Y027200D01*
X004500Y027200D01*
X004750Y027450D01*
X004750Y027950D01*
X004500Y028200D01*
X004000Y028200D01*
X003750Y027950D01*
X003500Y028200D01*
X003000Y028200D01*
X002750Y027950D01*
X002500Y028200D01*
X002000Y028200D01*
X001750Y027950D01*
X001750Y027450D01*
X002000Y027200D01*
X002500Y027200D01*
X002750Y026950D01*
X003000Y027200D01*
X003500Y027200D01*
X003750Y026950D01*
X004000Y027200D01*
X004500Y027200D01*
X004750Y026950D01*
X004750Y026450D01*
X004500Y026200D01*
D15*
X017618Y017506D02*
X017597Y017575D01*
X017598Y017574D02*
X017662Y017596D01*
X017725Y017622D01*
X017786Y017651D01*
X017846Y017683D01*
X017903Y017719D01*
X017958Y017758D01*
X018012Y017800D01*
X018062Y017846D01*
X018110Y017894D01*
X018155Y017944D01*
X018197Y017997D01*
X018236Y018053D01*
X018272Y018111D01*
X018304Y018170D01*
X018333Y018232D01*
X018358Y018295D01*
X018380Y018359D01*
X018398Y018424D01*
X018412Y018491D01*
X018422Y018558D01*
X018428Y018625D01*
X018431Y018693D01*
X018430Y018761D01*
X018424Y018828D01*
X018415Y018896D01*
X018402Y018962D01*
X018385Y019028D01*
X018365Y019093D01*
X018341Y019156D01*
X018313Y019218D01*
X018282Y019278D01*
X018247Y019336D01*
X018209Y019392D01*
X018168Y019446D01*
X018124Y019498D01*
X018077Y019547D01*
X018027Y019593D01*
X017974Y019636D01*
X017920Y019676D01*
X017863Y019713D01*
X017804Y019746D01*
X017743Y019776D01*
X017681Y019803D01*
X017617Y019826D01*
X017638Y019894D01*
X017639Y019894D01*
X017704Y019871D01*
X017767Y019844D01*
X017829Y019814D01*
X017889Y019781D01*
X017947Y019744D01*
X018003Y019704D01*
X018057Y019661D01*
X018109Y019615D01*
X018158Y019567D01*
X018204Y019516D01*
X018247Y019462D01*
X018287Y019406D01*
X018324Y019348D01*
X018358Y019288D01*
X018388Y019227D01*
X018415Y019163D01*
X018439Y019099D01*
X018459Y019033D01*
X018475Y018966D01*
X018488Y018898D01*
X018497Y018830D01*
X018502Y018761D01*
X018503Y018692D01*
X018500Y018624D01*
X018494Y018555D01*
X018484Y018487D01*
X018470Y018419D01*
X018453Y018353D01*
X018432Y018287D01*
X018407Y018223D01*
X018379Y018160D01*
X018348Y018099D01*
X018313Y018040D01*
X018275Y017982D01*
X018234Y017927D01*
X018190Y017874D01*
X018143Y017824D01*
X018093Y017776D01*
X018041Y017731D01*
X017986Y017689D01*
X017930Y017650D01*
X017871Y017615D01*
X017810Y017582D01*
X017748Y017553D01*
X017684Y017527D01*
X017619Y017505D01*
X017617Y017512D01*
X017683Y017535D01*
X017748Y017561D01*
X017811Y017590D01*
X017873Y017624D01*
X017932Y017660D01*
X017990Y017700D01*
X018045Y017743D01*
X018097Y017790D01*
X018147Y017839D01*
X018194Y017890D01*
X018239Y017945D01*
X018280Y018001D01*
X018317Y018060D01*
X018352Y018121D01*
X018383Y018184D01*
X018410Y018248D01*
X018434Y018314D01*
X018454Y018381D01*
X018470Y018449D01*
X018482Y018518D01*
X018491Y018588D01*
X018495Y018657D01*
X018496Y018727D01*
X018492Y018797D01*
X018485Y018867D01*
X018474Y018936D01*
X018459Y019004D01*
X018440Y019072D01*
X018418Y019138D01*
X018391Y019203D01*
X018361Y019266D01*
X018328Y019328D01*
X018291Y019387D01*
X018251Y019445D01*
X018208Y019500D01*
X018162Y019552D01*
X018113Y019602D01*
X018061Y019649D01*
X018007Y019693D01*
X017950Y019734D01*
X017891Y019772D01*
X017830Y019806D01*
X017767Y019837D01*
X017703Y019864D01*
X017637Y019887D01*
X017635Y019881D01*
X017700Y019857D01*
X017764Y019830D01*
X017827Y019800D01*
X017887Y019766D01*
X017946Y019728D01*
X018002Y019687D01*
X018056Y019644D01*
X018108Y019597D01*
X018157Y019547D01*
X018203Y019495D01*
X018246Y019440D01*
X018286Y019383D01*
X018322Y019324D01*
X018355Y019263D01*
X018385Y019200D01*
X018411Y019136D01*
X018434Y019070D01*
X018452Y019003D01*
X018467Y018935D01*
X018478Y018866D01*
X018485Y018797D01*
X018489Y018727D01*
X018488Y018658D01*
X018484Y018588D01*
X018475Y018519D01*
X018463Y018451D01*
X018447Y018383D01*
X018427Y018316D01*
X018404Y018251D01*
X018376Y018187D01*
X018346Y018124D01*
X018311Y018064D01*
X018274Y018005D01*
X018233Y017949D01*
X018189Y017895D01*
X018142Y017843D01*
X018093Y017795D01*
X018040Y017749D01*
X017986Y017706D01*
X017928Y017666D01*
X017869Y017630D01*
X017808Y017597D01*
X017745Y017567D01*
X017680Y017541D01*
X017614Y017519D01*
X017612Y017526D01*
X017678Y017548D01*
X017742Y017574D01*
X017805Y017603D01*
X017866Y017636D01*
X017925Y017672D01*
X017981Y017712D01*
X018036Y017754D01*
X018088Y017800D01*
X018137Y017848D01*
X018184Y017899D01*
X018228Y017953D01*
X018268Y018009D01*
X018305Y018067D01*
X018339Y018128D01*
X018370Y018190D01*
X018397Y018253D01*
X018420Y018319D01*
X018440Y018385D01*
X018456Y018452D01*
X018468Y018520D01*
X018477Y018589D01*
X018481Y018658D01*
X018482Y018727D01*
X018478Y018796D01*
X018471Y018865D01*
X018460Y018933D01*
X018445Y019001D01*
X018427Y019068D01*
X018404Y019133D01*
X018379Y019197D01*
X018349Y019260D01*
X018316Y019321D01*
X018280Y019379D01*
X018240Y019436D01*
X018197Y019491D01*
X018152Y019543D01*
X018103Y019592D01*
X018052Y019638D01*
X017998Y019682D01*
X017942Y019722D01*
X017884Y019760D01*
X017823Y019793D01*
X017761Y019824D01*
X017698Y019851D01*
X017632Y019874D01*
X017630Y019868D01*
X017695Y019844D01*
X017758Y019818D01*
X017820Y019787D01*
X017880Y019754D01*
X017938Y019717D01*
X017994Y019676D01*
X018047Y019633D01*
X018098Y019587D01*
X018147Y019538D01*
X018192Y019486D01*
X018234Y019432D01*
X018274Y019376D01*
X018310Y019317D01*
X018343Y019257D01*
X018372Y019194D01*
X018398Y019131D01*
X018420Y019066D01*
X018439Y018999D01*
X018453Y018932D01*
X018464Y018864D01*
X018471Y018796D01*
X018475Y018727D01*
X018474Y018658D01*
X018470Y018590D01*
X018461Y018521D01*
X018449Y018454D01*
X018433Y018387D01*
X018414Y018321D01*
X018391Y018256D01*
X018364Y018193D01*
X018333Y018131D01*
X018299Y018071D01*
X018262Y018013D01*
X018222Y017957D01*
X018179Y017904D01*
X018132Y017853D01*
X018083Y017805D01*
X018031Y017760D01*
X017977Y017717D01*
X017921Y017678D01*
X017862Y017642D01*
X017802Y017609D01*
X017739Y017580D01*
X017676Y017554D01*
X017610Y017532D01*
X017608Y017539D01*
X017673Y017561D01*
X017737Y017586D01*
X017799Y017616D01*
X017859Y017648D01*
X017917Y017684D01*
X017973Y017723D01*
X018027Y017765D01*
X018078Y017810D01*
X018127Y017858D01*
X018173Y017909D01*
X018216Y017962D01*
X018257Y018017D01*
X018293Y018075D01*
X018327Y018134D01*
X018357Y018196D01*
X018384Y018259D01*
X018407Y018323D01*
X018427Y018388D01*
X018442Y018455D01*
X018455Y018522D01*
X018463Y018590D01*
X018467Y018658D01*
X018468Y018727D01*
X018465Y018795D01*
X018457Y018863D01*
X018447Y018931D01*
X018432Y018998D01*
X018413Y019063D01*
X018391Y019128D01*
X018366Y019192D01*
X018337Y019253D01*
X018304Y019314D01*
X018268Y019372D01*
X018229Y019428D01*
X018187Y019482D01*
X018141Y019533D01*
X018093Y019582D01*
X018043Y019628D01*
X017990Y019671D01*
X017934Y019711D01*
X017876Y019748D01*
X017817Y019781D01*
X017755Y019811D01*
X017692Y019838D01*
X017628Y019861D01*
X017626Y019854D01*
X017690Y019831D01*
X017753Y019805D01*
X017814Y019775D01*
X017873Y019742D01*
X017930Y019705D01*
X017985Y019665D01*
X018038Y019622D01*
X018089Y019577D01*
X018136Y019528D01*
X018181Y019477D01*
X018223Y019424D01*
X018262Y019368D01*
X018298Y019310D01*
X018330Y019250D01*
X018359Y019189D01*
X018385Y019126D01*
X018407Y019061D01*
X018425Y018996D01*
X018440Y018929D01*
X018450Y018862D01*
X018458Y018795D01*
X018461Y018727D01*
X018460Y018659D01*
X018456Y018591D01*
X018448Y018523D01*
X018436Y018456D01*
X018420Y018390D01*
X018401Y018325D01*
X018377Y018261D01*
X018351Y018199D01*
X018321Y018138D01*
X018287Y018078D01*
X018251Y018021D01*
X018211Y017966D01*
X018168Y017913D01*
X018122Y017863D01*
X018074Y017815D01*
X018023Y017770D01*
X017969Y017729D01*
X017913Y017690D01*
X017855Y017654D01*
X017795Y017622D01*
X017734Y017593D01*
X017671Y017567D01*
X017606Y017546D01*
X017604Y017552D01*
X017668Y017574D01*
X017731Y017599D01*
X017792Y017628D01*
X017852Y017660D01*
X017909Y017696D01*
X017965Y017734D01*
X018018Y017776D01*
X018069Y017820D01*
X018117Y017868D01*
X018163Y017918D01*
X018205Y017970D01*
X018245Y018025D01*
X018281Y018082D01*
X018315Y018141D01*
X018345Y018201D01*
X018371Y018264D01*
X018394Y018327D01*
X018413Y018392D01*
X018429Y018458D01*
X018441Y018524D01*
X018449Y018592D01*
X018453Y018659D01*
X018454Y018727D01*
X018451Y018794D01*
X018444Y018861D01*
X018433Y018928D01*
X018418Y018994D01*
X018400Y019059D01*
X018378Y019123D01*
X018353Y019186D01*
X018324Y019247D01*
X018292Y019307D01*
X018256Y019364D01*
X018218Y019419D01*
X018176Y019473D01*
X018131Y019523D01*
X018084Y019572D01*
X018034Y019617D01*
X017981Y019660D01*
X017926Y019699D01*
X017869Y019736D01*
X017810Y019769D01*
X017750Y019798D01*
X017687Y019825D01*
X017624Y019848D01*
X017622Y019841D01*
X017686Y019818D01*
X017750Y019791D01*
X017811Y019760D01*
X017871Y019726D01*
X017929Y019689D01*
X017984Y019648D01*
X018037Y019605D01*
X018088Y019558D01*
X018135Y019509D01*
X018180Y019456D01*
X018222Y019402D01*
X018260Y019345D01*
X018296Y019286D01*
X018327Y019225D01*
X018355Y019162D01*
X018380Y019098D01*
X018401Y019032D01*
X018418Y018966D01*
X018431Y018898D01*
X018440Y018830D01*
X018446Y018762D01*
X018447Y018693D01*
X018444Y018624D01*
X018438Y018556D01*
X018427Y018488D01*
X018413Y018421D01*
X018395Y018354D01*
X018373Y018289D01*
X018348Y018225D01*
X018318Y018163D01*
X018286Y018103D01*
X018249Y018044D01*
X018210Y017988D01*
X018167Y017934D01*
X018122Y017883D01*
X018073Y017834D01*
X018022Y017788D01*
X017968Y017745D01*
X017912Y017706D01*
X017854Y017669D01*
X017793Y017636D01*
X017731Y017607D01*
X017667Y017581D01*
X017602Y017559D01*
X017600Y017566D01*
X017665Y017588D01*
X017728Y017613D01*
X017790Y017643D01*
X017850Y017675D01*
X017908Y017711D01*
X017964Y017751D01*
X018017Y017793D01*
X018068Y017839D01*
X018117Y017887D01*
X018162Y017938D01*
X018204Y017992D01*
X018244Y018048D01*
X018279Y018106D01*
X018312Y018166D01*
X018341Y018228D01*
X018367Y018292D01*
X018388Y018356D01*
X018406Y018422D01*
X018421Y018489D01*
X018431Y018557D01*
X018437Y018625D01*
X018440Y018693D01*
X018439Y018761D01*
X018433Y018829D01*
X018424Y018897D01*
X018411Y018964D01*
X018394Y019030D01*
X018373Y019096D01*
X018349Y019159D01*
X018321Y019222D01*
X018289Y019282D01*
X018254Y019341D01*
X018216Y019398D01*
X018175Y019452D01*
X018130Y019504D01*
X018083Y019553D01*
X018033Y019599D01*
X017980Y019643D01*
X017925Y019683D01*
X017867Y019720D01*
X017808Y019754D01*
X017747Y019784D01*
X017684Y019811D01*
X017619Y019834D01*
X017617Y019828D01*
X017681Y019805D01*
X017744Y019778D01*
X017805Y019748D01*
X017864Y019714D01*
X017921Y019677D01*
X017976Y019637D01*
X018028Y019594D01*
X018078Y019548D01*
X018125Y019499D01*
X018169Y019448D01*
X018211Y019394D01*
X018249Y019337D01*
X018283Y019279D01*
X018315Y019219D01*
X018343Y019157D01*
X018367Y019093D01*
X018387Y019028D01*
X018404Y018963D01*
X018417Y018896D01*
X018426Y018829D01*
X018432Y018761D01*
X018433Y018693D01*
X018430Y018625D01*
X018424Y018557D01*
X018414Y018490D01*
X018400Y018424D01*
X018382Y018358D01*
X018360Y018294D01*
X018335Y018231D01*
X018306Y018169D01*
X018273Y018110D01*
X018238Y018052D01*
X018199Y017996D01*
X018157Y017943D01*
X018111Y017892D01*
X018063Y017844D01*
X018013Y017799D01*
X017960Y017757D01*
X017904Y017717D01*
X017847Y017681D01*
X017787Y017649D01*
X017725Y017620D01*
X017663Y017594D01*
X017598Y017572D01*
X016882Y019894D02*
X016903Y019825D01*
X016902Y019826D02*
X016838Y019804D01*
X016775Y019778D01*
X016714Y019749D01*
X016654Y019717D01*
X016597Y019681D01*
X016542Y019642D01*
X016488Y019600D01*
X016438Y019554D01*
X016390Y019506D01*
X016345Y019456D01*
X016303Y019403D01*
X016264Y019347D01*
X016228Y019289D01*
X016196Y019230D01*
X016167Y019168D01*
X016142Y019105D01*
X016120Y019041D01*
X016102Y018976D01*
X016088Y018909D01*
X016078Y018842D01*
X016072Y018775D01*
X016069Y018707D01*
X016070Y018639D01*
X016076Y018572D01*
X016085Y018504D01*
X016098Y018438D01*
X016115Y018372D01*
X016135Y018307D01*
X016159Y018244D01*
X016187Y018182D01*
X016218Y018122D01*
X016253Y018064D01*
X016291Y018008D01*
X016332Y017954D01*
X016376Y017902D01*
X016423Y017853D01*
X016473Y017807D01*
X016526Y017764D01*
X016580Y017724D01*
X016637Y017687D01*
X016696Y017654D01*
X016757Y017624D01*
X016819Y017597D01*
X016883Y017574D01*
X016862Y017506D01*
X016861Y017506D01*
X016796Y017529D01*
X016733Y017556D01*
X016671Y017586D01*
X016611Y017619D01*
X016553Y017656D01*
X016497Y017696D01*
X016443Y017739D01*
X016391Y017785D01*
X016342Y017833D01*
X016296Y017884D01*
X016253Y017938D01*
X016213Y017994D01*
X016176Y018052D01*
X016142Y018112D01*
X016112Y018173D01*
X016085Y018237D01*
X016061Y018301D01*
X016041Y018367D01*
X016025Y018434D01*
X016012Y018502D01*
X016003Y018570D01*
X015998Y018639D01*
X015997Y018708D01*
X016000Y018776D01*
X016006Y018845D01*
X016016Y018913D01*
X016030Y018981D01*
X016047Y019047D01*
X016068Y019113D01*
X016093Y019177D01*
X016121Y019240D01*
X016152Y019301D01*
X016187Y019360D01*
X016225Y019418D01*
X016266Y019473D01*
X016310Y019526D01*
X016357Y019576D01*
X016407Y019624D01*
X016459Y019669D01*
X016514Y019711D01*
X016570Y019750D01*
X016629Y019785D01*
X016690Y019818D01*
X016752Y019847D01*
X016816Y019873D01*
X016881Y019895D01*
X016883Y019888D01*
X016817Y019865D01*
X016752Y019839D01*
X016689Y019810D01*
X016627Y019776D01*
X016568Y019740D01*
X016510Y019700D01*
X016455Y019657D01*
X016403Y019610D01*
X016353Y019561D01*
X016306Y019510D01*
X016261Y019455D01*
X016220Y019399D01*
X016183Y019340D01*
X016148Y019279D01*
X016117Y019216D01*
X016090Y019152D01*
X016066Y019086D01*
X016046Y019019D01*
X016030Y018951D01*
X016018Y018882D01*
X016009Y018812D01*
X016005Y018743D01*
X016004Y018673D01*
X016008Y018603D01*
X016015Y018533D01*
X016026Y018464D01*
X016041Y018396D01*
X016060Y018328D01*
X016082Y018262D01*
X016109Y018197D01*
X016139Y018134D01*
X016172Y018072D01*
X016209Y018013D01*
X016249Y017955D01*
X016292Y017900D01*
X016338Y017848D01*
X016387Y017798D01*
X016439Y017751D01*
X016493Y017707D01*
X016550Y017666D01*
X016609Y017628D01*
X016670Y017594D01*
X016733Y017563D01*
X016797Y017536D01*
X016863Y017513D01*
X016865Y017519D01*
X016800Y017543D01*
X016736Y017570D01*
X016673Y017600D01*
X016613Y017634D01*
X016554Y017672D01*
X016498Y017713D01*
X016444Y017756D01*
X016392Y017803D01*
X016343Y017853D01*
X016297Y017905D01*
X016254Y017960D01*
X016214Y018017D01*
X016178Y018076D01*
X016145Y018137D01*
X016115Y018200D01*
X016089Y018264D01*
X016066Y018330D01*
X016048Y018397D01*
X016033Y018465D01*
X016022Y018534D01*
X016015Y018603D01*
X016011Y018673D01*
X016012Y018742D01*
X016016Y018812D01*
X016025Y018881D01*
X016037Y018949D01*
X016053Y019017D01*
X016073Y019084D01*
X016096Y019149D01*
X016124Y019213D01*
X016154Y019276D01*
X016189Y019336D01*
X016226Y019395D01*
X016267Y019451D01*
X016311Y019505D01*
X016358Y019557D01*
X016407Y019605D01*
X016460Y019651D01*
X016514Y019694D01*
X016572Y019734D01*
X016631Y019770D01*
X016692Y019803D01*
X016755Y019833D01*
X016820Y019859D01*
X016886Y019881D01*
X016888Y019874D01*
X016822Y019852D01*
X016758Y019826D01*
X016695Y019797D01*
X016634Y019764D01*
X016575Y019728D01*
X016519Y019688D01*
X016464Y019646D01*
X016412Y019600D01*
X016363Y019552D01*
X016316Y019501D01*
X016272Y019447D01*
X016232Y019391D01*
X016195Y019333D01*
X016161Y019272D01*
X016130Y019210D01*
X016103Y019147D01*
X016080Y019081D01*
X016060Y019015D01*
X016044Y018948D01*
X016032Y018880D01*
X016023Y018811D01*
X016019Y018742D01*
X016018Y018673D01*
X016022Y018604D01*
X016029Y018535D01*
X016040Y018467D01*
X016055Y018399D01*
X016073Y018332D01*
X016096Y018267D01*
X016121Y018203D01*
X016151Y018140D01*
X016184Y018079D01*
X016220Y018021D01*
X016260Y017964D01*
X016303Y017909D01*
X016348Y017857D01*
X016397Y017808D01*
X016448Y017762D01*
X016502Y017718D01*
X016558Y017678D01*
X016616Y017640D01*
X016677Y017607D01*
X016739Y017576D01*
X016802Y017549D01*
X016868Y017526D01*
X016870Y017532D01*
X016805Y017556D01*
X016742Y017582D01*
X016680Y017613D01*
X016620Y017646D01*
X016562Y017683D01*
X016506Y017724D01*
X016453Y017767D01*
X016402Y017813D01*
X016353Y017862D01*
X016308Y017914D01*
X016266Y017968D01*
X016226Y018024D01*
X016190Y018083D01*
X016157Y018143D01*
X016128Y018206D01*
X016102Y018269D01*
X016080Y018334D01*
X016061Y018401D01*
X016047Y018468D01*
X016036Y018536D01*
X016029Y018604D01*
X016025Y018673D01*
X016026Y018742D01*
X016030Y018810D01*
X016039Y018879D01*
X016051Y018946D01*
X016067Y019013D01*
X016086Y019079D01*
X016109Y019144D01*
X016136Y019207D01*
X016167Y019269D01*
X016201Y019329D01*
X016238Y019387D01*
X016278Y019443D01*
X016321Y019496D01*
X016368Y019547D01*
X016417Y019595D01*
X016469Y019640D01*
X016523Y019683D01*
X016579Y019722D01*
X016638Y019758D01*
X016698Y019791D01*
X016761Y019820D01*
X016824Y019846D01*
X016890Y019868D01*
X016892Y019861D01*
X016827Y019839D01*
X016763Y019814D01*
X016701Y019784D01*
X016641Y019752D01*
X016583Y019716D01*
X016527Y019677D01*
X016473Y019635D01*
X016422Y019590D01*
X016373Y019542D01*
X016327Y019491D01*
X016284Y019438D01*
X016243Y019383D01*
X016207Y019325D01*
X016173Y019266D01*
X016143Y019204D01*
X016116Y019141D01*
X016093Y019077D01*
X016073Y019012D01*
X016058Y018945D01*
X016045Y018878D01*
X016037Y018810D01*
X016033Y018742D01*
X016032Y018673D01*
X016035Y018605D01*
X016043Y018537D01*
X016053Y018469D01*
X016068Y018402D01*
X016087Y018337D01*
X016109Y018272D01*
X016134Y018208D01*
X016163Y018147D01*
X016196Y018086D01*
X016232Y018028D01*
X016271Y017972D01*
X016313Y017918D01*
X016359Y017867D01*
X016407Y017818D01*
X016457Y017772D01*
X016510Y017729D01*
X016566Y017689D01*
X016624Y017652D01*
X016683Y017619D01*
X016745Y017589D01*
X016808Y017562D01*
X016872Y017539D01*
X016874Y017546D01*
X016810Y017569D01*
X016747Y017595D01*
X016686Y017625D01*
X016627Y017658D01*
X016570Y017695D01*
X016515Y017735D01*
X016462Y017778D01*
X016411Y017823D01*
X016364Y017872D01*
X016319Y017923D01*
X016277Y017976D01*
X016238Y018032D01*
X016202Y018090D01*
X016170Y018150D01*
X016141Y018211D01*
X016115Y018274D01*
X016093Y018339D01*
X016075Y018404D01*
X016060Y018471D01*
X016050Y018538D01*
X016042Y018605D01*
X016039Y018673D01*
X016040Y018741D01*
X016044Y018809D01*
X016052Y018877D01*
X016064Y018944D01*
X016080Y019010D01*
X016099Y019075D01*
X016123Y019139D01*
X016149Y019201D01*
X016179Y019262D01*
X016213Y019322D01*
X016249Y019379D01*
X016289Y019434D01*
X016332Y019487D01*
X016378Y019537D01*
X016426Y019585D01*
X016477Y019630D01*
X016531Y019671D01*
X016587Y019710D01*
X016645Y019746D01*
X016705Y019778D01*
X016766Y019807D01*
X016829Y019833D01*
X016894Y019854D01*
X016896Y019848D01*
X016832Y019826D01*
X016769Y019801D01*
X016708Y019772D01*
X016648Y019740D01*
X016591Y019704D01*
X016535Y019666D01*
X016482Y019624D01*
X016431Y019580D01*
X016383Y019532D01*
X016337Y019482D01*
X016295Y019430D01*
X016255Y019375D01*
X016219Y019318D01*
X016185Y019259D01*
X016155Y019199D01*
X016129Y019136D01*
X016106Y019073D01*
X016087Y019008D01*
X016071Y018942D01*
X016059Y018876D01*
X016051Y018808D01*
X016047Y018741D01*
X016046Y018673D01*
X016049Y018606D01*
X016056Y018539D01*
X016067Y018472D01*
X016082Y018406D01*
X016100Y018341D01*
X016122Y018277D01*
X016147Y018214D01*
X016176Y018153D01*
X016208Y018093D01*
X016244Y018036D01*
X016282Y017981D01*
X016324Y017927D01*
X016369Y017877D01*
X016416Y017828D01*
X016466Y017783D01*
X016519Y017740D01*
X016574Y017701D01*
X016631Y017664D01*
X016690Y017631D01*
X016750Y017602D01*
X016813Y017575D01*
X016876Y017552D01*
X016878Y017559D01*
X016814Y017582D01*
X016750Y017609D01*
X016689Y017640D01*
X016629Y017674D01*
X016571Y017711D01*
X016516Y017752D01*
X016463Y017795D01*
X016412Y017842D01*
X016365Y017891D01*
X016320Y017944D01*
X016278Y017998D01*
X016240Y018055D01*
X016204Y018114D01*
X016173Y018175D01*
X016145Y018238D01*
X016120Y018302D01*
X016099Y018368D01*
X016082Y018434D01*
X016069Y018502D01*
X016060Y018570D01*
X016054Y018638D01*
X016053Y018707D01*
X016056Y018776D01*
X016062Y018844D01*
X016073Y018912D01*
X016087Y018979D01*
X016105Y019046D01*
X016127Y019111D01*
X016152Y019175D01*
X016182Y019237D01*
X016214Y019297D01*
X016251Y019356D01*
X016290Y019412D01*
X016333Y019466D01*
X016378Y019517D01*
X016427Y019566D01*
X016478Y019612D01*
X016532Y019655D01*
X016588Y019694D01*
X016646Y019731D01*
X016707Y019764D01*
X016769Y019793D01*
X016833Y019819D01*
X016898Y019841D01*
X016900Y019834D01*
X016835Y019812D01*
X016772Y019787D01*
X016710Y019757D01*
X016650Y019725D01*
X016592Y019689D01*
X016536Y019649D01*
X016483Y019607D01*
X016432Y019561D01*
X016383Y019513D01*
X016338Y019462D01*
X016296Y019408D01*
X016256Y019352D01*
X016221Y019294D01*
X016188Y019234D01*
X016159Y019172D01*
X016133Y019108D01*
X016112Y019044D01*
X016094Y018978D01*
X016079Y018911D01*
X016069Y018843D01*
X016063Y018775D01*
X016060Y018707D01*
X016061Y018639D01*
X016067Y018571D01*
X016076Y018503D01*
X016089Y018436D01*
X016106Y018370D01*
X016127Y018304D01*
X016151Y018241D01*
X016179Y018178D01*
X016211Y018118D01*
X016246Y018059D01*
X016284Y018002D01*
X016325Y017948D01*
X016370Y017896D01*
X016417Y017847D01*
X016467Y017801D01*
X016520Y017757D01*
X016575Y017717D01*
X016633Y017680D01*
X016692Y017646D01*
X016753Y017616D01*
X016816Y017589D01*
X016881Y017566D01*
X016883Y017572D01*
X016819Y017595D01*
X016756Y017622D01*
X016695Y017652D01*
X016636Y017686D01*
X016579Y017723D01*
X016524Y017763D01*
X016472Y017806D01*
X016422Y017852D01*
X016375Y017901D01*
X016331Y017952D01*
X016289Y018006D01*
X016251Y018063D01*
X016217Y018121D01*
X016185Y018181D01*
X016157Y018243D01*
X016133Y018307D01*
X016113Y018372D01*
X016096Y018437D01*
X016083Y018504D01*
X016074Y018571D01*
X016068Y018639D01*
X016067Y018707D01*
X016070Y018775D01*
X016076Y018843D01*
X016086Y018910D01*
X016100Y018976D01*
X016118Y019042D01*
X016140Y019106D01*
X016165Y019169D01*
X016194Y019231D01*
X016227Y019290D01*
X016262Y019348D01*
X016301Y019404D01*
X016343Y019457D01*
X016389Y019508D01*
X016437Y019556D01*
X016487Y019601D01*
X016540Y019643D01*
X016596Y019683D01*
X016653Y019719D01*
X016713Y019751D01*
X016775Y019780D01*
X016837Y019806D01*
X016902Y019828D01*
D16*
X016150Y015700D02*
X016050Y015700D01*
X016150Y015700D02*
X016150Y014700D01*
X016050Y014700D01*
X018350Y014700D02*
X018450Y014700D01*
X018350Y014700D02*
X018350Y015650D01*
X018450Y015650D01*
D17*
X017709Y008636D03*
X017709Y008164D03*
X017709Y007836D03*
X017709Y007364D03*
X017709Y007036D03*
X017709Y006564D03*
X017709Y006236D03*
X017709Y005764D03*
D18*
X017709Y006000D03*
X017709Y006800D03*
X017709Y007600D03*
X017709Y008400D03*
D19*
X016542Y008399D03*
X015962Y008399D03*
X015962Y007599D03*
X016542Y007599D03*
X016542Y006799D03*
X016542Y005999D03*
X015962Y005999D03*
X015962Y006799D03*
M02*
